<?xml version="1.0" encoding="UTF-8"?>
<svg id="Layer_2" data-name="Layer 2" xmlns="http://www.w3.org/2000/svg" viewBox="0 0 890.93 1016.97">
  <defs>
    <style>
      .cls-1, .cls-2, .cls-3, .cls-4, .cls-5, .cls-6, .cls-7, .cls-8, .cls-9, .cls-10, .cls-11, .cls-12, .cls-13, .cls-14, .cls-15, .cls-16, .cls-17, .cls-18 {
        stroke-linecap: round;
        stroke-linejoin: round;
      }

      .cls-1, .cls-2, .cls-4, .cls-7, .cls-8, .cls-10, .cls-11, .cls-12, .cls-13, .cls-15, .cls-16, .cls-17, .cls-18 {
        fill: none;
      }

      .cls-1, .cls-4, .cls-13, .cls-17, .cls-18 {
        stroke-width: 2px;
      }

      .cls-1, .cls-8, .cls-9 {
        stroke: #f67b9f;
      }

      .cls-2, .cls-3, .cls-5, .cls-6, .cls-7, .cls-8, .cls-9, .cls-10, .cls-11, .cls-12, .cls-14, .cls-15, .cls-16 {
        stroke-width: 5px;
      }

      .cls-2, .cls-6 {
        stroke: #f16472;
      }

      .cls-3 {
        fill: #fbbb33;
      }

      .cls-3, .cls-11, .cls-18 {
        stroke: #fff080;
      }

      .cls-4, .cls-7 {
        stroke: #ee7fb0;
      }

      .cls-5 {
        fill: #e4e1b5;
      }

      .cls-5, .cls-15, .cls-17 {
        stroke: #ffc565;
      }

      .cls-6, .cls-9, .cls-14 {
        fill: #e5d6e9;
      }

      .cls-10, .cls-13 {
        stroke: #e4e1b5;
      }

      .cls-12, .cls-14 {
        stroke: #e5d6e9;
      }

      .cls-16 {
        stroke: #fbbb33;
      }
    </style>
  </defs>
  <g id="Funkies">
    <g>
      <path class="cls-15" d="M80.43,499.95c-5.2,3.41-10.49,6.7-15.54,10.3-2.22,1.58-3.85,1.87-6.33.44-4.11-2.36-8.91-1.69-13.31-1.26-29.48,2.89-45.16,28.56-42.45,50.69,2.36,19.26,17.27,37.06,40.65,40.55,15.82,2.36,30.05,8.62,42.24,18.4,18.05,14.48,34.52,30.64,51.77,45.96,17.87,15.87,35.29,32.21,53.38,47.85,5.92,5.12,11.6,10.51,17.34,15.82,18.29,16.9,37.12,33.26,55.38,50.2,9.95,9.24,20.16,18.24,30.28,27.31,15.04,13.47,29.97,27.04,44.97,40.55,15.61,14.06,31.23,28.11,46.81,42.2,7.57,6.84,15.49,13.37,22.11,21.05,10.19,11.82,16,25.68,20.28,40.43,5.75,19.79,25.28,32.98,46.61,32.05,8.57-.37,16.23-3.38,23.61-7.26"/>
      <path class="cls-15" d="M651.46,75.88q-2.33-.6-5.35.85c-31.18,14.93-62.37,29.85-93.54,44.8-55.98,26.86-111.84,53.97-167.96,80.56-44.28,20.98-88.47,42.14-132.7,63.21-30.92,14.72-61.95,29.23-92.68,44.31-1.61.79-3.26,1.98-5.31,1.77"/>
      <path class="cls-8" d="M852.79,253.78c-1.57-1.23-3.42-1.3-5.35-1.29-22.57.02-45.14.01-67.7.01-2.86,0-4.75.78-6.86,3.28-6.78,8.01-15.8,12.77-26.54,14.71-7.66,1.38-14.91.22-22.3-1.5-11.36-2.64-22.24-1.5-32.99,3.47-26.61,12.3-53.36,24.36-79.62,37.33-33.76,16.68-67.51,33.39-100.85,50.87-22.84,11.98-45.68,24-68.39,36.2-34.02,18.27-67.49,37.49-100.75,57.03-15.46,9.08-30.6,18.64-46.28,27.38-1.35.75-3.23,1.6-3.68,3.74,2.38,4.72,7.4,7.19,11.29,10.57,12.65,10.95,25.64,21.55,38.67,32.08,20.61,16.65,40.8,33.76,61.37,50.46,26.01,21.11,51.42,42.89,77.14,64.32,25.65,21.37,51.35,42.69,77.06,64,10.35,8.58,20.58,17.31,31.26,25.5,5.11,3.92,9.31,8.86,15.02,12.1,2.2,1.25,2.56,4.75.9,6.32-1.97,1.85-4.18,1.81-6.2.01-1.84-1.64-3.76-3.26-5.32-5.14-2.25-2.71-4.88-5.01-7.61-7.3-3,.63-4.44,1.76-3.71,5.22.87,4.13,1.53,8.3,2.82,12.34.81,2.53.67,4.91-1.83,6.35-2.42,1.39-4.28.08-6.26-1.58-3.34-2.81-6.97-5.33-10.7-7.64-.89-.55-2.29-1.93-3.97-.57-1.69,1.37-2.08,2.78-1.33,4.74,1.56,4.08,3.27,8.1,5.42,11.91,1.41,2.51,1.69,4.92-.56,6.78-2.03,1.67-4.33,1.09-6.66-.29-3.1-1.83-6.45-3.28-9.77-4.73-2.88-1.25-5.74-1.49-8,1.25"/>
      <path class="cls-11" d="M244.79,376.65c-3.3-.03-3.91,2.64-4.85,4.71-2.05,4.55-5.26,8.04-9.86,10.19-12.06,5.64-21.64-.22-26.33-9.01-3.63-6.82-8.21-10.67-16.42-9.76-1.47.16-2.98.14-4.45,0-7.7-.74-12.37,2.56-15.22,9.38-4.71,11.29-19.7,14.31-28.03,8.62-11-7.52-13.18-5.88-21.78.37-2.78-1.03-3.96-3.65-5.73-5.59-15.77-17.33-41.48-19.48-60.17-7.6-26.83,17.06-27.95,54.74-4.02,73.77,15.03,11.95,25.58,26.92,32.24,44.39,5.03,13.18,12.73,24.68,22,35.47,6.74,7.85,15.02,13.83,23.25,19.99,18.7,14,37.79,27.49,56.59,41.35,19.23,14.17,38.58,28.18,57.89,42.26,20.49,14.94,41,29.84,61.46,44.8,39.66,28.99,79.23,58.09,118.96,86.99,15.35,11.16,27.32,24.77,34.64,41.88,2.9,6.79,5.68,13.56,10.77,19.16,7.91,8.71,17.78,14.05,29.84,15.3,1.78.19,3.27.88,4.89,1.34"/>
      <path class="cls-8" d="M105.37,568.64c1.15,4.89,4.61,8.58,7.66,12.3,8.27,10.1,18.9,18,28.48,26.88.8.74,1.76,1.45,2.59,2.21,13.53,12.35,26.9,24.87,40.59,37.06,10.16,9.04,20.24,18.16,30.31,27.29,10.22,9.27,20.43,18.55,30.72,27.74,25.35,22.64,50.53,45.45,75.7,68.28,22.58,20.48,45.44,40.67,68.11,61.05,12.1,10.88,24.11,21.85,36.08,32.85,14.09,12.95,30.14,22.82,49.5,26.18,7.44,1.29,14.09,3.76,20.92,6.36,2.44.93,3.8,2.37,3.91,4.57.23,4.54.16,9.1,0,13.65-.04,1.08.01,2.85-2.16,2.56"/>
      <path class="cls-8" d="M643.89,295.59c.96,1.45.9,3.07.9,4.69,0,114.34,0,228.67-.01,343.01,0,1.29.22,2.61-.44,3.84"/>
      <path class="cls-11" d="M720.06,188.51c-2.82,1.14-5.54,2.74-8.48,3.33-8.79,1.75-12.95,7.76-15.77,15.03-4.9,12.66-13.72,21.37-26.46,27.43-28.79,13.68-57.16,28.16-86.05,41.64-22.63,10.56-45.32,20.99-68.16,31.13-24.24,10.76-48.64,21.18-73.03,31.6-31.54,13.47-63.45,26.11-95.32,38.81-1.68.67-3.55.88-5.33,1.31"/>
      <path class="cls-15" d="M643.89,166.33c-8.74,2.09-16.96,5.65-25.34,8.65-23.02,8.24-46.09,16.33-69.04,24.75-22.43,8.22-44.91,16.35-67.39,24.42-21.14,7.6-42.32,15.17-63.56,22.53-15.24,5.28-30.26,11.2-45.53,16.37-17.51,5.93-32.18,15.82-45.29,27.95-6.65,6.15-11.78,13.71-17.83,20.45-5.74,6.39-12.61,11.35-19.7,16.12-1.85,1.24-4.11,2.01-3.99,4.72"/>
      <path class="cls-16" d="M643.89,180.83c-9.21,3.41-18.38,6.9-27.62,10.22-18.69,6.73-37.4,13.4-56.12,20.06-16.03,5.71-32.06,11.4-48.11,17.06-18.86,6.66-37.68,13.45-56.54,20.14-23.92,8.48-47.69,17.37-71.74,25.52-15.83,5.36-30.55,12.71-42.68,23.97-5.98,5.55-11.45,11.65-15.72,18.66-4.68,7.68-11.34,13.26-20.44,15.8-3.06.85-6.24.53-9.35.4-15.11-.64-27.1,5.24-37.01,15.79-2.28,2.42-4.4,5.85-8.89,3.48-.45-.24-1.17-.03-1.76-.03-38.45,0-76.91.05-115.36-.07-3.85-.01-6.22,1.09-6.65,4.77-1.23,10.39-6.83,18.39-14.77,25.13-.34.28-.89.29-.85.89"/>
      <path class="cls-2" d="M643.89,201.31c-8.74,2.07-16.96,5.62-25.36,8.62-31.03,11.08-62.01,22.33-93.11,33.25-28.01,9.84-55.83,20.17-83.76,30.23-20.94,7.54-42.1,14.5-62.77,22.69-20.01,7.93-34.21,22.12-43.49,40.55-3.27,6.49-3.93,13.99-.19,21.03,1.26,2.37,1.83,4.96,2.67,7.47"/>
      <path class="cls-8" d="M337.88,365.56c5.55,14.56,2.03,27.88-6.76,40.05-11.41,15.8-30.84,21.99-49.36,17.51-19.17-4.63-32.14-20.17-34.77-38.79-.32-2.29,0-4.76-1.36-6.8-.78-1.18.19-1.72.39-2.6,1.73-7.46,4.7-14.53,7.22-21.74"/>
      <path class="cls-8" d="M643.89,215.81c-13.96,5.12-27.88,10.33-41.88,15.34-20.9,7.48-41.92,14.67-62.78,22.24-25.35,9.21-50.74,18.3-76.17,27.3-24.11,8.53-48.03,17.54-72.19,25.93-26.05,9.04-41.86,26.42-48.15,52.1-.52,2.14.24,4.63-1.72,6.41"/>
      <path class="cls-7" d="M643.89,261.04c-33.1,16.82-66.89,32.29-100.69,47.73-22.72,10.38-45.64,20.38-68.59,30.3-16.67,7.2-33.58,13.89-50.3,20.97-19.73,8.35-39.58,16.41-59.65,23.97-7.17,2.7-14.11,6-21.38,8.55-1.67.59-2.94.9-4.5.3"/>
      <path class="cls-8" d="M643.89,280.66c-5.36.95-9.96,3.74-14.65,6.06-40.81,20.23-81.9,39.96-122.18,61.19-40.49,21.34-80.87,42.83-120.67,65.34-29.15,16.49-57.99,33.43-86.8,50.43-6.24,3.68-12.47,7.39-18.71,11.09"/>
      <path class="cls-15" d="M397.12,424.86c13.13,12.76,27.25,24.51,40.62,37.03,9.15,8.57,18.62,16.87,28.03,25.2,22.22,19.67,43.83,39.96,66.27,59.4,5.76,4.99,11.3,10.23,16.87,15.41,13.28,12.32,26.92,24.27,40.27,36.51,15.02,13.77,30.23,27.37,45.39,40.99,20.23,18.17,40.41,36.38,60.58,54.61,14.83,13.39,29.85,26.58,44.48,40.16"/>
      <path class="cls-7" d="M186.44,539.63c3.93,4.97,9.69,7.82,14.72,11.5,41.25,30.19,82.55,60.29,123.8,90.48,15.06,11.02,29.95,22.23,45.06,33.19,1.9,1.38,3.95,3.78,7.07,2.21"/>
      <path class="cls-3" d="M810.03,100.62c-15.13-.68-27.43,11.54-30.38,23.87-3.94,16.45,6.59,32.4,21.95,36.62,15.99,4.39,33.65-3.73,38.78-20.8,6.04-20.1-8.99-39.63-29.45-39.69"/>
      <path class="cls-8" d="M815.38,177.84c2.65-1.86,5.95-2.04,8.94-2.89,18.59-5.25,31.48-22.82,32.56-40.63,1.49-24.59-16.52-45.72-41.07-48.35-17.97-1.92-32.19,4.71-43.32,18.39-4.42,5.44-6.39,11.9-10.03,17.63-10.1,15.93-24.94,25.7-42.84,31.97-19.06,6.68-37.97,13.75-57.06,20.37-5.73,1.99-11.15,4.92-17.34,5.62"/>
      <path class="cls-8" d="M159.27,452.17c-7.53,5.08-15.81,8.98-23.62,13.63-4.24,2.52-8.53,4.97-12.93,7.23-2.78,1.43-1.71,3.39-1.05,5.15,5.02,13.26,12.85,24.66,24.69,33.28,11.4,8.29,22.9,16.46,34.25,24.81,1.7,1.25,3.45,2.2,5.27,2.91,11.48-6.53,24.37-10.09,35.87-16.59,1.84.32,3.03,1.73,4.33,2.97,33.03,31.51,65.22,63.81,97.85,95.7,15.21,14.86,30.81,29.38,45.6,44.64,2.58,2.66,5.25,5.23,7.55,8.12"/>
      <path class="cls-11" d="M401.58,697.48c13.81,10.24,27.51,20.62,41.47,30.66,7.84,5.64,15.94,10.94,24.87,15.05,12.17,5.6,25.07,7.99,38.33,9.36,10.15,1.05,18.92,4.98,26.33,11.86,4.9,4.55,9.3,9.33,11.98,15.41"/>
      <path class="cls-8" d="M547.68,793.04c.81,14.8-3.47,27.81-14.69,38.41-4.63,4.37-10.22,7.3-16.09,9.7-1.42.58-2.57,1.16-3.52,2.24"/>
      <path class="cls-8" d="M60.38,512.32c-5.85,6.01-12.98,10.42-20.04,14.93"/>
      <path class="cls-15" d="M68.4,578.02c11.92-3.64,24.25-6.13,35.96-10.13,8.98-3.07,18.65-4.79,26.85-9.92"/>
      <path class="cls-6" d="M104.48,400.97c-5.22-9.14-13.2-14.56-24.06-15.29-12.67-.85-22.37,3.92-29.49,14.38-11.06,16.26-2.21,41.85,19.68,46.22,9.12,1.82,17.63.73,24.87-4.46,13.03-9.34,17.97-25.66,9.44-40.42"/>
      <path class="cls-15" d="M261.72,413.77c-3.24,2.98-4.67,6.98-6.7,10.66-3.9,7.08-8.03,8.38-16.03,5.58-12.11-4.24-24.14-4.25-36.08.8-6.4,2.71-11.69,6.71-16.51,11.51-6.61,6.58-12.02,6.59-18.64,0-8.5-8.45-18.56-14.2-30.29-17.55-4.14-1.18-8.45-1.48-12.67-3.14-.3-4.02-.31-8.34-1.02-12.55-.86-5.05-2.4-9.99-5.05-14.51-.55-.94-.74-1.95-.88-2.99"/>
      <path class="cls-14" d="M205.15,440.65c-9.78,5.6-16.37,13.18-18.86,24.29-2.6,11.59-.17,21.9,7.42,30.64,8.97,10.33,20.83,15.05,35.04,12.01,13.74-2.93,22.85-10.81,27.23-23.84,6.56-19.51-4.07-40.19-25.95-45.86-7.83-2.03-16.42-1.57-23.99,2.76"/>
      <path class="cls-11" d="M659.48,835.71c-.04-2.18.33-4.31.91-6.39,1.13-4.09,4.2-6.34,8.89-6.38,8.61-.07,17.22,0,25.83-.03,3.23,0,5.93,1.16,8,3.44,10.43,11.47,22.26,21.64,33,32.82,2.37,2.47,3.19,5.22,3.15,8.55-.13,12.94-.05,25.88-.05,38.82,0,8.72-2.91,11.62-12.03,11.93-.29,0-.59.02-.89.45"/>
      <path class="cls-15" d="M669.72,921.03c-15.29,0-30.59.02-45.88-.03-1.48,0-3.05.51-4.45-.4"/>
      <path class="cls-8" d="M562.82,918.47c-9.31,0-12.47-3.03-12.47-11.95,0-12.66.15-25.32-.08-37.97-.08-4.36,1.42-7.61,4.49-10.71,8.01-8.11,16.36-15.9,24.54-23.86,2.73-2.65,5.38-5.38,8.02-8.1,2.18-2.25,4.75-3.13,8.03-3.04,7.12.2,14.25.06,21.38.06,10.32,0,12.05,1.38,13.36,10.67"/>
      <path class="cls-10" d="M627.85,839.97c-1.5,3.11-3.32,6.02-5.79,8.53"/>
      <path class="cls-5" d="M735.2,191.5c-2.52-2.74-5.77-1.05-7.95-.26-15.55,5.64-24.03,17.63-25.01,31.4-1.26,17.9,9.02,30.82,24.11,36.53,9.22,3.49,18.9,2.41,27.96-1.62,1.54-.68,3.23-1.79,3.6-3.77"/>
      <path class="cls-11" d="M738.32,22.12c.94,1.35.41,2.85.41,4.27.04,32.99.03,65.99.04,98.98,0,1.71-.2,3.45.44,5.12"/>
      <path class="cls-9" d="M321.4,364.28c-5.67-9.7-14.13-15.21-25.83-16.25-12.12-1.08-25.65,6.05-30.8,17.93-6.28,14.5-1.8,29.82,11.21,38.4,17.06,11.25,41.31,3.84,47.66-17.04,2.38-7.85,1.34-15.33-2.24-22.61"/>
      <path class="cls-15" d="M645.67,292.18c-2.01-3.82.05-8.06-1.58-12.16,11.73-5.51,23.3-11.07,35.02-16.36,3.66-1.65,7.31-3.35,11.06-4.86,4.85-1.95,6.59-5.59,5.84-10.14-.66-4.01-3.68-7.16-7.58-7.65-2.17-.27-4.23.31-6.24,1.23-12.48,5.68-24.31,12.59-36.96,17.94"/>
      <path class="cls-8" d="M888.43,854.48c-34.74,0-69.49,0-104.23.02-1.8,0-3.76-.57-5.35.83"/>
      <path class="cls-11" d="M496.9,916.77c-6.27-6.1-13.32-10.43-22.71-10.74-10.92-.35-19.56,3.31-26.32,11.56-5.64,6.87-7.69,14.51-6.65,23.07,1.46,12.03,8.67,20.57,19.72,24.91,10.71,4.21,21.68,2.84,31.13-4.78,2.08-1.68,3.74-3.86,6.57-4.89,2.23-.82,1.68-4.52-.84-7.98"/>
      <path class="cls-8" d="M644.33,78.44c.94,1.35.4,2.85.42,4.27.32,27.3.04,54.61.26,81.91.13,16.34,0,32.71-.21,49.06-.11,8.67,0,17.35-.03,26.02,0,1.63-.06,3.24.9,4.69"/>
      <path class="cls-8" d="M122.3,433.4c4.16,1.59,8.68,1.73,12.95,3.11,20.53,6.65,33.31,20.04,38.69,39.99,3.42,12.69,7.98,24.7,19.63,32.84,6.53,4.56,13.64,7.67,21.82,8.58,28.71,3.17,46.94-15.39,51.98-35.9.98-3.98.28-8.35,1.92-12.34"/>
      <path class="cls-7" d="M594.89,920.18c-.27,9.81.53,19.63-.44,29.44-1.13,11.48-12.6,20.81-24.51,20.48-8.16-.23-16.35.48-24.5-.43"/>
      <path class="cls-7" d="M694.67,920.18c.21,9.39-.17,18.77.37,28.16.58,10.21,9.72,18.75,17.89,20.91,5.59,1.47,11.28.68,16.93.82,4.75.12,9.5.02,14.25.02"/>
      <path class="cls-7" d="M638.99,755.93c-4.68-2.17-9.41-.5-13.74.67-2.83.76-5.66,1.41-8.54,1.87-8.3,1.31-13.49,8.27-8.79,17.03,1.56,2.91,3.15,5.89,5.17,8.63,4.21,5.7,7.56,7.17,14.3,5.49,2.08-.52,4.07-1.45,6.24-.41"/>
      <path class="cls-15" d="M657.25,788.78c1.19.14,2.39.2,3.56.44,10.16,2.09,12.35,1.12,17.38-7.69,1.47-2.57,3.17-5.03,4.41-7.7,2.85-6.13-.23-12.27-7.09-14.49-9.25-2.99-18.73-4.66-28.51-4.69-6.97-.02-8.73,1.27-10.7,7.67-1.66,5.4-1.24,9.95,4.4,13.31,2.99,1.79,5.35,4.52,8.09,6.72,1.72,1.38,2.39,3.06,2.21,5.14"/>
      <path class="cls-8" d="M589.99,920.18c0,7.54.21,15.08-.06,22.61-.28,7.93-2.45,15.26-10.22,19.57-3.75,2.07-8.11,2.5-12.43,2.62-7.27.21-14.57-.47-21.83.43"/>
      <path class="cls-11" d="M699.57,920.18c0,7.39-.11,14.79.04,22.18.08,4.24.67,8.58,2.72,12.33,4.05,7.41,11.13,10.17,19.51,10.26,7.42.08,14.85.02,22.27.02"/>
      <path class="cls-2" d="M654.13,57.11c6.61,10.7,11.59,22.19,17.25,33.34,8.48,16.7,16.62,33.57,25.06,50.29,2.95,5.84,5.38,11.92,8.92,17.49"/>
      <path class="cls-8" d="M839.88,230.75c-2.08.6-4.16.65-6.31-.05-.76-3.48-.31-7.06-.35-10.61-.08-5.97-.12-11.95.03-17.92.06-2.49-.89-3.97-3.14-5.16-7.45-3.94-13.12-9.26-14.3-17.88-.36-2.62-2.61-2.2-4.43-2.12-7.74.35-15.25-1.1-22.2-4.02-4.86-2.04-9.51-4.22-14.74-5.51-8.91-2.19-17.7-2.62-26.78-1.31-2.76.4-5.56,1.28-8.44,1"/>
      <path class="cls-7" d="M645.23,650.12c-.96.88-.41,2-.42,2.99-.04,22.04-.04,44.09-.02,66.13,0,1.46-.42,3.04.88,4.27"/>
      <path class="cls-15" d="M440.33,511.04c-1.2,4.64-1.37,9.43-2.59,14.1-5.38,20.58-13.24,40.17-24.58,58.43"/>
      <path class="cls-7" d="M888.43,103.18c-8.15,0-11.1,2.76-11.12,10.67-.05,16.64-.01,33.28-.01,49.92"/>
      <path class="cls-11" d="M731.64,945.35c-1.06-2.47-1.47-5.18-3.53-7.28-4.18-4.25-9.17-5.05-14.73-2.11-5.03,2.66-7.46,7.77-5.73,13.21,1.66,5.22,5.18,8.49,11.52,8.51,6.43.02,10.77-4.04,11.7-8.9.18-.95-.21-2.2.77-3.01"/>
      <path class="cls-2" d="M737.43,168.03c-14.79,3.77-28.81,9.68-43.13,14.71-15.21,5.35-30.42,10.76-45.54,16.38-1.18.44-2.12,1.5-3.54,1.34"/>
      <path class="cls-15" d="M839.88,226.48c-1.56-1.54-3.56-.82-5.35-.82-29.25-.05-58.5-.03-87.75-.05-1.71,0-3.68.63-4.9-1.26"/>
      <path class="cls-2" d="M432.76,403.96c4.52,12.78,7.69,25.84,9.38,39.25.97,7.66,2.12,15.29,1.75,23.04"/>
      <path class="cls-8" d="M563.27,795.6c.22.92,1.17,1.36,1.81,1.65,8.44,3.74,16.51,8.23,25.32,11.25,3.41,1.17,5.28.29,7.19-2.21,3.49-4.57,4.27-9.04.96-14.15-1.84-2.84-3.47-5.86-5.12-8.84-3.47-6.27-11.73-8.33-17.73-2.23-4.04,4.1-8.71,7.77-11.81,12.52-1.79,2.73-3.31,1.89-5.05,1.12-3.07-1.37-5.97-3.07-8.94-4.64"/>
      <path class="cls-8" d="M728.07,853.63c-1.44,1.32-3.24.83-4.9.84-24.5.02-49,.02-73.49.02"/>
      <path class="cls-11" d="M644.78,6.77c0,21.9-.01,43.8.03,65.7,0,1.41-.53,2.92.41,4.27"/>
      <path class="cls-8" d="M537.43,903.97c1,1.74.9,3.65.9,5.55,0,34.98,0,69.97,0,104.95"/>
      <path class="cls-11" d="M752.13,906.53c-.8,1.48-.98,3.05-.9,4.69.27,5.42-.28,10.81,1.14,16.26.74,2.85-1.19,6.1-1.18,9.34.09,25.88.05,51.76.05,77.65"/>
      <path class="cls-8" d="M699.57,197.47c-2.66-1.01-4.79.39-7.15,1.23-14.96,5.36-29.98,10.55-44.94,15.9-.8.29-1.51.22-2.25.36"/>
      <path class="cls-15" d="M173.97,377.51c8.06,15.7,16.02,31.44,23.64,47.34.72,1.49,1.22,3.16,2.64,4.28"/>
      <path class="cls-11" d="M888.43,183.82c-10.98.73-21.97.34-32.96.42-3.71.03-7.42-.02-11.14.01-4.26.03-5.32.98-5.33,5.11-.04,12.09-.02,24.18-.02,36.26"/>
      <path class="cls-11" d="M698.68,146.27c-17.67,6.4-35.34,12.8-53.01,19.2"/>
      <path class="cls-15" d="M529.42,810.54c5.9-9.87,2.54-25.55-4.83-32.91-5.28-5.28-11.23-9.13-18.78-10.13-13.58-1.79-24.59,3.21-31.44,14.13-10.32,16.44-4.68,38.33,16.83,45.78,15.02,5.21,30.43-2.12,36.46-13.45.24-.45,1-.59.88-1.28"/>
      <path class="cls-11" d="M770.83,986.31c3.56,0,7.13-.05,10.69.02,2.52.05,3.68-.83,3.61-3.43-.15-5.68-.16-11.38,0-17.06.08-2.64-.86-3.72-3.62-3.43-3.55.37-7.24-.77-10.69.87"/>
      <path class="cls-8" d="M392.67,837.41c-2.76,5.84-3.53,12.18-4.83,18.36-1.78,8.46-3.11,17-4.04,25.59-.11.97-.26,1.82-.92,2.56"/>
      <path class="cls-11" d="M630.53,874.1c.59,7.91-2.55,15.17-4.56,22.59-2.12,7.86-3.18,16.22-9.25,22.64"/>
      <path class="cls-10" d="M693.78,809.68c-.9-2.96-2.38-5.77-3.78-8.43-1.79-3.41-.69-5.97.73-8.61,1.96-3.65,4.35-7.08,6.48-10.65,2.45-4.1,6.58-5.07,11.27-3.89"/>
      <path class="cls-15" d="M708.92,778.54c8,3.81,13.65,10.26,18.01,17.21,3.75,5.97,8.53,11.42,11.01,18.18,2.19,5.94,4.4,11.88,6.13,17.95,1.41,4.96,0,9.28-3.97,12.79"/>
      <path class="cls-10" d="M565.94,920.18c-.66,1.05-1.21,2.09-2.17,3.04-5.41,5.34-11.31,10.21-16.19,16.09-2.12,2.55-3.05,5.06-3.04,8.18.04,22.33.02,44.65.02,66.98"/>
      <path class="cls-8" d="M723.62,920.18c.96,1.24,1.06,2.77,2.6,3.93,6.06,4.54,11.15,10.07,16.12,15.69,1.97,2.23,2.72,4.74,2.71,7.68-.08,22.33-.04,44.65-.04,66.98"/>
      <path class="cls-15" d="M655.25,19.99c1.55,1.67,3.63,1.36,5.57,1.25,6.83-.39,13.81-.72,20.47-.44,11.16.48,22.29.03,33.43.43,4.45.16,8.92.2,13.36-.41.02,0,.03-.27,0-.41-.04-.15-.14-.29-.22-.43"/>
      <path class="cls-11" d="M853.68,185.1v43.52"/>
      <path class="cls-2" d="M153.03,312.66c-2.79,1.34-5.59,2.67-8.49,4.06-.32,1.43.66,2.71,1.37,4.04,4.71,8.91,8.51,18.25,13.78,26.89.71,1.17.43,2.54.46,3.83"/>
      <path class="cls-11" d="M884.86,183.39c0-4.69.01-9.39,0-14.08-.01-4.65-.03-4.67-4.9-4.69-8.46-.02-16.93.04-25.39-.04-2.32-.02-3.66.6-3.57,3.02.2,5.26-.45,10.54.45,15.79"/>
      <path class="cls-8" d="M519.17,894.58c0,32.85,0,65.7-.03,98.55,0,1.41.53,2.92-.41,4.27"/>
      <path class="cls-4" d="M519.17,1006.36v8.11"/>
      <path class="cls-11" d="M668.39,854.91c-.05,2.37.44,4.56,1.19,6.87,1.2,3.69-2.11,7.82-6.98,9.77"/>
      <path class="cls-7" d="M659.92,875.81c-1.5,4.59.22,8.99,1.48,13.19,1.67,5.53,3.29,11.06,4.48,16.69,1.09,5.18,3.94,9.42,6.96,13.64"/>
      <path class="cls-7" d="M786.87,173.58c-2.96,2.58-6.59,1.11-9.8,1.14-7.71.09-15.25.99-22.72,2.69-.28.06-.69-.11-.87.03-4.19,3.18-9.14,3.99-14.27,4.25"/>
      <path class="cls-15" d="M124.97,422.3c-2.24,1.48-1.53,3.98-2.16,5.99-2.33,7.39-5.15,14.73-5.16,22.59-.02,7.72-.74,15.57,3.76,22.61"/>
      <path class="cls-11" d="M765.94,113c-1.73-.29-2.88.6-4.02,1.7-12.7,12.14-28.18,19.72-44.97,25.21-6,1.96-11.89,4.24-17.83,6.37"/>
      <path class="cls-8" d="M851.9,799.44c-1.58.72-3.28.52-4.9.39-3.4-.28-4.62,1.29-4.47,4.31.05.99,0,1.99,0,2.99,0,7.62.32,7.88,8.91,6.77,0-1.77.02-3.63,0-5.49-.03-2.02-1.04-2.81-3.11-2.13"/>
      <path class="cls-8" d="M745.45,182.11c.22,2.27-1.89,3.05-3.16,4.23-6.88,6.37-13.79,12.73-21.34,18.38"/>
      <path class="cls-8" d="M752.57,252.08c4.99,1.92,10.1.05,15.15.39,2.04.14,4.08-.04,5.79,1.32"/>
      <path class="cls-11" d="M442.56,729.9c-7.56,11.27-15.08,22.57-21.38,34.56"/>
      <path class="cls-7" d="M596.23,808.83c1.89,2.19,4.55,2.24,7.12,2.1,8.16-.42,16.41-.48,24.5-.41,9.17.08,18.42.17,27.62.38,10.83.25,21.68-.1,32.51.17,2.75.07,5.07-1.15,8.05-.74,9.01,1.25,14.56,6.84,20.55,12.49,7.7,7.27,15,14.92,22.81,22.11,4.84,4.45,10.29,9.48,11.47,16.79.53,3.3.24,6.55.34,9.82.06,1.77-.02,3.54.95,5.1.35.56,1.32,1.11.82,1.69-3.18,3.68-1.7,8.01-1.59,11.97.11,4-.26,7.97-.13,11.95.08,2.52,5.77,7.87,8.9,8.01,1.73.08,3.51-.7,5.31-.94.62-.08,1.72-1.85,1.84-3.77-5.02-2.91-6.98-10.19-14.73-10.13"/>
      <path class="cls-15" d="M519.84,859.17c-.07-.28-.26-.59-.21-.85,1.5-6.78-2.18-11.34-7.85-15.32-.76.3-2.24.06-3.76.3-7.99,1.27-8,1.17-8,8.62,0,6.26.54,12.57-.14,18.76-.8,7.31.67,14.52.17,21.77-.12,1.82-.08,3.61-1.37,5.12"/>
      <path class="cls-8" d="M444.79,469.23c-.9,8.8-.64,17.67-1.74,26.46-.26,2.05-.02,4.16-1.37,5.97"/>
      <path class="cls-8" d="M858.14,268.29c-.42,10.08,1.55,8.05,8.46,8.1,2.08.02,4.17-.16,6.23.04,3.46.33,4.72-1.13,4.5-4.3-.09-1.26.26-2.56.41-3.84"/>
      <path class="cls-15" d="M398.91,802.86c1.22.66,2.44,1.33,3.7,2.02-3.65,8.62-5.88,17.53-9.05,26.14"/>
      <path class="cls-11" d="M726.74,230.75c-3.38-5.89-.4-13.12,3.99-15.82,6.74-4.14,12.81-3.24,17.86,2.15,3.84,4.1,4.44,11.59-.04,16.64-5.57,6.28-14.53,6.17-19.57.43-.75-.85-1.96-1.33-2.24-2.55"/>
      <path class="cls-7" d="M491.88,638.6c4.37,3.64,8.22,2.83,9.95-2.24,1.19-3.46-2.19-4.04-3.93-6.37-3.51,4.21-6.61,7.93-9.71,11.64"/>
      <path class="cls-11" d="M466.29,603.92c-4.4-3.67-6.77-3.28-9.43,1.57-1.31,2.39-.62,3.63,3.87,6.49,3.24-3.88,6.52-7.81,9.8-11.75"/>
      <path class="cls-7" d="M693.33,2.93h-5.57v6.34c2.93.79,6.95-.04,6.84,4.32-.1,4.22-3.49,3.96-6.62,3.9-.29,0-.59.51-.89.37"/>
      <path class="cls-11" d="M773.06,838.27c.19-1.11.97-1.85,1.78-2.56,3.54-3.06,1.57-5.64-2.23-5.9-4.04-.28-7.58-3.03-12.07-1.49-2.96,1.02-4.84,2.35-4.3,5.23.45,2.4,2.29,3.62,5.22,3.98,4.63.58,9.4.31,13.89,2.3,1.81.81,2.18,1.56,2.18,3.12s-.29,2.4-2.18,3.13c-2.66,1.02-5.75,1.66-7.63,4.12"/>
      <path class="cls-7" d="M410.93,919.33c-9.5.7-19,.7-28.51,0"/>
      <path class="cls-7" d="M84.88,537.49c-8.27,4.9-17.26,8.47-25.86,12.75-.73.36-1.12.95-1.75,1.33"/>
      <path class="cls-11" d="M770.83,809.68c-2.1-.44-.99-2.7-2.85-3.8-3.08-.28-6.83.3-10.52-.46-2.23-.46-3.95,1-5.74,1.79-2,.88-2.81,3.06-2.18,5,.72,2.2,2.71,3.74,5.23,3.35,1.81-.28,3.58-.33,5.36-.31,4.22.06,7.23-1.77,9.35-5.15"/>
      <path class="cls-15" d="M514.04,648.2l.34.29c3.97,3.31,6.77,3.63,8.48.96,1.77-2.77.77-4.75-4.19-7.9-3.74,3.46-6.08,8.28-10.3,11.36"/>
      <path class="cls-11" d="M875.06,75.45c-2.08-.15-4.21.46-6.29-.67.97-2.98,3.38-5.41,4.95-8.29,1.13-2.07,2.46-4.34-.47-5.92-2.72-1.46-4.31.17-5.31,2.51"/>
      <path class="cls-7" d="M745,784.51c3.95,1.43,7.4-1.04,11.14-1.28,2.87,3.3,2.17,7.66-1.81,9.32-3.12,1.31-6.46,2.21-9.79,2.99-2.09.49-4.16-.24-5.28-2.1-1.15-1.91-.74-4.49.92-5.39,5.23-2.84,5.51-8.59,8.76-12.55,1.72-2.09-.27-3.8-2.18-4.08-2.2-.32-4.5-.57-6.76,1.24-2.52,2.01-5.93,2.95-8.78,4.64-2.59,1.54-4.36.5-5.77-1.36-1.3-1.7-1.91-4.1.02-5.42,3.83-2.63,3.38-6.98,5.1-10.41.84-1.67,2.5-4.81-.75-6.23-2.49-1.09-5.02.03-7.07,1.64-2.44,1.91-4.62,4.16-7.19,5.89-2.25,1.51-4.73,3.24-7.56.51-2.49-2.4-1.38-4.69.06-6.83,2.89-4.29,1.45-9.15,1.98-13.7.26-2.19-2.46-2.61-4.69-1.69-4.1,1.69-5.53,5.79-8.45,8.55-.97.92-1.79,1.98-2.69,2.97-1.53,1.69-3.45,1.51-5.33.83-2.46-.88-3.11-4.04-2.48-4.97,2.85-4.21.15-8.38.55-12.51.15-1.57.61-4.11-2.52-4.74-3.05-.62-4.78,1.39-5.65,3.12-1.63,3.24-3.94,6.08-5.47,9.33-1.18,2.5-2.57,3.97-5.84,3.04-3.29-.93-3.63-3.31-3-5.59,1.37-4.96-1.92-8.84-2.93-13.22-.67-2.91-2.72-2.74-5.22-.49-3.79,3.41-3.76,8.2-5.29,12.41-.76,2.09-1.68,4.08-4.05,4.62-2.05.47-3.52-.74-4.44-2.5"/>
      <path class="cls-15" d="M640.33,733.32c-2.28-1.77-2.6-4.59-4-6.83-.75-1.19-.96-2.72-3.13-2.62-2.3.1-2.68,1.2-2.76,3.05-.03.59-1.1,1.14-1.69,1.71"/>
      <path class="cls-7" d="M450.91,604.97c.44-1.78,1.81-2.94,2.96-4.19,4.61-5.04,2.98-5.36-2.35-8.51-1.85,2.79-4.61,4.93-6.09,8.14"/>
      <path class="cls-15" d="M444.34,920.18c-8.91-.7-17.82-.7-26.73,0"/>
      <path class="cls-15" d="M711.15,781.1c-2.02,11.07-11.01,16.01-20.04,20.9"/>
      <path class="cls-11" d="M569.46,702.76l2.73-3.28q3.83-4.6-2.31-8.51c-1.86,2.8-4.62,4.95-6.1,8.16"/>
      <path class="cls-11" d="M670.17,17.86c4.36-1.94,7.52-8.84,5.77-12.79-.72-1.62-1.95-2.36-3.99-2.21-2.21.16-2.85,1.48-3.06,3.06-.26,1.88-.35,3.79,2.16,4.74,1.34.51,2.61.87,4.03.8"/>
      <path class="cls-15" d="M440.78,510.19c.49-2.87,1.39-5.48-.29-8.61-2.66-4.96-7.52-4.4-11.76-5.36-1.6-.36-2.81,1.18-3.08,2.88-.32,2.03.85,3.54,2.68,3.72,1.79.18,4.32,1.21,5.34-1.59.42-1.15.89-2.28,1.33-3.41"/>
      <path class="cls-15" d="M791.32,814.8c2.46-.64,4.62-1.8,5.29-4.28.75-2.77.74-5.7.41-8.51-.22-1.87-2.03-2.23-3.92-2.18-2.5.07-2.89,1.74-3.08,3.45-.22,1.95.12,3.83,2.64,4.24,1.17.19,2.43-.15,3.56.45"/>
      <path class="cls-8" d="M472.85,953.46c10.15-1.32,16.66-7.91,16.44-17.06-.22-9.19-7.76-17.27-19.11-16.17-6.87.67-11.38,4.86-13.69,10.67-2.25,5.67-1.51,11.34,2.98,16.18,3.47,3.73,7.32,6.55,12.93,5.96"/>
      <path class="cls-15" d="M202.03,453.87c-7.75,5.5-12.09,16.04-7.22,28.19,2.6,6.49,6.23,12.28,12.67,15.1,5.25,2.3,11.23,3.87,17.26,3.58,5.09-.25,9.63-2.39,13.77-5.11,1.28-.84,2.77-1.9,2.71-3.79"/>
      <path class="cls-8" d="M208.27,454.73c-.47,1.44-1.53,2.48-2.68,3.4-7.25,5.78-7.73,12.93-4.97,20.94.65,1.89,2.49,3.65,1.42,5.95"/>
      <path class="cls-10" d="M418.51,769.58c-3.86,7.68-7.72,15.36-11.58,23.04"/>
      <path class="cls-11" d="M539.62,666.21c-1.06-2.57-2.59-4.24-5.59-3.12-.81,2.33.82,4.02,1.6,5.85.61,1.42,1.36,3.07-.3,3.6-1.31.42-3.6.66-4.15-1.74-.28-1.22-1.84-1.38-1.89-2.64"/>
      <path class="cls-15" d="M94.24,415.9c.77-7.77-6.56-15.8-16.04-16.16-9.76-.38-17.07,6.61-17.37,16.16"/>
      <path class="cls-8" d="M517.83,797.74c-.08-7.73-6.32-15.05-13.81-16.21-7.44-1.15-16.86,3.59-19.05,10.27-2.12,6.45-.91,12.7,3.94,17.86,4.24,4.52,11.88,6.12,17.78,3.85,6.97-2.69,10.83-7.61,11.14-14.91"/>
      <path class="cls-8" d="M60.83,416.76c.04,8.74,7.8,16.55,16.62,15.77.64,1.37.14,2.86.3,4.28"/>
      <path class="cls-7" d="M202.47,453.87c4.03.12,7.79-.32,11.64-2.02,7.4-3.26,23.26,1.06,26.37,8.11,2.99,6.76,5.54,14.41,2.03,22.05-1.07,2.34-4.22,3.4-5.17,5.61-2.08,4.82-6.62,6.05-10.84,6.59-6.76.87-13.66.44-19.12-4.52-3.06-2.77-6.21-5.33-10.7-5.54"/>
      <path class="cls-7" d="M752.13,960.28c4.73-.81,9.51-.44,14.25-.37,3.63.05,4.02,2.74,4.01,5.49-.01,10.38,0,20.76,0,31.14v17.92"/>
      <path class="cls-12" d="M810.48,110.86v36.26c7.3.95,14.9-4.56,16.48-11.95,1.59-7.41-1.91-14.94-8.93-18.31-11.04-5.3-20.78.75-23.89,9.82-.48,1.39-1.34,2.98-1.03,4.65"/>
      <path class="cls-8" d="M410.49,588.69c-5.61,7.41-10.37,15.43-16.93,22.18"/>
      <path class="cls-10" d="M877.29,229.89v22.18"/>
      <path class="cls-1" d="M590.44,1002.52v11.96c-.45.19-.89.38-1.34.57-2.19-4.39-6.12-7.65-7.57-12.53"/>
      <path class="cls-8" d="M293.79,395c7.8.23,12.83-3.94,15.47-10.28,4.03-9.7-3.08-21.73-15.01-22.4-12.03-.68-20.82,11.46-16.91,21.59,2.65,6.87,8.05,10.57,15.56,11.53"/>
      <path class="cls-7" d="M793.11,132.2c1.26,4.02,2.07,8.1,5.72,11.17,3.33,2.81,6.72,4.62,11.33,4.13.66,1.42.16,2.9.32,4.32"/>
      <path class="cls-7" d="M271.07,420.17c-5.73,7.5-8.22,15.94-8.02,25.17.09,3.95,1.46,7.68,2.26,11.51.39,1.89,1.37,3.67,1.7,5.56.59,3.4,1.44,5.8,5.23,7.94,5.69,3.23,10.28,8.24,15.3,12.54,1.05.9,1.98,1.9,3.58,1.69"/>
      <path class="cls-15" d="M645.23,743.56c-.98,9.37-.2,18.77-.43,28.16-.04,1.76.14,3.53-.9,5.12"/>
      <path class="cls-8" d="M624.29,725.64c1.32,1.97,4.59,2.66,4.4,5.54-.24,3.73-.46,7.48-1.69,11.11-.68,2.01-1.78,2.9-4.04,3.04-2.33.15-4.12-1.39-4.26-2.65-.33-2.92-1.65-4.97-3.76-6.8-2.39-2.08-3.22-5.31-5.88-7.25-4.39-.23-3.53,3.94-5.25,5.97"/>
      <path class="cls-7" d="M94.68,416.76c-1.51,9.81-7.75,15.79-16.93,15.79v-40.96"/>
      <path class="cls-15" d="M55.49,552c-2.4-4.11-4.2-5.15-8.45-4.22-3.61.79-4.61,4-5.73,6.81-.62,1.55,2.88,7.15,4.38,7.65,2.94.99,7.94-.51,9.32-3,1.16-2.1,3.36-4.21.93-6.81"/>
      <path class="cls-11" d="M528.08,537.07c-1.34-1.28-2.67-2.56-4.11-3.93,2.61-1.71,5.72-1.96,8.56-2.88,2.42-.79,5.33-1.13,4.44-4.7-.9-3.61-3.61-1.88-5.78-1.71"/>
      <path class="cls-8" d="M249.24,467.53c3.14,7.12-.44,18.99-7.14,23.45-1.86,1.24-3.85,0-5.78.01"/>
      <path class="cls-10" d="M728.07,800.3c-9.94-.04-15.17,7.13-21.38,12.8"/>
      <path class="cls-15" d="M520.51,852.35c4.83-.34,5.28,4.43,7.79,6.64,3.11,2.74,5.52,6.78,6.02,11.28"/>
      <path class="cls-8" d="M536.99,877.52c2.19,7.44.97,15.07,1.31,22.61.07,1.59-.48,3.15-2.2,3.82-4.72,1.85-7.13,5.97-10.24,9.17-.17,2.3,3.69,2.77,2.23,5.35"/>
      <path class="cls-15" d="M378.86,185.95c.12-2.31,1.13-4,3.85-4.51,2.48,1.62,4.26,6.02,2.66,9.55-.89,1.97-.41,3.46-.26,5.23,1.97-.29,3.75-1.01,5.33-2.18"/>
      <path class="cls-8" d="M203.81,456.86c-2.59-4.4-2.68-4.52,1.36-7.22,5.88-3.93,12.02-5.88,19.62-4.49,8.33,1.53,15.36,4.15,20.05,11.25.83,1.26,2.08,2.35,1.24,3.85-1.12,1.99-2.94.15-4.41.45"/>
      <path class="cls-15" d="M461.71,706.01c-5.49,6.68-10.99,13.37-16.48,20.05"/>
      <path class="cls-15" d="M759.25,853.2c1.47-2.9,4.3-3.19,6.61-2.01,2.9,1.49,6.09,2,8.93,3.38,1.28.62,3.41.83,3.27,3.32-.11,2.06-1.04,3.22-2.79,3.77-.88.28-.98,1.16-1.76,1.35"/>
      <path class="cls-15" d="M757.92,854.91c-.36,3.46,2.09,4.57,4.89,5.57,4.18,1.5,8.86,1.54,12.58,4.56,1.51,1.22,2.46,2.19,2.09,3.94-.36,1.73-1.99,2.4-3.53,2.52-4.67.36-8.87,3.22-13.81,2.22-2.18-.44-3.54,1.16-4.89,2.52"/>
      <path class="cls-7" d="M162.83,352.34c.24.98-.18,1.94.39,3.01,2.93,5.49,5.17,11.31,8.52,16.61"/>
      <path class="cls-7" d="M738.32,147.55c1,6.52.21,13.08.43,19.63.22,6.4-.41,12.81.46,19.2"/>
      <path class="cls-10" d="M759.25,732.04c-7.47,8.87-15.75,17.06-23.62,25.59-1.16,1.26-2.29,2.71-4.45,2.14"/>
      <path class="cls-11" d="M634.09,791.34c-1.94,6.16-7.01,11.34-6.24,18.35"/>
      <path class="cls-7" d="M882.19,67.35c-1.24,1.18-2.75,2.4-2.17,4.25.57,1.83,1.87,3.86,3.94,3.71,2.37-.17,3.23-2.08,3.21-4.55-.02-3.21-1.59-4.12-4.54-3.84"/>
      <path class="cls-15" d="M518.28,962.42c-3.27,0-6.54.1-9.8-.03-2.63-.1-4.53.33-4,3.44.22,1.3-1.09,1.92-1.35,2.99"/>
      <path class="cls-15" d="M826.96,814.38c-1.93-.28-4.06.67-5.93-.84,1.11-2.72,2.9-4.95,4.56-7.29,1.32-1.87,1.91-4.28-.05-5.85-1.73-1.39-3.87-.73-5.26,1.18"/>
      <path class="cls-12" d="M264.83,429.56c-1.8-.19-3.22.23-4.49,1.68-4.21,4.77-8.58,9.42-12.88,14.11"/>
      <path class="cls-11" d="M382.87,890.74c-.45,5.69-.92,11.38-1.3,17.07-.05.69-.64,2.22,1.3,1.49"/>
      <path class="cls-10" d="M876.4,252.93c-5.2.4-10.37-.39-15.59-.07-7.53.47-9.44.48-9.76,7.32-.26,5.57,2.42,7.57,8.43,7.3,5.63-.25,11.29-.27,16.92,0,6.95.34,10.3-3.76,8.01-10.29-.36-1.02-.88-1.99-1.32-2.99"/>
      <path class="cls-7" d="M874.62,809.26c-4.94.18-5.33.55-4.88,4.91h5.29c1.29-9.15.54-10.47-5.31-9.6"/>
      <path class="cls-8" d="M502.69,976.5c-1.71-.23-2.34.78-2.67,2.13-1.25,5.07.97,10.23,5.81,12.76,3.42,1.79,6.67,3.65,8.95,6.82.49.69,1.72.89,2.61,1.32"/>
      <path class="cls-8" d="M500.46,919.33c8.76.71,17.52.44,26.28,0"/>
      <path class="cls-11" d="M678.63,732.04c-.99-.4-.98-1.36-1.37-2.12-.67-1.29-.9-3.01-3.08-3.03-1.97-.02-2.75.9-3.68,2.53-1.24,2.18-2.72,4.36-4.78,6.03"/>
      <path class="cls-18" d="M518.28,1009.35c-2.82,0-5.64.06-8.46-.01-5.91-.15-5.68.97-5.35,5.13"/>
      <path class="cls-1" d="M771.28,1009.35c2.82,0,5.64.03,8.46,0,5.67-.08,5.45-.18,5.35,5.13"/>
      <path class="cls-10" d="M520.06,959.86h17.37"/>
      <path class="cls-15" d="M536.99,893.3c-5.35.14-10.71.19-16.03.87-1.97.25-3.01-.94-3.99-2.17-.84-1.06-1.03-2.67.03-3.32,3.11-1.92,2.65-4.51,2.23-7.34-.27-1.81-.13-3.69-.03-5.54.19-3.52.32-6.8-4.92-6.92-1.28-.03-2.27-1.32-2.25-2.9.02-1.56.7-2.14,2.12-3.15,3.68-2.6,8.02-3.49,11.93-5.38"/>
      <path class="cls-12" d="M677.3,254.21c-5.27,3.52-11.34,5.58-16.93,8.53"/>
      <path class="cls-8" d="M307.59,431.69c-5.88,2.41-11.63,5.06-16.93,8.53"/>
      <path class="cls-8" d="M640.77,272.13c-5.58,2.95-11.66,5.01-16.93,8.53"/>
      <path class="cls-11" d="M492,342.95c-5.27,3.52-11.34,5.58-16.93,8.53"/>
      <path class="cls-8" d="M529.42,325.03c-5.27,3.52-11.34,5.58-16.93,8.53"/>
      <path class="cls-8" d="M418.06,377.93c-5.22,3.61-10.92,6.35-16.93,8.53"/>
      <path class="cls-15" d="M645.67,782.38c-1.38,1.38-.87,3.1-.87,4.69-.03,20.9-.02,41.81-.02,62.71"/>
      <path class="cls-8" d="M414.94,181.26c-.89-1.71-1.84-3.39-2.66-5.13-1.28-2.73-3.02-3.5-5.83-1.74-1.48.93-3.24,1.46-4.89,2.18,0,3.54,3.14,5.99,3.58,9.38"/>
      <path class="cls-11" d="M455.48,360.87c-5.68,2.48-10.98,5.74-16.93,7.68"/>
      <path class="cls-11" d="M122.3,520.43c-5.95,1.94-11.25,5.2-16.93,7.68"/>
      <path class="cls-15" d="M885.75,66.92c.4-1.15,1.47-1.9,1.44-3.42-.05-2.28-1.28-3.2-3.22-3.36-2.39-.21-3.01,1.26-3.2,3.36-.14,1.54,1.02,2.26,1.42,3.42"/>
      <path class="cls-8" d="M603.36,290.05c-5.68,2.48-10.98,5.74-16.93,7.68"/>
      <path class="cls-7" d="M737.43,182.54c-5.49,1.99-10.99,3.98-16.48,5.97"/>
      <path class="cls-7" d="M498.24,877.94c-4.7.51-6.65,4.78-10.15,6.96-2.08,1.29-4.59,2.92-4.99,5.84"/>
      <path class="cls-7" d="M706.25,159.93c2.08,5.46,4.87,10.6,7.57,15.79"/>
      <path class="cls-15" d="M640.33,832.29c1.59.63,3.26.34,4.9.43,7.76.44,14.99,2.59,21.34,6.88,3.09,2.08,3.45,5.21,1.82,8.9"/>
      <path class="cls-15" d="M886.2,806.27c.31-2.09-1.03-2.21-2.67-2.15-1.8.06-2.68.85-2.68,2.58.01,2.7,0,5.4,0,8.11"/>
      <path class="cls-15" d="M540.55,546.45c2.29-2.49,4.59-4.98,6.68-7.25.6,0,.84-.05.88,0,1.56,2.57,5.64,3.52,5.68,6.82.04,3.54-4.65,4.48-5.67,7.68"/>
      <path class="cls-11" d="M565.94,307.97c-5.35,2.56-10.69,5.12-16.04,7.68"/>
      <path class="cls-8" d="M623.85,724.36c-4.02,1.83-4.48,5.2-4.55,8.96-.03,1.65-1.09,3.27-1.69,4.91"/>
      <path class="cls-7" d="M343.67,414.2c-5.2,2.42-10.39,4.84-15.59,7.25"/>
      <path class="cls-7" d="M719.61,241.84c5.62.44,10,2.98,13.36,7.25"/>
      <path class="cls-15" d="M488.44,714.12c3.96,1.3,5.89,4.89,8.91,7.25,2.05,1.61,3.33,4.14,6.24,4.69"/>
      <path class="cls-18" d="M628.74,1002.52c.49,2.77-2.11,4.53-2.51,6.85-.27,1.57-2.41,4.53,1.62,5.08,3.84.52,4.77-.57,3.53-4.24-.49-1.45-.46-3.12-1.75-4.28"/>
      <path class="cls-8" d="M773.51,891.6c-1.79,4.09-5.24,4.81-9.36,4.28-1.78-.23-3.45.17-4.9,1.26"/>
      <path class="cls-15" d="M638.99,876.66c.6,3.07,3.59,4.42,5.79,4.42s5.19-1.35,5.79-4.42"/>
      <path class="cls-15" d="M308.93,380.07c-4.57,4.47-9.51,8.63-12.92,14.08"/>
      <path class="cls-15" d="M395.79,629.65c4.81,4.49,10.08,8.55,14.25,13.65"/>
      <path class="cls-7" d="M364.61,602.34c5.53,3.75,9.99,8.65,15.14,12.8"/>
      <path class="cls-8" d="M334.32,574.18c4.75,4.27,9.5,8.53,14.25,12.8"/>
      <path class="cls-7" d="M709.81,17.86v-9.6h-10.69v9.6"/>
      <path class="cls-11" d="M726.74,18.71c-1.9-2.08-.74-4.56-.81-6.83-.08-2.81-1.15-4.03-4.09-3.86-2.08.12-4.17.02-6.68.02v9.81"/>
      <path class="cls-11" d="M426.97,657.8c4.75,4.27,9.5,8.53,14.25,12.8"/>
      <path class="cls-11" d="M303.14,546.03c4.75,4.27,9.5,8.53,14.25,12.8"/>
      <path class="cls-15" d="M474.98,612.28c-.78-2.5-2.27-3.81-5.07-3.29-1.3,3.53,1.85,6.04,2,9.11-4.12,3-5.12-1.39-7.18-3.26"/>
      <path class="cls-15" d="M741.88,770.86c-1.23-2,.29-3.29,1.46-4.38-2.07-4.92-5.62-2.44-8.06-1.41-2.09.88-3.89,2.17-6.32,1.95"/>
      <path class="cls-7" d="M738.76,6.77c-.27,4.55.54,9.13-.45,13.65"/>
      <path class="cls-7" d="M533.87,871.97c-3.86-.43-7.76-.67-11.56-1.38-1.21-.23-1.84.16-2.69.53"/>
      <path class="cls-7" d="M451.44,584.86l-4.96-4.14c-3.37,4.04-6.47,7.75-9.84,11.79l4.96,4.14"/>
      <path class="cls-8" d="M499.13,956.44c1.66,2.56.62,5.4.88,8.11.18,1.87-.53,3.92,2.66,4.4,1.36.2,2.53,2.28,1.72,3.66-2.25,3.83.85,7.41.15,11.15-.45,2.39,1.62,2.56,3.49,2.55,3.41-.01,6.83,0,10.24,0"/>
      <path class="cls-8" d="M627.85,870.69c-.38-3.97-2.39-7.13-5.35-9.81"/>
      <path class="cls-11" d="M620.73,847.23c-1.01-6.01.96-8.79,6.68-9.39"/>
      <path class="cls-7" d="M755.25,879.65c2.9,2.9,6.84,4.26,10.21,6.44,2.95,1.9,5.6.51,7.98-.6,1.68-.78,2.4-2.91.49-4.53-1.51-1.27-3.1-2.65-4.92-3.34-1.73-.66-2.6-1.8-3.52-3.09"/>
      <path class="cls-15" d="M519.62,741.42c5.24,3.77,9.02,9.03,14.25,12.8"/>
      <path class="cls-15" d="M621.62,860.88c-2.79,5.11-1.33,8.15,4.9,10.24"/>
      <path class="cls-8" d="M633.2,874.1c5.46,3.17,11.61,1.27,17.4,1.86,2.49.25,5.39-2.28,8.43-2.71"/>
      <path class="cls-8" d="M380.64,919.33c-4.73.94-9.51.17-14.25.43"/>
      <path class="cls-7" d="M809.14,806.27c4.1-.22,5.75,1.02,5.8,4.27.05,3.31-2.02,4.01-4.91,3.85-.89-.05-1.78,0-2.67,0"/>
      <path class="cls-15" d="M663.49,2.5v15.36"/>
      <path class="cls-11" d="M534.32,877.09c-4.05,3.46-8.39,6.47-13.81,7.68"/>
      <path class="cls-8" d="M428.75,175.71c-1.46-3.16-2.62-6.49-5.46-9.28-2.36,2.37-6.11,2.11-8.37,4.52,1.09,3.16,3.22,5.82,4.03,9.02"/>
      <path class="cls-7" d="M552.58,919.33c-7.72,1-15.44-.02-23.16,0"/>
      <path class="cls-11" d="M272.85,518.72c4.82,3.92,9.27,8.18,13.36,12.8"/>
      <path class="cls-8" d="M622.06,758.49c2.95,4.76,6.69,8.64,12.47,10.24"/>
      <path class="cls-12" d="M357.04,389.03c4.35,4.39,9.64,7.8,13.81,12.37"/>
      <path class="cls-8" d="M660.37,836.99c.84,4.93,4.49,8.39,7.13,12.37"/>
      <path class="cls-15" d="M458.15,685.96c5.22,3.78,8.92,9.13,14.25,12.8"/>
      <path class="cls-16" d="M137.44,303.7c2.08,4.12,4.16,8.25,6.24,12.37"/>
      <path class="cls-17" d="M603.36,1002.52c-2.29.92-4.81.11-7.57.61v11.34"/>
      <path class="cls-15" d="M732.08,211.98c-1.37-2.44-4.22-5.06-2.89-7.57,1.44-2.7,5.32-1.62,8.23-1.84,3.86-.29,7.7.91,11.61-.33,3.24-1.03,4.84,1.37,5.72,3.79,2.12,5.84,5.03,11.18,9.39,15.78,1.99,2.09,1.9,4.46.45,6.8-.76,1.23-2.65,1.97-2.98,3.03-2.4,7.88-9.16,11.47-15.72,15.32"/>
      <path class="cls-7" d="M613.6,823.34c-.2,1.73.28,3.05,1.74,4.31,2.96,2.55,5.68,5.36,8.51,8.06"/>
      <path class="cls-18" d="M608.26,1002.52c.29,3.16,3.11,4.65,4.87,6.91,1.38-1.49,2.71-2.92,4.03-4.35"/>
      <path class="cls-1" d="M652.8,1014.47c-.14-3.76,1.6-7.32,1.9-11.52h-6.8"/>
      <path class="cls-15" d="M643.89,247.81c2.03,3.67.94,7.76,1.03,11.53.07,3.04.37,6.27-.14,9.38"/>
      <path class="cls-7" d="M807.36,799.44c.74.14,1.48.35,2.23.41,1.8.17,3.82-.67,4.94,1.7,1.1,2.32-.52,3.4-1.83,4.71"/>
      <path class="cls-7" d="M371.29,401.83c3.69,4.18,8.62,7.08,12.47,11.09"/>
      <path class="cls-11" d="M653.69,728.2c-.15,0-.38.06-.43,0-1.41-1.96-2.58-4.96-5.32-4.5-2.94.49-3.27,3.74-4.06,6.21-.49,1.53-.85,3.15-2.21,4.27"/>
      <path class="cls-15" d="M438.99,510.62c-4.73-3.27-7.26-2.46-9.35,2.99"/>
      <path class="cls-11" d="M373.07,186.8c2.23,4.55,4.45,9.1,6.68,13.65"/>
      <path class="cls-8" d="M667.05,859.6c-2.15,3.81-5.45,7.04-6.24,11.52"/>
      <path class="cls-7" d="M221.18,366.84v26.45"/>
      <path class="cls-15" d="M557.2,679.2c-1.82,3.29-4.19,6.13-7.11,8.52"/>
      <path class="cls-15" d="M683.09,811.39c.63,2.43-1.14,3.73-2.67,5.12-1.8,1.63-3.75,3.18-3.12,5.97"/>
      <path class="cls-11" d="M581.98,796.88c1.77,2.69,4.39,4.62,6.74,6.77,1.41,1.29,1.93,2.59,1.73,4.32"/>
      <path class="cls-8" d="M158.38,502.94c-3.83,2.05-8.18,3.16-11.58,5.97"/>
      <path class="cls-8" d="M714.27,220.08c1.83,3.7,2.21,7.39,0,11.09"/>
      <path class="cls-15" d="M396.23,793.04c1.43-2.23,2.12-4.73-.94-5.85-2.57-.94-4.81.24-5.32,3.29-.1.6-.57,1.14-.86,1.71"/>
      <path class="cls-15" d="M864.37,814.8c-.59-.14-1.18-.38-1.78-.41-5.74-.29-6.71-1.44-5.8-6.84.25-1.51,1.1-2.37,2.68-2.56,2.71-.33,4.33.65,4.5,3.54-1.94,1.4-4.2.44-6.28.73"/>
      <path class="cls-7" d="M149.47,355.75v37.54"/>
      <path class="cls-8" d="M750.35,220.51c-5.91,2.02-11.5,4.68-16.94,7.65-2.13,1.16-4.44,2.02-6.67,3.01"/>
      <path class="cls-11" d="M671.51,823.34c.63,2.43-1.25,3.63-2.65,5.14-1.68,1.81-2.89,4-4.93,5.52"/>
      <path class="cls-15" d="M301.36,378.79c.08,1.37-1.5,1.98-1.7,3-.76,3.77-3.86,4.03-6.76,4.19-4.24.23-8.6-6.02-6.56-9.69,1.16-2.09,2.26-5.29,6.11-4.33"/>
      <path class="cls-15" d="M714.27,177.42c3,3.22,3.65,7.66,6.24,11.09"/>
      <path class="cls-11" d="M508.93,798.16c-.06-2.22-1.72-3.76-2.75-5.51-1.55-2.64-8.31-2.57-10.15-.03-1.98,2.73-3.74,5.38-1.42,8.98,2.95,4.58,9.5,4.95,12.52.38.6-.9.91-1.98,1.36-2.97"/>
      <path class="cls-15" d="M760.59,910.79c.4,1.59.89,3.13,2.22,4.26-.67,1.43-1.5,2.74-2.61,3.81-2.57-.27-5.1-.54-7.62-.81"/>
      <path class="cls-8" d="M229.65,373.67c-.46-3.49-1.98-6.5-5.81-7.15-3-.51-6.2-.51-8.49,2.42-2.15,2.76-2.46,5.76-.96,8.51,1.57,2.87,4.4,4.83,8.12,4.28,3.5-.52,5.98-2.39,6.67-5.93.09-.46-.08-.98.46-1.28"/>
      <path class="cls-10" d="M524.96,520c1.2.04,2.44-.23,3.58.8-2.27,3.85-6.47,6.64-8.93,10.72"/>
      <path class="cls-8" d="M738.32,133.05c1.22,3.48-.32,7.18.89,10.67"/>
      <path class="cls-11" d="M53.26,562.66c1.63,3.56,3.27,7.11,4.9,10.67"/>
      <path class="cls-8" d="M41.68,558.4c-3.39,2.04-7.07,3.52-10.69,5.12"/>
      <path class="cls-15" d="M69.74,416.33c.43,1.57,1.29,2.93,2.21,4.27,1.35,1.97,7.8,3.69,9.81,2.55,1.59-.9,4.23-7.69,3.02-8.87-1.68-1.63-1.33-4.96-5.25-4.92-4.01.04-7.43.22-8.85,4.42-.26.75-.46,1.48-.94,2.12"/>
      <path class="cls-11" d="M157.49,373.67c-1.22-7.07-5.07-7.62-9.8-7.23-4.13.34-6.42,4.65-6.25,8.09.16,3.22,2.88,6.35,6.25,7.04,3.98.81,7.4-.96,9.33-4.92.31-.64.32-1.41.47-2.12"/>
      <path class="cls-12" d="M818.05,131.77c-2.45,6.9-2.84,7.25-8.02,7.25-4.11,0-8.77-5.79-6.96-9.31.98-1.91,1.24-5.17,4.74-5.18,3.42,0,7.34-1.08,8.91,3.4.36,1.03,1.4,1.78,1.34,2.99"/>
      <path class="cls-10" d="M545.23,669.22l-6.56,7.86"/>
      <path class="cls-11" d="M221.18,355.75c.03,3.42-.14,6.84.45,10.24"/>
      <path class="cls-15" d="M553.98,669.85c-3.67,3.97-6.51,8.67-10.73,12.16"/>
      <path class="cls-15" d="M485.24,612.5c-2.9,4.61-6.37,8.76-10.39,12.45"/>
      <path class="cls-11" d="M398.02,789.63c2.69.04,5.16-.23,7.27,2.46,2.04,2.6-1.46,4.16-.4,6.6.42.97-.54,3.78-2.42,5.02"/>
      <path class="cls-10" d="M745.45,853.63c-1.66,1-3.51.82-5.34.87-1.66.04-3.46-.49-4.9.83"/>
      <path class="cls-15" d="M603.8,743.98c1.73-2.84,1.29-5.87-.08-8.49-2.52-4.83-5.71-4.6-9.72.39"/>
      <path class="cls-17" d="M642.55,1003.37c.64,3.68.4,7.39.45,11.09"/>
      <path class="cls-10" d="M385.1,800.3c3.58,2.2,6.8,4.88,10.33,7.68,1.16-2.81,3.06-4.91,3.47-7.68"/>
      <path class="cls-8" d="M40.34,537.49c1.63,3.27,3.27,6.54,4.9,9.81"/>
      <path class="cls-15" d="M300.91,377.93c-1.31-3.41-2.44-7.02-7.57-5.97"/>
      <path class="cls-15" d="M281.31,408.22c-1.74,3.86-5.64,6.03-8.02,9.39"/>
      <path class="cls-8" d="M723.62,754.22c-1.5-2.27,1.71-6.68-3.83-7.33-3.24,1.36-5.32,5.14-9.53,5.2"/>
      <path class="cls-11" d="M702.24,741c-1.28-2.26-.23-6.02-4.45-6.4-4.08,1.28-5.01,6.29-9.36,7.25"/>
      <path class="cls-15" d="M655.47,791.34c1.82,6.2,6.4,11.53,6.24,18.35"/>
      <path class="cls-15" d="M471.07,929.99q-4.87,1.38-6.31,9.36c2.64,1.39,3.4,5.46,7.64,5.15"/>
      <path class="cls-7" d="M239.89,373.67c-3.98.91-8.02.34-12.03.39-8.16.11-16.33.03-24.5.03"/>
      <path class="cls-2" d="M167.73,374.09h-36.52"/>
      <path class="cls-13" d="M618.05,1002.52v11.95"/>
      <path class="cls-8" d="M704.47,8.9v8.96"/>
      <path class="cls-7" d="M720.5,8.9v8.96"/>
      <path class="cls-12" d="M380.64,396.71c-3.27,1.56-6.53,3.13-9.8,4.69"/>
      <path class="cls-15" d="M733.86,215.39c1.56,2.95,2.08,6.38,4.45,8.96"/>
      <path class="cls-15" d="M381.76,909.94c-.07,2.99-.15,5.97-.22,8.96"/>
      <path class="cls-2" d="M737.87,21.27c-2.82,0-5.65.13-8.46-.05-1.56-.1-1.57,1.09-2.23,1.76"/>
      <path class="cls-11" d="M738.32,194.48c1.37,4.23.08,8.55.17,12.8.1,4.53.5,9.1.27,13.65"/>
      <path class="cls-8" d="M745.89,203.44c2.6,1.93,5.08,4.06,8.46,4.69"/>
      <path class="cls-8" d="M422.07,377.08c1.42,4.3,3.46,8.3,6.24,11.95"/>
      <path class="cls-11" d="M472.85,929.14c3.95,1.05,6.48,3.47,7.57,7.25"/>
      <path class="cls-8" d="M767.27,814.38c2.72.99,6.19,1.14,5.89,5.46-2.06,2.81-7.04,3.24-8.56,7.33"/>
      <path class="cls-7" d="M428.3,391.59c1.19,2.99,2.38,5.97,3.56,8.96"/>
      <path class="cls-15" d="M216.28,460.7c-.2,3.28,3.46,5.51,2.67,8.96"/>
      <path class="cls-12" d="M346.79,378.36c-.03,1.52.59,2.27,2.15,3.12,2.11,1.16,3.65,3.28,5.43,4.98"/>
      <path class="cls-11" d="M738.76,226.05c1.63,2.99,3.27,5.97,4.9,8.96"/>
      <path class="cls-8" d="M479.53,937.67c.21,3.9-2.09,5.55-5.79,5.97"/>
      <path class="cls-7" d="M723.62,774.57c-4.39.35-5.73,3.14-8.46,4.82"/>
      <path class="cls-11" d="M292.9,386.47c.55,2.99.88,5.97,0,8.96"/>
      <path class="cls-15" d="M500.91,773.42c0,12.09,0,24.18,0,36.26,0,1.43-.12,2.88.44,4.27"/>
      <path class="cls-15" d="M318.28,378.79c-16.63-.69-33.26-.6-49.89,0"/>
      <path class="cls-8" d="M263.94,453.45c-3.6-.37-5.92,2.32-8.91,3.41"/>
      <path class="cls-8" d="M655.92,22.98c-1.07-2.84-3.88-1.87-5.8-1.95-1.36-.06-2.97.01-4.45.24"/>
      <path class="cls-10" d="M472.4,916.34c0,7.96-.02,15.93.02,23.89,0,1.28.28,2.56.43,3.84"/>
      <path class="cls-16" d="M406.03,175.71c1.9,2.6,3.04,5.53,4.01,8.53"/>
      <path class="cls-7" d="M438.99,514.03c-5.31,3.12-13.08.27-15.14-5.55"/>
      <path class="cls-15" d="M293.34,363v14.93"/>
      <path class="cls-8" d="M650.57,832.72c.03-3.16-2.74-3.86-4.94-4.59-2-.67-4.34.47-5.2,2.09-2.16,4.07-5.93,4.61-9.91,5.07"/>
      <path class="cls-15" d="M756.58,791.76q5.81.75,7.18,4.41c-2.17,3.03-6.21,4.81-7.18,8.81"/>
      <path class="cls-18" d="M608.26,1005.93c-.95,2.81-.21,5.69-.45,8.53"/>
      <path class="cls-15" d="M728.52,205.15c-2.77,1.62-5.15,4.18-8.91,3.41"/>
      <path class="cls-15" d="M834.98,131.34h-45.43"/>
      <path class="cls-1" d="M581.98,1006.36c-.94,2.66-.22,5.41-.45,8.11"/>
      <path class="cls-15" d="M525.85,797.74c-16.63.79-33.26.64-49.89,0"/>
      <path class="cls-15" d="M293.34,354.04c-.02,2.71.18,5.43-.45,8.11"/>
      <path class="cls-8" d="M102.7,416.33c-9.65,0-19.3-.01-28.95.02-.94,0-1.81-.13-2.67-.45"/>
      <path class="cls-15" d="M419.84,169.31c1.58,2.44,2.17,5.36,4.01,7.68"/>
      <path class="cls-8" d="M497.79,936.82h-17.82"/>
      <path class="cls-15" d="M69.29,415.9c-5.47.86-10.99.24-16.48.43"/>
      <path class="cls-11" d="M644.78,271.28c.1,2.56-.32,5.15.45,7.68"/>
      <path class="cls-15" d="M551.69,556.27c2.5-2.03,3.86-5.08,6.35-6.83.48,0,.69-.06.77,0q7.18,6.47,0,13.64"/>
      <path class="cls-15" d="M765.49,853.63c-3.41,2.01-7.16-.14-10.71.77-1.57.4-3.36.01-4.88.93"/>
      <path class="cls-11" d="M500.91,815.23v7.25"/>
      <path class="cls-15" d="M601.57,815.66c2.25,1.87,5.46,3.11,4.9,6.83"/>
      <path class="cls-11" d="M326.75,361.3c1.63,1.56,3.35,3.06,4.88,4.71,1.67,1.8,3.59,2.03,5.81,1.26"/>
      <path class="cls-7" d="M561.49,553.28c-1.68,2.73-4.94,4.22-6.24,7.25"/>
      <path class="cls-15" d="M385.54,414.2c1.93,2.82,4.82,4.78,7.13,7.25"/>
      <path class="cls-11" d="M469.28,697.91c-2.1,1.99-4.2,3.98-5.63,6.42-1.35-.16-2.53-.31-3.72-.45"/>
      <path class="cls-10" d="M636.76,847.23c4.74,5.16,10.82,8.95,15.59,14.08"/>
      <path class="cls-11" d="M651.91,847.23c-5.21,4.42-9.04,10.09-14.25,14.51"/>
      <path class="cls-15" d="M742.77,732.89c-.78,1.51-.76,3.03.47,4.24,1.68,1.66,3.54,3.15,5.32,4.72"/>
      <path class="cls-15" d="M754.8,242.69c.79,3.04-1.88,4.63-3.12,6.83"/>
      <path class="cls-7" d="M391.78,610.02c.56,2.19.28,4.1-1.77,5.56-1.73,1.23-2.69,3.11-3.99,4.72,1.19,1.64,2.5,3.23,4.43,4.23"/>
      <path class="cls-8" d="M655.92,804.56c-3.94,1.94-8.02.17-12.03.32-3.38.13-6.9,1.57-10.24-.32"/>
      <path class="cls-11" d="M222.52,473.5c2.23,2.13,4.45,4.27,6.68,6.4"/>
      <path class="cls-15" d="M231.43,467.95c-2.19.81-4.04,2.61-6.68,2.13"/>
      <path class="cls-12" d="M293.34,378.79v6.4"/>
      <path class="cls-8" d="M867.94,257.62v6.4"/>
      <path class="cls-15" d="M579.3,301.14c-1.3,1.82-4.04,1.59-5.35,3.41"/>
      <path class="cls-8" d="M616.72,284.08c-2.36.23-4.13,1.78-6.24,2.56"/>
      <path class="cls-8" d="M690.66,248.24c-2.11.78-3.88,2.33-6.24,2.56"/>
      <path class="cls-8" d="M704.02,241.84c-2.08,1-4.16,1.99-6.24,2.99"/>
      <path class="cls-8" d="M431.42,372.81c-2.36.23-4.13,1.78-6.24,2.56"/>
      <path class="cls-11" d="M134.77,513.6c-1.3,1.82-4.04,1.59-5.35,3.41"/>
      <path class="cls-7" d="M172.19,496.54c-2.36.23-4.13,1.78-6.24,2.56"/>
      <path class="cls-11" d="M550.35,543.47c-1.93,1.99-3.86,3.98-5.79,5.97"/>
      <path class="cls-7" d="M49.25,555.41c.97,1.96,2.23,3.8,2.67,5.97"/>
      <path class="cls-15" d="M187.78,488.43c-2.08,1.14-4.16,2.28-6.24,3.41"/>
      <path class="cls-15" d="M228.75,464.97c-4.51,5.33-10.33,9.54-14.25,15.36"/>
      <path class="cls-11" d="M202.03,434.25c1.99,1.72,2.33,4.29,3.56,6.4"/>
      <path class="cls-15" d="M357.48,407.8c-2.59-.3-3.64,2.86-6.24,2.56"/>
      <path class="cls-15" d="M332.09,355.32c-2.53,1.55-4.45,3.72-6.21,5.99-1.08,1.4-2.02,2.81-4.04,2.97"/>
      <path class="cls-15" d="M505.36,336.98c-2.03.96-4,2.05-6.24,2.56"/>
      <path class="cls-7" d="M541.89,319.06c-1.3,1.82-4.04,1.59-5.35,3.41"/>
      <path class="cls-15" d="M46.13,549.01c1.04,1.85,2.08,3.7,3.12,5.55"/>
      <path class="cls-15" d="M658.14,802c-3.04,2.47-.63,5.73-1.34,8.53"/>
      <path class="cls-11" d="M222.96,495.68c-.27,2.3-3.53,1.74-4.01,3.84"/>
      <path class="cls-8" d="M561.04,776.83c-.45,2.75,1.61,3.9,3.56,5.12"/>
      <path class="cls-10" d="M631.42,801.15c2.94,2.8.7,6.28,1.34,9.39"/>
      <path class="cls-10" d="M500.46,969.24c-1.55,2.56-4.39,5.12,0,7.68"/>
      <path class="cls-15" d="M484.87,919.33c-1.62,1.22-3.73-.37-5.35.85"/>
      <path class="cls-8" d="M282.65,442.78c-1,1.94-3.55,1.57-4.9,2.99"/>
      <path class="cls-15" d="M292.45,536.64c1.17,1.72,3.71,2.14,4.45,4.27"/>
      <path class="cls-15" d="M467.95,354.9c-1.78.85-3.56,1.71-5.35,2.56"/>
      <path class="cls-11" d="M477.75,703.88c2.24.9,3.11,3.37,5.35,4.27"/>
      <path class="cls-15" d="M653.24,266.16c-1.78.85-3.56,1.71-5.35,2.56"/>
      <path class="cls-11" d="M223.86,445.77c-.75,1.77-3.45,1.44-4.01,3.41"/>
      <path class="cls-11" d="M270.18,449.61c-1.78.71-3.56,1.42-5.35,2.13"/>
      <path class="cls-8" d="M871.95,253.78c-2.99,4.17-3.88,4.26-8.02.85"/>
      <path class="cls-12" d="M370.4,401.4c-1.78.85-3.56,1.71-5.35,2.56"/>
      <path class="cls-11" d="M55.04,552c-3.71,1.85-7.42,3.7-11.14,5.55"/>
      <path class="cls-11" d="M745.45,239.71c.95,1.76,1.72,3.61,3.12,5.12"/>
      <path class="cls-10" d="M98.25,531.09c-1.44,1.55-3.58,1.97-5.35,2.99"/>
      <path class="cls-7" d="M194.9,485.02c-1.72.97-3.37,2.08-5.35,2.56"/>
      <path class="cls-11" d="M213.61,465.82c2.38,1.99,4.75,3.98,7.13,5.97"/>
      <path class="cls-8" d="M508.93,732.04c1.86,1.06,3.34,2.49,4.45,4.27"/>
      <path class="cls-11" d="M291.56,397.99c-1.61,1.19-1.98,2.91-2.23,4.69"/>
      <path class="cls-15" d="M393.56,390.31c-1.43,1.14-3.17,1.63-4.9,2.13"/>
      <path class="cls-7" d="M447.46,675.72c1.11,1.78,2.6,3.2,4.45,4.27"/>
      <path class="cls-7" d="M261.27,508.48c1.86,1.06,3.34,2.49,4.45,4.27"/>
      <path class="cls-12" d="M757.92,216.24c-1.63.85-3.27,1.71-4.9,2.56"/>
      <path class="cls-8" d="M207.82,479.9c-1.88-.08-3.31,1.02-4.9,1.71"/>
      <path class="cls-8" d="M540.11,760.19c1.86,1.06,3.34,2.49,4.45,4.27"/>
      <path class="cls-15" d="M761.48,220.93c-.51,3.3-1.23,6.61.45,9.81"/>
      <path class="cls-17" d="M601.57,1009.35c-1.58-.72-3.26-.33-4.9-.43"/>
      <path class="cls-8" d="M320.07,425.72c-1.63.71-3.27,1.42-4.9,2.13"/>
      <path class="cls-8" d="M416.28,648.42c1.86,1.06,3.34,2.49,4.45,4.27"/>
      <path class="cls-11" d="M354.81,592.96c1.95.58,2.5,2.83,4.45,3.41"/>
      <path class="cls-15" d="M323.63,564.8c1.95.58,2.5,2.83,4.45,3.41"/>
      <path class="cls-15" d="M465.27,920.18c-1.31-1.12-3.14.27-4.45-.85"/>
      <path class="cls-8" d="M749.01,246.53c.94,1.35.2,2.85.45,4.27"/>
      <path class="cls-15" d="M249.69,497.82c1.48,1.42,2.97,2.84,4.45,4.27"/>
      <path class="cls-8" d="M315.17,373.24c-1.83.52-2.39,2.78-4.45,2.99"/>
      <path class="cls-10" d="M690.21,806.7c-2.28.56-1.73,2.33-1.78,3.84"/>
      <path class="cls-15" d="M571.73,788.35c1.38,1.09,2.29,2.69,4.01,3.41"/>
      <path class="cls-7" d="M871.06,267.01q-3.12-3.71-6.24,0"/>
      <path class="cls-15" d="M723.17,194.06c.59,1.28,1.19,2.56,1.78,3.84"/>
      <path class="cls-7" d="M243.45,492.7c1.19,1.14,2.38,2.28,3.56,3.41"/>
      <path class="cls-8" d="M711.15,238.43c-.89,1.14-2.49.91-3.56,1.71"/>
      <path class="cls-15" d="M245.24,447.47c-1.04,1-2.08,1.99-3.12,2.99"/>
      <path class="cls-10" d="M484.42,619.04l-4.1-3.42"/>
      <path class="cls-11" d="M153.48,310.53c-.78,2.37.91,2.7,2.67,2.99"/>
      <path class="cls-10" d="M526.3,810.96c1.04-.14,1.65,1.97,2.61.8,1.56-1.9-.97-1.76-1.72-2.51"/>
      <path class="cls-8" d="M542.33,531.09c-3.66,1.61-6.16,4.35-8.01,7.69-.69,1.24-1.91,2.62,0,3.81,1.25.77,2.69.73,3.98.01,3.84-2.14,6.01-5.54,7.63-9.49-.71-1.1-1.41-2.27-3.16-2.02"/>
      <path class="cls-7" d="M528.2,655.56c-5.07.34-7.53,2.71-7.1,6.36.28,2.36,2.32,2.77,3.47,2.7,2.59-.17,3.6-2.78,5.02-4.56,1.22-1.51.56-3.06-1.05-4.21"/>
      <path class="cls-11" d="M490.58,624.18c-4.87.42-7.25,2.35-7.11,5.74.09,2.25,1.74,3.47,3.48,3.35,2.59-.19,3.59-2.81,5.02-4.59,1.22-1.51.56-3.06-1.05-4.21"/>
      <path class="cls-7" d="M568.61,941.08c-2.09,1.13-1.83,3.76-3.71,4.78,1.58,3.52,3.69,6.16,7.68,4.9,1.9-.6,3.18-2.86,3.09-4.98-.12-2.86-2.91-4.66-6.61-4.7"/>
      <path class="cls-10" d="M718.72,941.08c-2.21,1.12-4.55,1.73-4.61,5.12-.06,3.24,2.3,4.46,4.22,4.9,2.12.49,4.96-.83,5.6-3.23.55-2.06.89-4.88-2.13-5.83-.9-.28-1.48-1.44-2.63-.97"/>
      <path class="cls-11" d="M568.17,934.26c-8.38,2.15-12.17,9.7-8.36,17.44,1.94,3.95,5.78,6.05,10.59,6.03,5.23-.02,8.99-2.51,11.05-6.87,1.9-4.01,1.37-8.23-1.29-11.88-2.76-3.78-6.79-5.17-11.54-4.72"/>
      <path class="cls-11" d="M391.78,176.99c-3.91,2.7-.94,5.5.07,8.08,1.22,3.11,1.43,3.03,5.44,5.68,1.66-.58,3.05-1.85,2.42-3.49-1.53-4-1.98-8.88-7.48-10.27"/>
      <path class="cls-8" d="M563.09,684.67c-3.81-.77-5.17,1.85-6.66,4.45-.93,1.62-.3,3.2.85,3.86,1.33.77,3.38,1.74,4.51-.51,1.17-2.34,5.79-3.82,1.64-7.52"/>
    </g>
  </g>
</svg>