<?xml version="1.0" encoding="UTF-8"?>
<svg id="Layer_2" data-name="Layer 2" xmlns="http://www.w3.org/2000/svg" viewBox="0 0 844.72 506.5">
  <defs>
    <style>
      .cls-1, .cls-2, .cls-3, .cls-4, .cls-5, .cls-6, .cls-7, .cls-8 {
        stroke-miterlimit: 10;
      }

      .cls-1, .cls-2, .cls-3, .cls-8, .cls-9 {
        fill: #f16472;
      }

      .cls-1, .cls-6 {
        stroke: #fbbb33;
      }

      .cls-2, .cls-7 {
        stroke: #e5d6e9;
      }

      .cls-3, .cls-4 {
        stroke: #f16472;
      }

      .cls-4, .cls-5, .cls-6, .cls-10, .cls-7 {
        fill: #fbbb33;
      }

      .cls-5, .cls-8 {
        stroke: #e4e1b5;
      }

      .cls-10, .cls-9 {
        stroke-width: 0px;
      }
    </style>
  </defs>
  <g id="Funkies">
    <path class="cls-9" d="M203.22,506.5c-10.77-.97-21.55-1.76-32.29-2.96-13.1-1.47-26.06-3.7-38.22-9.16-1.21-.55-2.47-1.03-3.62-1.69-9.35-5.32-11.94-11.42-9.49-21.96.82-3.53,3.14-5.77,5.99-7.66,2.66-1.77,5.46-3.45,8.56-4,5.56-.98,7.4-4.15,7.7-9.55.76-13.46,1.96-26.89,3.13-40.32.33-3.79-.86-5.63-4.86-5.57-2.05.03-5.03.29-4.88-2.81.18-3.7-2.08-7.89,2.12-11.03,5.31-3.97,8.23-9.47,8.96-16.09.04-.33-.01-.67,0-1,.79-12.26.21-24.19-6.93-34.96-3.67-5.54-2.67-11.13.41-16.96,6.15-11.63,11.97-23.45,17.45-35.41,3.06-6.69,7.78-11.45,13.75-15.37,11.59-7.62,23.88-13.93,36.57-19.48,3.8-1.66,7.53-2.99,6.94-8.91.46,5.59,2.89,4.69,6.23,3.29,18.41-7.69,37.77-10.53,57.59-10.51,3.51,0,5.67-1.13,7.93-3.85,23.04-27.86,46.23-55.6,67.98-84.5,4.68-6.22,4.71-6.14-1.85-10.22-15.14-9.41-30.22-18.92-45.4-28.27-2.48-1.53-4.01-3.36-4.33-6.25-.13-1.15-.5-2.27-.75-3.41-3.06-13.71-3.21-13.84,6.02-24.33,8.2-9.32,17.46-17.49,29.03-22.41,4.54-1.93,5.73-3.75,1.81-7.35-.33-.3-.38-.91-.56-1.37,5.5,5.79,11.23,4.18,17.21.75,2.73-1.56,5.93-2.31,8.66-3.88,7.33-4.23,14.7-6.06,22.62-1.62,2.06,1.16,4.2.45,6.29-.25,5.06-1.7,10.17-3.14,15.46-4,2.89-.47,5.24-.18,6.87,2.56,2.05,3.46,4.28,2.61,7.37.92,15.56-8.5,31.85-13.56,49.05-5.39,13.38,6.36,23.92,16.23,30.92,29.53.54,1.03,1.05,2.08,1.57,3.13q3.65,7.38,11.39,4.54c.62-.23,1.28-.39,1.98.4-.44.41-.83.97-1.35,1.23q-7.24,3.66-5.09,11.77c4.75,17.89-.39,31.89-15.54,42.01-1.9,1.27-3.27,2.81-4.07,4.88-.9,2.33-1.38,4.89-2.61,7.01-5.14,8.82-.88,15.53,4.59,22.06.32.38.61,1,1,1.08,9.61,1.96,12.39,11.35,18.5,17.09,2.89,2.71,5.25,5.8,8.97,7.7,4.8,2.46,8.08,6.87,11.64,10.84,4.4,4.9,9.23,8.46,16.23,9.67,13.71,2.37,22.3,11.15,26.5,24.33.75,2.35,1.09,4.92,3.45,6.44,17.35,11.22,21.03,28.08,19.46,47.12-.09,1.15-.2,2.35.04,3.45.67,3.07,2.14,4.9,5.57,2.98.57-.32,1.25-.46,1.87-.69,4.95-1.76,6.11-3.03,7.26-8.35.51-2.35,2.24-3.26,4.22-3.72,10.56-2.45,21.1-2.57,31.59.43,3.62,1.03,4.87,3.35,4.64,7.12-.26,4.26-1.37,8.91,4.19,11.44,2.33,1.06,1.65,4.18,1.61,6.45-.29,16.82-.29,33.66-1.19,50.45-.42,7.87.75,14.35,7.4,19.12-.15.21-.3.42-.46.63-.59-.3-1.18-.61-1.78-.88-1.85-.86-2.74-4.37-4.96-3.11-1.75,1-.49,4.03-.88,6.13-.09.48-.12,1.01-.02,1.49,1.8,9.15-1.74,15.46-10.13,19.27-.68.31-1.61,1.09-1.62,1.67-.08,4.27-3.44,4.73-6.27,5.01-3.49.34-5.59,1.59-6,5.69,8.81-.86,17.32,1.42,25.97,2.47,5.77.7,10.83,3.98,16.72,4.42,2.69.2,1.99,2.97,2.23,4.88.38,3-1.21,6.45,1.97,8.82l-.06-.07c.07.32.05.87.22.94,6.47,2.71,4.9,8.39,4.96,13.44.07,5.83-.07,11.67.16,17.5.12,3.12-.84,5.15-3.95,5.94-.32.08-.64.21-.93.37-11.9,6.57-24.15,7.97-37.44,4.21-9.24-2.61-18.96-3.62-28.49-5.16-3.13-.51-4.75-1.67-4.64-5.12.27-8.49.3-16.99.42-25.49.03-2.06.12-4.14,2.5-4.93,3.92-1.29,4.79-4.22,4.4-7.87-.6-5.64.16-10.36,7.09-11.39,1.5-.22,3.15-1.27,2.53-3.05-.65-1.88-.53-4.5-3.16-5.2-1.77-.47-3.59-.73-5.38-1.14-1.49-.34-2.74-.84-3.39-2.53-2.24-5.79-7.06-8.7-13.35-8.28-5.22.35-6.56-.81-6.57-6.09-.01-7.83-.01-15.66.21-23.49.09-3.17-1.1-5.28-3.53-7.2-8.1-6.42-16.01-13.07-24.12-19.47-2.72-2.15-4.25-4.14-1.63-7.33,1.64-2,1.28-3.28-1.23-4.47-6-2.84-9.74-8.49-14.81-12.53-2.58-2.06-4.87-2.56-8.19-1.66-13.04,3.52-24.82,2.13-33.22-10.02-.89-1.29-1.75-1.87-3.29-1.04-1.38.74-2.39,1.31-2.16,3.35.43,3.69.22,3.72-.94,5.71-.8-.41-.45-1.09-.39-1.7.43-3.87-.7-4.88-4.45-2.95-2.83,1.46-5.09,4.3-8.98,4.28,1.52-2.9,4.46-3.14,6.55-4.62,1.3-.92,3.28-1.46,3.43-3.32.1-1.29-1.38-1.79-2.45-2.16-1.82-.63-3.64-.9-4.61,1.43-.12.3-.29.65-.55.81-1.09.7-2.39,1.88-3.37.2-.68-1.17-.39-2.65,1.09-3.4,3.47-1.75,7-2.5,10.3.23,1.94,1.6,3.61,2.04,5.7.29,2.36-1.98.55-3.8-.32-5.28-5.5-9.36-12.54-17.64-18.84-26.44-9.22-12.89-19.46-24.97-29.35-37.33-2.04-2.55-2.89-2.49-4.2.55-9.25,21.41-18.64,42.76-27.92,64.16-.61,1.41-2.27,3.16-.71,4.51,1.19,1.04,2.72-.57,4.06-1.12,3.47-1.41,6.94-2.8,10.41-4.21.2.43.4.85.59,1.28-3.75,1.68-7.41,3.6-11.27,4.96-4.28,1.51-6.64,4.04-8.05,8.55-3.9,12.55-7.72,25.23-16.19,35.73-9.5,11.77-22.46,18.63-35.89,24.67-5.91,2.66-12.66,3.8-18.05,7.19-5.55,3.48-4.78,11.39-8.66,16.61-4.03,5.43-6.35,12.25-13.51,14.67-3.78,1.28-7.64,2.34-11.51,3.35-9.33,2.46-18.39,5.99-28.08,6.95-2.67.26-3.8,1.47-3.72,4.17.37,13.32.68,26.64.96,39.96.04,1.92.82,3.11,2.61,3.78,1.87.7,3.71,1.49,5.54,2.29,12.11,5.28,14.95,10.54,12.98,23.54-.44,2.92-2.6,4.14-4.68,5.45-13.64,8.57-28.96,11.47-44.64,13.12-1.98.21-4.02-.08-5.9.82h-48ZM323.82,219.47c-2.69,0-4.86-.02-7.02,0-1.35.02-2.66.04-3.04,1.83-1.06,4.99,2.16,9.52,7.36,9.96,8.04.68,15.77,2.44,22.98,6.14,16.46,8.44,27.03,21.75,32.29,39.35.99,3.3,2.16,4.65,5.92,3.57,3.79-1.1,4.45-3.08,3.07-6.23-2.49-5.7-1.15-10.7,1.51-16.12,10.99-22.41,21.52-45.04,32.41-67.5,1.57-3.24,1.32-4.92-1.9-6.71-4.92-2.73-10.01-5.36-13.28-10.29-.65-.98-1.59-1.68-2.85-1.83-2.91-.36-4.59-2.4-6.3-4.51-3.53-4.39-6.8-8.94-11.83-12.01-3.18-1.94-4.64-1.7-6.66,1.43-12.3,19.01-25.7,37.27-38.55,55.9-3.74,5.41-7.55,9.29-14.11,7.03ZM211.47,428.17c-2.1-3.16.49-7.5-5.06-7.63-7.29-.18-14.62-.89-21.83-1.99-11.97-1.83-24.21-3.04-34.65-10.12-2.55-1.73-3.22-.49-3.4,1.79-.4,5.14-.85,10.28-1.08,15.42-.45,10.11.67,11.81,10.2,15.53,14.76,5.76,30.26,7.6,45.94,8.41,8.38.43,8.19.39,8.66-7.77.2-3.5-.9-7.12.4-10.81,1.41.76,1.62,1.84,1.34,2.73-1.14,3.6.17,7.25-.42,10.89-.58,3.52.79,5.78,4.92,5.55,6.48-.36,12.97-.42,19.45-.82,11.97-.74,23.87-2.06,35.35-5.82,11.17-3.66,12.11-5.08,11.26-16.72-.16-2.16-.09-4.33-.21-6.49-.32-6.07-.4-6.11-6.49-5.19-17.91,2.71-35.76,5.97-54,5.76-4.72-.05-11.1-2.25-10.37,7.28ZM327.17,67.29c-1.13.39-2.48.63-3.58,1.29-3.98,2.4-8.12,4.63-11.76,7.49-11.17,8.78-11.07,8.88-7.86,22.75.64,2.78,1.25,5.33,4.04,7.04,16.99,10.47,33.92,21.04,50.8,31.68,2.44,1.54,3.67,1.18,5.04-1.29,7.09-12.88,17.86-21.67,31.07-27.74,6.01-2.76,6-2.89.78-6.5-20.09-13.86-41.83-24.56-64.5-33.47-1.23-.48-2.52-.79-4.03-1.26ZM221.99,494.33c6.5,0,13.01.32,19.48-.06,15.46-.91,30.9-2.22,45.84-6.78,5.11-1.56,10.13-3.4,14.28-6.94,3.75-3.21,4-5.92.52-9.26-3.65-3.5-7.94-6.29-13.08-6.69-1.96-.15-3.78-2.29-6.06-.31-8.32,7.24-18.62,9.15-29.12,10.58-16.09,2.19-32.24.78-48.35.92-7.31.06-14.67-.32-21.94-1.12-14.3-1.58-28.36-4.18-40.22-13.28-.95-.73-1.71-1-2.56-.08-4.25,4.66-9.92,5.78-15.8,6.42-2.89.32-3.43,2.38-2.97,4.75.54,2.81,2.42,4.71,4.9,5.98,6.82,3.5,13.73,6.83,21.22,8.7,24.26,6.07,49.05,6.95,73.87,7.17ZM173.29,346.95c10.71,4.47,19.72,11.79,29.78,17.27,9.98,5.44,19.64,11.61,30.74,15.09.68-8.37,1.7-9.55,9.77-10.36,7.55-.76,13.99-3.72,19.97-8.33,4.23-3.26,9.21-5.8,14.74-4.18,4.1,1.2,5.57-.1,6.86-3.8,6.05-17.43,1.99-33.57-6.36-48.94-6.46-11.91-16.7-19.64-29.62-23.85-3.54-1.15-5.09-.26-5.76,3.45-1.15,6.39-2.63,12.72-4.16,19.03-.58,2.41-.56,4,2.17,5.08,11.15,4.41,15.95,13.35,17.51,24.7,2.29,16.66-9.31,27.67-25.81,25.22-6.66-.99-13.49-5.06-20.47-.84-.11.07-.84-.53-.98-.93-.77-2.22-2.81-2.18-4.53-2.5-11.27-2.09-22.56-4.09-33.84-6.12ZM283.29,440.19c-5.16,2.44-9.04,4.66-13.44,5.78-21.79,5.52-43.93,7.18-66.28,5.71-20.23-1.33-40.51-2.85-58.92-14-.39,3.94-.93,7.68-1.11,11.44-.53,10.92.87,12.95,11.14,16.87.47.18.95.3,1.42.48,15.51,5.84,31.79,6.96,48.1,7.84,2.47.13,5.1.26,6.01-5.01,1.09,5.02,3.51,5.08,6.07,5.07,11.66-.04,23.34.43,34.93-1.12,9.57-1.28,19.21-2.57,27.53-8.12,2.37-1.58,4.61-3.32,4.57-6.67-.07-5.81-.02-11.63-.02-18.27ZM261.63,254.65c1.35.68,2,1.14,2.72,1.35,22.05,6.55,35.97,21.89,45.27,42.11,4.65,10.1,6.61,20.92,7.6,31.9.31,3.47,1.47,3.82,4.36,2.78,3.76-1.35,7.59-2.52,11.45-3.55,2.92-.78,4.41-2.48,5.12-5.4,2.32-9.54,2.3-19.1.97-28.76-2.79-20.23-11.83-36.26-30.58-45.74-7.18-3.63-14.96-7.32-22.88-5.62-8.31,1.78-15.8,6.63-24.03,10.94ZM212.04,337.66c.48.05.95.11,1.43.16,0,3.11.22,6.24-.06,9.33-.31,3.48.79,5.12,4.46,5.57,5.93.73,11.8,1.93,17.69,3.02,7.17,1.32,13.38-1.55,17.72-7.39,7.66-10.28,4.09-33.26-13.17-39.57-6.01-2.2-12.3-2.8-18.52-3.85-3.85-.65-7.8-1.58-8.13,5.1.35-7.47-4.68-6.9-8.93-7.39-.99-.11-2.03-.07-2.96-.37-2.66-.86-3.88-.02-4.53,2.76-3.01,12.95-6.19,25.87-9.34,38.79-.66,2.68.17,4.04,3.01,4.45,5.76.83,11.51,1.75,17.23,2.83,3.21.61,4.23-.7,4.14-3.67-.1-3.26-.02-6.52-.02-9.78ZM526.35,259.63c-.42-.85-.55-1.36-.86-1.72-13.47-15.62-26.95-31.22-40.43-46.84-3.78-4.38-8.34-6.69-14.29-6.99-4.66-.24-9.3-.21-13.95-.29-2.99-.05-6.25-.42-7.83,2.98-1.49,3.2.51,5.74,2.07,8.28.52.84,1.21,1.59,1.84,2.36,14.23,17.37,28.5,34.71,41.51,53.03,3.08,4.34,6.42,8.49,10.08,13.32,1.47-18.63,4-21.36,21.85-24.13ZM484.7,147.13c-2.11-5.34-4.49-11.37-6.88-17.41-3.73-9.44-3.76-9.49-13.12-4.98-18.51,8.91-33.16,22.62-46.66,37.74-2.89,3.24-5.14,6.92-6.88,10.94-1.07,2.46-.71,3.99,1.62,5.37,6.59,3.91,13.12,7.9,19.62,11.96,2.2,1.37,3.22.86,4.69-1.3,11.53-16.97,25.86-30.74,45.26-38.5,1.4-.56,2.95-1.02,2.35-3.83ZM148.42,354.82c0,5.41.43,9.75-.1,13.96-.85,6.67,1.31,11.15,7.67,13.64,4.54,1.78,6.86,5.07,6,10.15-.83,4.96,1.48,6.87,6.26,8.04,20.68,5.08,41.8,5.41,62.85,6.68,4.69.28,6.41-1.34,5.48-6.04-.42-2.09-.1-4.32-.17-6.48-.04-1.36-.22-2.75-1.69-3.34-7.15-2.86-14.31-5.67-22.37-8.86v20.6c-.44,0-.88-.01-1.32-.02,0-5.9-.13-11.81.06-17.7.08-2.51-.58-4.03-2.95-5.06-13.28-5.75-26.21-12.37-40.22-16.31-6.61-1.86-12.99-4.13-19.5-9.27ZM294.25,336.45c6.36-.66,11.64-1.38,16.95-1.69,3.89-.23,4.4-1.99,4.09-5.52-1.07-12.44-3.88-24.46-9.79-35.38-9.6-17.73-23.1-31.22-43.37-36.57-3.17-.84-4.97-.09-6.52,2.68-2.51,4.51-5.14,8.96-8.01,13.25-2,2.99-1.32,4.19,2.02,5.02,8.09,2.02,15.02,6.22,21.02,11.97,11.22,10.74,16.62,24.24,18.75,39.31.49,3.5-.03,7.98,4.85,6.93ZM466.12,107.46c-5.84-8.2-8.22-8.82-17.01-4.45-1.19.59-2.49,1.07-3.53,1.87-5.48,4.23-11.88,4.77-18.44,4.87-13.03.19-24.47,4.96-34.25,13.25-9.21,7.81-14.92,23.06-3.33,34.27,1.54,1.49,2.82,3.3,4.05,5.07,2.23,3.22,4.02,4.22,5.79-.42.81-2.14,2.1-4.2,3.54-6,17-21.26,36.95-38.69,63.17-48.45ZM482.23,90.9c-.18-10.96-3.48-20.96-9.58-30.01-10.15-15.06-28.24-22.11-44.82-17.39-3.88,1.1-4.54,2.13-1.7,5.4,10.6,12.2,21.43,24.24,31.27,37.03,5.88,7.65,7.07,18.17,13.69,25.66.18.21.11.64.15.98.17,1.39.58,2.79,2.09,3.07,1.67.32,2.16-1.33,2.8-2.39,4.12-6.86,6.25-14.29,6.09-22.35ZM291.14,241.21c2.4.62,4.19,1.01,5.92,1.55,17.08,5.34,31.1,14.57,38.24,31.71,11.67,28.03,8.28,54.64-8.39,79.75-2.79,4.2-5.76,8.27-9.42,13.51,9.38-2.99,17.38-5.66,25.47-8.05,3.15-.93,5.08-2.67,6.49-5.6,12.62-26.31,11.08-51.93-2.82-77.39-10.3-18.87-25.77-30.94-45.88-37.6-3.35-1.11-6.47-1.1-9.6,2.12ZM161.87,287.55c-1.72,1.22-1.72,2.86-2.18,4.23-4.68,13.77-7.13,28.05-9.72,42.31-.69,3.78.57,5.06,3.79,6.02,9.12,2.69,18.42,4.55,27.72,6.44,2.56.52,3.68-.18,4.26-2.62,3.07-12.96,6.17-25.92,9.37-38.85.77-3.09-.34-3.94-3.29-4.54-10.9-2.23-22.06-4.01-29.94-12.99ZM391.22,324.87c.77-1.45,1.63-2.85,2.31-4.34,16.24-35.78,33.07-71.3,47.72-107.78,2.16-5.38-.04-10.23-2.94-14.74-1.82-2.84-3.32-3.3-4.94.43-9.98,22.91-21.12,45.27-32.36,67.57-1.47,2.92-1.7,5.5-.48,8.54,1.29,3.22.94,6.26-2.69,8.01-2.35,1.14-5.89.6-7.03,3.17-1.14,2.57.73,5.48,1.01,8.28.15,1.49.32,2.98.44,4.47.7,8.83.02,17.57-1.05,26.39ZM403.75,84.28c.21-3.12.12-3.04-3.19-5.48-14.97-11.06-32-18.2-48.71-26.02-5.25-2.46-9.08-2.85-12.78,2.22-1.94,2.65-4.52,4.88-7.02,7.07-3.15,2.77-2.06,3.97,1.27,5.28,6.5,2.55,12.94,5.26,19.27,8.2,15.71,7.28,30.99,15.36,45.05,25.55,3.61,2.62,4.79,1.54,5.03-2.41.29-4.81.71-9.6,1.08-14.4ZM304.34,481.42c-11.07,7.43-23.25,10.53-35.83,12.26-30.85,4.23-61.72,3.39-92.62.39-19.07-1.86-37.35-6.03-54.09-16.35-1.15,4.27-.29,7.44,3.39,10,6.52,4.54,13.58,7.89,21.3,9.45,38.4,7.75,77.16,10.2,116.13,5.89,13.18-1.46,26.26-4.4,37.77-11.91,3.51-2.29,5.33-4.84,3.96-9.72ZM214.44,262.59c-.45-.82-.85-1.21-.87-1.63-.39-5.98-.39-6.03-6.11-4.37-2.07.6-4.15,1.29-6.09,2.22-12.64,6.12-24.53,13.46-35.45,22.32-1.88,1.52-4.06,2.88-1.81,5.58,1.83,2.19,3.55,4.21,7.1,2.28,10.32-5.6,21.35-9.62,32.9-11.42,6.77-1.06,10.62-3.1,9.49-10.52-.01-.09.52-.26.83-.4,1.33.98,1,2.44.74,3.62-.98,4.43.9,5.56,5.05,5.22,6.15-.51,12.32-.28,18.45.65,2.48.38,4.87.58,6.46-2.29,2.75-4.95,5.8-9.73,8.76-14.56,1.28-2.1,1.08-3.44-1.65-3.7-11.1-1.03-22.17-2.36-33.36-1.08-2.77.32-3.87,1.45-3.55,4.17.13,1.13.28,2.33-.87,3.88ZM662.05,455.04s-.01,0-.02,0c0-3.83-.01-7.66,0-11.48.01-2.07-.64-3.45-2.96-3.84-13.94-2.34-27.87-4.75-41.8-7.15-2.23-.38-3.93-.3-3.91,2.76.06,7.82-.02,15.64-.14,23.46-.04,2.47,1.09,3.58,3.42,3.99,13.92,2.43,27.84,4.9,41.75,7.39,2.6.46,3.72-.51,3.67-3.15-.08-3.99-.02-7.99-.02-11.98ZM289.3,234.12c6.88-2.56,13.29-5.96,20.3-7.85,1.29-.35,1.1-1.62.71-2.52-2.39-5.59.42-8.58,4.71-11.91,3.57-2.78,6.94-1.38,10.4-1.6,2.64-.17,5.19.27,7.07-2.48,12.84-18.83,25.79-37.58,38.68-56.37.62-.9,1.91-2.15.69-3.04-2.8-2.05-5.67-4.29-8.88-5.38-2.6-.88-3.63,2.4-4.97,4.13-18.73,24.21-37.41,48.46-57.31,71.73-4.07,4.76-8.48,9.29-11.4,15.29ZM213.48,285.58c-.83-8.43-.95-8.6-9.37-6.27-7.04,1.94-14.26,3.32-20.94,6.43-4,1.86-8.4,2.95-12.09,5.86.51.56.76,1.03,1.15,1.22,11.96,5.63,24.91,6.81,37.76,8.47,2.57.33,2.88-1.47,3.16-3.45.35-2.41-.97-4.94.56-7.39,1.55,2.1.55,4.3.53,6.36-.02,3.48.9,5.52,4.97,5.8,4.62.31,9.22,1.27,13.76,2.25,2.57.55,3.66-.22,4.21-2.68,1.45-6.49,3.01-12.95,4.58-19.41.77-3.15-.31-4.81-3.61-4.93-4.65-.17-9.31-.56-13.95-.5-8.3.12-8.29.23-9.91,7.77-.02.1-.24.16-.8.5ZM501.91,197.92l.94-.75c-5.49-7.23-11-14.44-16.48-21.69-4.9-6.49-4.18-9.33,3.21-12.95,1.11-.55,2.75-.59,2.64-2.46-.23-3.93-6.65-8.34-10.33-6.86-16.92,6.77-29.24,19.23-40.45,33.01-1.35,1.65-2.24,3.68-3.33,5.54-1.13,1.92.04,3.3,1.36,4.27,2.01,1.48,2.01-.88,2.57-1.75,1.76-2.73,4.6-2.5,7.16-2.59,9.35-.34,18.5-1.74,27.51-4.25,5.95-1.66,11.45-.94,16.28,3.42,2.81,2.54,5.94,4.72,8.93,7.06ZM514.78,290.19c-.15,2.75-5.29,2.23-2.95,6.06,3.32,5.44,11.02,9.66,16.83,8.85,7.46-1.04,12.92-6.23,14.48-13.76,2.24-10.83-3.46-22.64-13.32-27.62-9.41-4.75-19.83,0-22.32,10.18-.79,3.24-1.16,6.52-1.04,9.88.26,7.24,1.59,8.36,8.33,6.42ZM252.61,400.56c5.76-.69,11.53-1.35,17.3-2.09,4.45-.57,8.08-4.28,7.56-8.7-.8-6.91-1.89-13.85-3.59-20.58-1.54-6.07-7.55-7.88-12.65-4.47-5.05,3.39-10.57,5.65-16.68,5.89-3.45.13-4.21,1.4-3.5,4.65,1.35,6.16,2.31,12.4,3.51,18.59.84,4.37,3.66,6.47,8.05,6.7ZM415.55,39.48l-1.11.59c2.93,9.11,2.19,18.42,2,27.71-.04,2.03.09,3.86,1.58,5.56,6.26,7.14,12.46,14.33,18.55,21.61,1.8,2.15,3.45,2.68,5.97,1.24,3.61-2.07,7.32-4.03,11.44-4.88,4.16-.86,3.72-2.48,1.34-5.22-7.12-8.16-14.02-16.5-21.04-24.74-6.22-7.31-12.49-14.58-18.74-21.87ZM592.96,278.73c.19-10.79-.96-20.38-6.89-29.09-5.78-8.48-15.69-12.32-21.93-20.21-.35-.44-1.18-.59-1.82-.7-5.44-.99-10.54-2.9-15.58-5.18-3.57-1.62-7.67-2.08-10.97.44-3.52,2.7-3.74,6.85-2.98,10.98.24,1.31.62,2.59,1.03,3.86,2.3,7.12,7.15,9.03,13.76,5.05,6.94-4.18,13.91-4.08,21-.84,11.62,5.32,16.79,15.24,18.41,27.23.51,3.74,1.97,6.16,5.96,8.47ZM495.06,195.32c-2.44,1.47-3.08,4.04-4.53,5.99-1.56,2.09.14,3.34,1.31,4.69,12.32,14.2,24.65,28.38,36.97,42.58,1.63,1.88,3.21,3.82,4.82,5.73,1.82,2.17,4.17,1.55,5.84.33,2.36-1.72-.43-2.78-1.21-3.84-5.38-7.34-9.26-15.05-6.64-24.49.53-1.91-.31-2.79-1.68-3.63-11.56-7.09-21.26-16.52-31.68-25.04-1.01-.83-2.11-1.55-3.2-2.33ZM601.13,332.61c-.32-2.16,1.19-5.52-.86-6.48-4.76-2.25-3.65-6.1-3.81-9.73-.09-1.99-.04-3.98-.07-5.98-.07-4.05-3.3-5.8-6.13-7.15-3.09-1.47-3.24,2.4-4.74,3.84-.81.79-1.64,2.51-2.25,2.42-7.11-1.09-6.08,6.05-9.19,8.93-.62.58-.59,1.73.17,2.23,4.64,3.08,1.57,6.01-.29,8.7-1.89,2.73-1.7,4.56,1.03,6.64,5.29,4.01,10.31,8.36,15.51,12.49,1.09.86,2.14,2.72,3.7,1.84,1.43-.81.48-2.75.73-4.17.36-1.98-1.03-5.41,1.59-5.6,6.07-.46,4.28-4.59,4.6-7.98ZM349.84,359.17c5.67-3.15,9.57-7.88,12.94-13,10.05-15.29,11.84-32.18,8.91-49.76-1.55-9.33-1.8-9.12-10.68-5.54-3.58,1.45-4.45,3.01-3.51,6.99,2.98,12.72,3.4,25.59.62,38.49-1.73,7.99-5.46,15.19-8.28,22.84ZM495.32,112.7c6.22-2.17,13.29-2.67,13.65-11.17.25-5.82.58-11.61-.7-17.38-4.59-20.63-16.47-36.09-33.89-47.48-9.42-6.16-19.01-8.07-27.67-5.75,20.51,2.08,34.45,13.2,43.61,29.42,9.13,16.17,13.29,33.79,4.99,52.37ZM222.75,419.29c5.59-.35,11.07-.61,16.54-1.07,2.02-.17,5.62.81,5.66-1.28.06-2.65-3.04-4.48-5.84-5.28-1.24-.35-2.64-.1-3.97-.13-9.73-.25-19.46.75-29.21-.12-13.43-1.21-26.77-2.73-39.77-6.61-5.09-1.52-9.49-4.96-14.97-5.25-1.19-.06-2.73-1.37-3.52.42-.62,1.4-.36,2.93.64,4.24,2.43,3.17,5.79,5.15,9.47,6.18,17.38,4.9,34.68,10.71,53.17,6.16.26-.06.74.04.87.24,2.92,4.36,7.4,1.37,10.92,2.51ZM431.1,193.95c-.41-2.99-2.92-3.64-4.91-4.57-2.03-.95-2.45,1.12-3.05,2.37-10.83,22.67-21.57,45.39-32.48,68.02-1.59,3.31-1.04,5.01,2.23,6.63,3.77,1.87,4.22-1.01,5.29-3.1,10.85-21.37,21.22-42.97,31.05-64.83.68-1.51,1.26-3.07,1.86-4.52ZM464.88,114.82c-.95.19-2.29.33-3.54.73-6.48,2.05-11.61,6.44-17.13,10.11-14.1,9.39-26.5,20.64-36.56,34.35-1.79,2.44-3.14,5.13-3.58,8.15-.36,2.5,1.15,4.4,3.05,5.28,2.28,1.05,2.46-1.63,3.13-2.89,3.81-7.15,8.99-13.18,14.86-18.66,13.52-12.63,26.97-25.37,45.13-31.32,3.68-1.21,1.61-2.87.17-4.19-1.4-1.28-3.29-1.48-5.53-1.56ZM310.42,336.75c-5.34.44-10.13.93-14.95,1.21-3.74.21-5.46,1.95-6.06,5.72-.59,3.74-2.03,7.35-3.08,11.02-.31,1.07-1.33,2.37-.1,3.21,4.92,3.34,8.76,8.22,14.69,10.14,2.15.69,3.46.05,4.63-1.69,4.98-7.44,8.22-15.52,9.49-24.42.6-4.23-.8-6.06-4.62-5.17ZM684.84,447.83s.08,0,.11,0c0-3.82-.08-7.64.03-11.46.08-2.92-1.12-3.44-3.67-2.48-4.66,1.75-9.35,3.45-14.09,4.99-2.85.93-3.86,2.73-3.75,5.6.29,7.46.47,14.92.69,22.38.05,1.62.28,3.29,2.5,2.5,5.92-2.12,12.64-3.31,17.16-7.52,2.92-2.72.65-8.25,1.01-12.51.04-.49,0-1,0-1.49ZM300.06,392.44c2.16-.18,5.63-.48,9.1-.75,2.02-.16,2.83-1.25,2.93-3.25.22-4.64.52-9.27.9-13.9.24-2.89-.93-4.13-3.75-3.45-3.82.93-7.12-.27-10.49-1.94-2.85-1.41-5.51-2.99-7.98-5-1.57-1.28-3.05-3.56-5.56-2.05-2.61,1.56-.89,3.97-.62,5.89.67,4.92,1.73,9.79,2.64,14.68,2.21,11.93.17,9.35,12.84,9.77ZM314.44,381.56c-.09,1.99-.04,4-.31,5.97-.44,3.2.75,3.74,3.59,2.75,3.76-1.31,7.68-2.17,11.41-3.55,16.73-6.2,15.54-7.4,17.28-21.67.54-4.43-1.17-4.19-4.3-3.12-5.66,1.92-11.39,3.62-17.08,5.46-11.76,3.8-10.22,1.73-10.59,14.17ZM348.57,365.23c9.84-3.42,18.56-7.74,25.01-15.31,14.87-17.43,16.71-38.1,14-59.75-.36-2.9-1.66-4.15-4.69-3.31-2.69.74-5.07,1.26-4.39,5.13,1.53,8.71,1.79,17.45.85,26.3-1.96,18.41-10.2,32.77-26.04,42.63-1.58.99-3.78,1.38-4.74,4.3ZM618.78,364.79c.18,0,.36,0,.54,0,0-6.15-.14-12.3.05-18.45.11-3.46-1.08-5.34-4.63-5.64-1.48-.13-2.96-.47-4.38-.91-2.11-.65-3.09-.14-3.13,2.21-.23,14.29-.77,28.57-.67,42.85.04,5.27,5.17,3.99,8.46,4.71,3.7.81,3.65-2.18,3.7-4.35.17-6.81.06-13.62.06-20.43ZM151.38,341.74c-.05,2.15.89,2.93,1.61,3.81,5.28,6.44,12.14,10.77,19.43,14.55,15.23,7.89,31.43,13.39,47.42,19.4,5.02,1.89,10.09,3.67,15.33,5.56.32-3.59-2.08-3.86-3.82-4.41-6.74-2.12-13.83-4.68-19.36-8.15-7.17-4.51-14.7-8.74-21.68-13.69-11.67-8.28-25.32-12.19-38.92-17.08ZM657.2,350.39c0-2.82-.04-5.65.01-8.47.05-2.66-1.14-2.95-3.46-2.28-7.85,2.25-8.08,2.52-8.27,10.83-.27,12.12-.52,24.23-.98,36.34-.15,3.98,1.09,4.21,4.61,3.23,5.5-1.53,8.21-4.24,7.29-10.25-.89-5.81.32-11.68-.55-17.68-.47-3.21,1.1-7.72,1.35-11.72ZM400.37,51.06c-.15-3.16-.27-6.32-.46-9.48-.16-2.67-1.2-3.91-4.19-3.02-7.51,2.24-14.76,5.14-21.91,8.32-2.23.99-2.07,2.09-.56,3.71,5.23,5.59,10.41,11.24,15.52,16.94,1.63,1.82,2.82,1.18,4.68.19,7.02-3.72,7.51-9.9,6.92-16.67ZM420.4,275.84c6.1-1.5,11.13-3.52,13.32-10.29,2.09-6.44,5.34-12.51,8.07-18.75,3.39-7.76,6.79-15.51,10.1-23.31,1.1-2.6-1.66-8.55-4.31-8.78-2.93-.25-2.65,2.86-3.41,4.59-7.27,16.57-14.44,33.19-21.56,49.83-.88,2.06-2.35,3.99-2.2,6.71ZM526.33,197.71c-.01-2.9-1.73-4.98-3.45-7.01-6.78-8-13.58-15.98-20.39-23.96-5.04-5.9-5.16-5.81-11.98-2.39-2.7,1.35-3.05,2.59-1.1,4.85,7.62,8.82,15.11,17.74,22.77,26.52,2.57,2.95,5.93,4.86,9.87,5.45,2.56.39,4.23-.6,4.28-3.46ZM652.18,290.88c.02-7.16.04-6.91-6.14-6.29-9.06.91-18.16,1.51-27.11-1.03-1.16-.33-2.46-1.32-3.36.59-2.26,4.78.55,11.54,5.69,13.09,8.8,2.66,17.68,1.99,26.58.4,4.64-.83,4.54-4.06,4.34-6.76ZM632.71,366.42c.21,0,.41,0,.62,0,0-6.48-.01-12.95,0-19.43,0-4.23-3.23-3.95-5.96-4.27-2.89-.34-3.06,1.64-3.23,3.81-1.05,13.26-.33,26.56-.76,39.83-.12,3.76,1.68,4.84,5.06,5.12,3.73.31,4.19-2.07,4.23-4.65.12-6.8.04-13.61.04-20.41ZM310.07,369.16c2.39.32,4.2-.89,5.67-2.94,3.85-5.4,8.01-10.61,11.57-16.2,3.19-5.02,6.27-10.2,7.86-16.04.3-1.1,1.31-3.42-.77-2.93-5.46,1.29-10.76,3.3-16.07,5.17-.99.35-.85,1.69-.96,2.68-1.1,9.7-3.85,18.83-9.21,27.08-1.38,2.13-1.33,3.43,1.91,3.19ZM422.8,107.61c-5.14-.26-10.28-.53-15.42-.77-2.03-.09-3.96.11-5.61,1.55-11.69,10.13-23.41,20.24-35.1,30.37-.99.85-2.36,1.98-.57,3.17,5.25,3.5,10.6,6.84,16.9,10.87-7.29-23.87,14.06-41.2,39.81-45.18ZM643.89,351.54c0-2.45-.06-3.45.01-4.44.22-2.89-1.23-3.79-3.92-3.65-2.47.13-4.55.15-4.6,3.62-.2,13.78-.54,27.55-.94,41.32-.09,3.22,1.53,3.89,4.3,3.9,2.76,0,4.26-.58,4.28-3.86.06-12.78-.17-25.57.88-36.88ZM302.82,237.85c1.96.76,3.9,1.6,5.89,2.28,9.45,3.26,17.38,8.93,24.51,15.73,6.73,6.42,8.13,6.75,16.41,2.81,2.26-1.08,2.35-2,.59-3.5-2.28-1.93-4.48-3.98-6.87-5.76-11.93-8.89-24.88-14.57-40.53-11.56ZM608.42,319.68c-.07,0-.14,0-.22,0,0,4.66,0,9.32,0,13.98,0,5.72,4.78,4.68,7.99,5.3,3.93.76,3.61-2.73,3.67-5,.23-8.48.12-16.97.3-25.46.06-2.87-1.05-4.37-3.86-4.71-1.48-.18-3.03-.23-4.42-.72-2.67-.94-3.6-.19-3.5,2.63.15,4.66.04,9.32.04,13.98ZM657.33,311.81c.27,0,.53,0,.8,0,0-2.32.03-4.65-.02-6.97-.02-.78.11-1.68-.85-2.14-1.96-.94-10.75,3.87-10.8,6.12-.22,9.29-.3,18.59-.39,27.89-.01,1.12-.1,2.4,1.39,2.86,3.07.94,9.81-3.65,9.85-6.86.09-6.96.03-13.93.03-20.89ZM434.13,105.78c-7.84-8.28-16.54-15.17-25.56-21.66-1.84-1.32-2.97-1.32-3.12,1.37-.28,4.98-.59,9.96-1.07,14.91-.32,3.3,1.29,4.58,4.25,4.71,8.44.38,16.92-.1,25.51.67ZM219.23,252.02c10.95-1.18,21.81.48,32.71,1.41,1.96.17,3.96,1.3,5.88.42,7.32-3.32,14.58-6.76,21.86-10.16-20.78-.84-40.93,1.22-60.45,8.33ZM593.08,282.8c-2.86-4.7-6.1-4.87-10.38-1.89-8.48,5.89-15.5,13.07-20.53,22.07-1.44,2.58-2.59,5.44-3.3,8.31-.89,3.58,2.33,4.87,4.63,6.22,1.83,1.08,1.99-.98,2.33-2.17,4.19-14.77,13.68-25.11,27.26-32.53ZM383.35,64.31c-3.82-4.14-7.63-8.3-11.46-12.42-3.96-4.26-3.91-4.55,1.56-7.05.45-.21,1-.3,1.36-.62,1.26-1.11,4.77-.52,3.34-3.64-.98-2.14-2.9-3.86-5.69-2.67-8.06,3.44-16.09,6.95-25.38,10.98,13,5.17,24.3,10.72,36.27,15.41ZM633.93,324s.08,0,.12,0c0-4.83.08-9.66-.02-14.49-.09-4.37-3.74-3.45-6.29-3.89-2.8-.48-3.28,1.4-3.29,3.69-.04,9.16-.15,18.32-.21,27.48-.03,5.19,4.28,3.69,6.98,4.2,3.18.6,2.7-2.07,2.71-4.01.02-4.33,0-8.66,0-12.99ZM416.03,309.68c-5.55,2.62-11.76,2.78-14.54,6.76-4.82,6.91-7.98,14.98-11.85,22.59,17.94-1.43,21.92-14.71,26.38-29.35ZM487.75,205.05c-1.23-.04-1.69.65-2.04,1.41-.8,1.72.36,2.8,1.34,3.94,13.58,15.72,27.14,31.46,40.76,47.16.94,1.08,1.76,3.34,3.87,1.42,1.65-1.5.91-2.88-.29-4.3-13.46-16.05-27.03-31.99-41.17-47.45-.77-.84-1.72-1.53-2.46-2.17ZM369.75,275.76c-1.85-3.78-3.29-8.2-6.54-11.32-2.35-2.25-4.96.39-7.39,1.01-2.72.7-5.38,1.66-8.02,2.63-1.01.37-2.37.49-2.58,1.97-.13.89,6.97,12.93,7.81,13.04.78.1,1.66.01,2.41-.25,4.06-1.45,8.08-2.98,12.12-4.5,1.09-.41,2.23-.8,2.2-2.58ZM447.73,36.63c18.52,4.48,29.72,16.88,36.71,33.99,7.17,17.54,4.13,33.94-6.12,50.67,13.53-13.45,16.74-34.25,9.15-52.94-7.36-18.13-20.33-28.99-39.75-31.72ZM643.97,324c.09,0,.19,0,.28,0,0-4.64-.03-9.28.01-13.92.03-3.09-1.95-3.34-4.32-3.36-2.44-.02-3.62.88-3.68,3.48-.19,9.11-.48,18.22-.82,27.32-.1,2.66.65,4.07,3.62,3.86,2.67-.19,5.03-.3,4.94-3.95-.11-4.47-.03-8.95-.03-13.43ZM428.88,275.19c-4.67,1.78-9.2,1.66-10.93,4.98-4.63,8.88-8.53,18.15-13.15,28.21,5.34-2.4,11.28-2.76,13.44-6.87,4.19-7.96,6.87-16.72,10.64-26.32ZM437.25,104.74c1.74-3.65.08-5.92-1.75-8.08-5.27-6.21-10.59-12.37-15.88-18.57-4.75-5.57-4.99-5.51-10.24-.28-1.92,1.91-1.93,3.04.29,4.63,4.32,3.09,8.58,6.3,12.7,9.65,4.97,4.05,9.78,8.3,14.88,12.64ZM548.44,302.39c3.73-1.95,5.46-4.45,6.89-7.19,6.48-12.42,1.87-30-9.83-37.71-2.56-1.69-4.85-1.16-7.85.52,15.36,11.79,18.24,26.49,10.79,44.38ZM301.1,408.75c6.93-1.97,13.12-3.72,19.3-5.5,6.07-1.75,11.12-8.28,11.7-14.99-12.99,1.99-23.91,7.34-31,20.49ZM529.02,307.1c9.95.54,16.95-3.47,19.57-10.74,4.76-13.23.26-27.76-11.1-35.97-1.45-1.05-2.7-2.02-4.22-.12-1.61,2.01.02,2.91,1.2,4.06,1.9,1.85,3.95,3.6,5.58,5.67,10.9,13.83,5.69,32.57-11.02,37.1ZM550.24,245.14c2.06,1.53,3.55,3.93,6.27,3.78,12.14-.67,18.11,6.51,21.79,16.73.51,1.42.95,2.88,2.24,3.79,1.17.83,2.18,2.73,3.68,2,1.55-.76.8-2.71.52-4.09-1.4-7.06-4.81-13.12-9.95-18.08-6.83-6.59-17.04-8.28-24.56-4.13ZM156.05,292.8c-5.44,11.01-11.02,21.95-16.26,33.05-1.97,4.17.12,7.29,3.85,9.58,2.47,1.52,3.89,1.45,4.4-1.79,2.17-13.63,5.28-27.06,8.01-40.85ZM567.42,317.04c.06,1.26-.25,2.58,1.19,3.11,1.36.5,2.21-.33,2.85-1.39,1.81-2.99,3.82-5.89,5.35-9.02,4.22-8.59,9.72-15.79,19.2-19.01,1.19-.4,2.22-1.07,1.67-2.54-.55-1.47-1.49-2.65-3.26-2.64-1.89.02-3.62.65-5.16,1.7-10.06,6.87-17.56,15.73-21.3,27.49-.25.79-.39,1.61-.55,2.31ZM310.07,394.5c-6.87,0-12.47-.1-18.07.04-3.27.08-7.97,5.31-8.16,9.36-.19,3.99,3.72,3,5.84,3.8,2.43.92,5.29,3.15,7.84.55,4.13-4.21,7.97-8.7,12.55-13.75ZM427.56,41.2c22.06-3.67,38.49,3.88,49.17,22.83,10.38,18.41,10.48,36.92-1.33,55.11,13.98-11.61,14.29-38.04,1.18-59.5-10.73-17.55-31.46-25.55-49.02-18.44ZM557.58,267.95c.18,1.43.15,1.93.32,2.36,4.78,12.38,3.25,23.48-6.57,32.95-.68.65-1.81,1.26-1.13,2.43.68,1.16,1.76,2.1,3.14,2.23,1.26.12,1.52-1.1,1.83-2.01,2.42-7.05,6.38-13.17,11.42-18.59,2.38-2.56,4.96-4.92,7.41-7.41,1.14-1.16,2.2-3.15-.32-3.12-6.81.09-10.44-5.28-16.1-8.83ZM291.28,237.74c-15.09-4.66-58.12,1.47-64.86,9.02.29.12.63.4.87.33,18.25-5.1,36.91-6.64,55.77-6.39,2.9.04,5.56-.65,8.23-2.96ZM400.39,168.96c1.57.09,1.55-1.09,1.83-2,2.24-7.21,7.01-12.69,11.96-18.15,11.63-12.81,25.29-23.02,39.91-32.07,3.75-2.32,7.62-4.04,12.13-3.98,1.05.01,2.7.54,2.49-1.37-.16-1.46-1.49-1.56-2.74-1.3-4.43.93-8.58,2.64-12.53,4.8-16.69,9.11-30.81,21.43-43.59,35.33-4.03,4.39-7.62,9.25-9.84,14.92-.53,1.36-1.37,2.78.38,3.82ZM289.11,411.03l-.04-1.14c-.74-.34-1.48-.68-2.23-1.01-7.22-3.26-14.45-.31-21.65.05-4.14.21-8.24,1.06-12.35,1.7-2.56.4-2.26,2.51-2.3,4.3-.03,1.51.87,2.01,2.3,1.79,12.09-1.9,24.18-3.79,36.27-5.69ZM361.41,351.67c15.6-13.03,22.27-54.63,11.71-68.85-1.71,1.71-1.93,3.66-1.36,5.93,5.51,22.06,4.13,43.09-10.35,62.91ZM624.92,414.42c-1.96.08-3.66-.81-3.88,1.31-.23,2.27,1.61,2.67,3.27,2.96,11.12,1.94,22.25,3.85,33.39,5.71,1.17.19,2.84.99,3.3-.99.45-1.92-.79-2.6-2.5-2.9-11.44-2.04-22.87-4.13-33.59-6.08ZM286.1,387.69c-1.05-6.15-2.06-12.71-3.36-19.21-.26-1.29.38-4.13-2.13-3.55-1.98.46-4.9,1.37-4.41,4.49,1,6.39,2.14,12.76,3.49,19.08.49,2.28,2.73,2.81,4.8,2.67,1.89-.13,1.59-1.76,1.6-3.48ZM142.13,337.41c2.29,13.96,14.92,24.39,30.54,25.18-10.04-5.66-19.87-11.26-25.23-22.04-.95-1.91-2.99-2.93-5.31-3.14ZM401.46,64.61c-3.28,1.3-6.28,3.11-7.63,5.69-1.22,2.32,2.5,2.76,3.9,4.16.92.92,2.16,1.52,3.26,2.27,3.12,2.11,10.6-.85,11.35-4.53.08-.41-.02-1.14-.29-1.3-3.52-2.15-7.08-4.22-10.59-6.28ZM279.11,405.09c-2.38-2.15-3.26-4.95-5.83-4.75-6.75.52-13.46,1.52-20.18,2.4-1.69.22-1.9,1.61-1.86,3.02.04,1.56.78,2.58,2.42,2.47,8.17-.56,16.31-1.45,25.44-3.14ZM633.18,276.3c-3.61.34-7.24.57-10.83,1.09-1.11.16-3.02.1-2.91,1.97.08,1.35,1.62,1.55,2.68,1.83,7.99,2.09,16.03,1.9,24.08.31.98-.19,2.12-.48,2.23-1.61.11-1.2-1.1-1.55-1.99-1.87-4.29-1.5-8.77-1.49-13.26-1.72ZM414.85,62.41c1.66-5.34-1.96-6.97-6.52-7.63-1.89-.27-4.6-2.65-5.57.35-.92,2.88-2.1,6.6,1.76,8.88,2.28,1.34,4.59,2.64,6.86,4.01,2.7,1.64,3.56.5,3.48-2.21-.03-.99,0-1.99,0-3.41ZM402.84,337.36c-11.58,2.48-21.22,10.02-26.19,20.48,9.65-3.86,21.17-12.87,26.19-20.48ZM544.41,250.16c-.44.22-1.42.4-1.84.98-.59.82.27,1.52.88,2.02,7.64,6.37,15.29,12.72,22.94,19.07,1.3,1.08,2.86,1.53,3.91.01,1.1-1.6-.79-2.28-1.66-3.03-6.92-5.94-13.9-11.81-20.87-17.68-.87-.73-1.7-1.63-3.36-1.37ZM596.69,281.64c2.84-23.61-4.53-37.59-20.4-45.24-.24,1.05.62,1.47,1.23,1.91,13.57,9.83,18.23,23.47,17.06,39.65-.1,1.4-.43,3.09,2.11,3.68ZM604.16,342.3c-1.36,1.3-1.14,2.65-1.17,3.89-.24,12.27-.49,24.53-.65,36.8-.02,1.32-.81,3.67,1.21,3.68,1.92,0,1.29-2.31,1.3-3.69.1-11.78.17-23.55.18-35.33,0-1.69.42-3.54-.88-5.35ZM541.9,210.77c5.39,8.23,9.54,15.87,20.69,15.32-4.54-8.07-10.72-12.96-20.69-15.32ZM441.62,104.51c.16-.04.34-.05.48-.12,5.27-2.84,10.59-5.46,16.65-6.34,1.72-.25,1.25-2.1,1.16-3.36-.08-1.12-.19-2.73-1.8-2.4-6.24,1.25-12.05,3.65-17.21,7.42-1.1.81-.87,2.42-.66,3.76.12.78.6,1.12,1.38,1.06ZM531.82,221.3c.37-1.76-.58-2.39-1.06-3.2-1.95-3.26-5.64-5.76-3.83-10.54.48-1.27-.84-2.64-2.55-1.84-3.51,1.66-7.19,1.74-12.29,1.02,6.9,5.8,12.65,10.73,19.73,14.56ZM408.32,35.64c-4.68.07-7.12,1.42-6.5,4.3.53,2.46-1.47,6.27,2.23,7.24,3.21.85,9.18-3.44,8.91-5.83-.31-2.65.05-6.09-4.63-5.72ZM545.85,220.05c-2.27-3.12-3.96-5.56-5.77-7.89-2.24-2.87-5.18-1.33-7.87-1.02-.91.11-2.07.26-2.31,1.51-.38,1.96,5.47,8.27,7.58,8.13,2.46-.16,4.92-.43,8.38-.74ZM487.93,170.5c-.61.45-1.21.91-1.82,1.36,6.29,8.22,12.56,16.46,18.88,24.66.75.98,1.74.82,2.61.05.88-.79,1.01-1.74.25-2.64-6.62-7.82-13.27-15.62-19.92-23.43ZM359.82,257.66c-9.7-10.45-19.97-18.57-33.96-20.8,11.11,4.4,20.19,11.77,28.99,19.58,1.08.95,2.49,1.53,4.97,1.21ZM367.62,135.36c8.67-7.53,17.34-15.07,26.02-22.6-.28-.32-.57-.64-.85-.96-10.72,5.28-19.53,12.75-25.17,23.57ZM489.14,192.53c-.42-3.89-3.29-3.6-5.87-3.85-3.56-.35-6.24.52-6.65,4.62-.11,1.12,7.19,6.45,8.72,5.98,3.28-1.01,2.31-4.63,3.8-6.74ZM548.44,249.48c8.36,7.03,16.3,13.74,24.29,20.4.94.79,2.36,1.11,3.15.04,1.02-1.38-.58-2.01-1.38-2.66-7.22-5.88-14.47-11.72-21.73-17.55-.89-.72-1.83-1.51-4.33-.23ZM632.98,400.33c3.12-.52,6.41-1,9.67-1.63.92-.18,2.07-.61,1.74-1.95-.26-1.05-1.28-.98-2.07-.84-6.98,1.19-13.93.91-20.89-.16-.94-.15-2.2-.38-2.57.83-.51,1.64.97,2.01,2.04,2.18,3.94.61,7.91,1.05,12.09,1.59ZM336.89,52.99c-9.57,5.55-17.63,10.63-24.26,18.93,9.36-3.31,18.91-10.64,24.26-18.93ZM449.49,197.37c3.25,3.57,16.57,5.86,19.17,4.37,1.17-.67,1.54-1.72,1.44-2.93-.11-1.32-1.23-1.43-2.22-1.43-5.72-.03-11.44-.02-18.38-.02ZM236.29,377.22c1,5.6,2.04,11.63,3.2,17.63.25,1.31,0,3.63,1.96,3.31,2.1-.34,1.64-2.57,1.32-4.18-1.15-5.84-2.36-11.67-3.61-17.5-.24-1.14.09-3.08-1.88-2.71-1.39.27-.97,1.87-.99,3.43ZM600.29,346.36c.94,5.32-2.14,12.08-2,19.19.14,6.92.03,13.85.03,20.77.66-.01,1.31-.03,1.97-.04v-39.93ZM557.46,250.93c6.39,5.15,11.84,9.54,17.74,14.3-1.66-8.68-8.1-14.03-17.74-14.3ZM622.06,420.4c-.05.51-.1,1.03-.15,1.54,12.91,1.87,25.52,5.48,38.53,6.71.09-.54.19-1.08.28-1.62l-38.66-6.63ZM452.59,194.01c.02.4.04.8.06,1.19,6.52,0,13.04.08,19.56-.04,2.11-.04,2.7-1.91,2.54-3.58-.17-1.74-1.79-1.07-2.8-.9-6.46,1.06-12.91,2.21-19.37,3.33ZM606.33,334.29c0-9.42.06-18.84-.06-28.25-.02-1.54,1.13-4.36-1.46-4.37-2-.01-1.18,2.67-1.37,4.22-1.17,9.62,1.91,18.9,2.89,28.41ZM488.47,123.99c6.99-1.94,13.13-4.44,16.61-12.19-7.3,2.36-13.72,4.47-16.61,12.19ZM544.35,209.05c5.36,1.99,10.75,4.1,14.57,8.61,1.81,2.14,3.44,4.44,5.15,6.66.55.72,1.27,1.15,2.1.57.72-.5.3-1.2,0-1.76-4.2-7.82-10.45-13.15-19.07-15.52-.91-.25-2.01-.3-2.75,1.44ZM574.2,230.3c-2.77-10.61-8.66-18.43-19.24-22.04,9.37,4.76,12.66,14.83,19.24,22.04ZM532.91,209.21c1.63-.34,3.66-.54,5.5-1.22,1.37-.51,4.09-.1,3.69-2.29-.34-1.87-2.54-3.21-4.65-2.98-2.1.23-4.13,1.14-6.18,1.77-1.52.47-2.08,1.51-1.79,3.06.34,1.86,1.79,1.62,3.43,1.66ZM281.42,392.78c-3.39.04-4.21,2.85-4.62,5.03-.51,2.72,2.47,5.77,3.91,5.35,3.05-.88,3.98-4.69,4.63-7.62.54-2.47-2.57-1.82-3.91-2.77ZM492.83,71.27c3.63,13.98,5.17,27.94-.79,41.81,7.06-13.86,6.68-27.8.79-41.81ZM349.76,368.48c14.55-2.95,30.2-14.34,33.36-24.41-8.13,12.24-19.84,19.57-33.36,24.41ZM208.79,408.66c-10.92-.9-21.73-2.88-32.66-3.61,10.72,2.77,21.59,4.19,32.66,3.61ZM157.38,385.66c-2.87-1.79-5.36-3.32-7.84-4.88-2.03-1.29-2.96.21-3.97,1.53-1.39,1.8-.16,2.53,1.26,3.35,3.23,1.88,6.43,3.48,10.55,0ZM137.27,396.75c-.5,3.33.77,5.03,4.25,4.91,1.84-.06,4,.27,3.56-2.55-.49-3.16-3.1-5.25-5.6-6.09-2.59-.86-1.95,2.16-2.21,3.73ZM525.77,189.34c-.32.25-.63.49-.95.74,2.69,3.02,4.39,6.31,3.37,10.42-.22.87-.73,2.43.71,2.25,2.06-.26,4.11-1.13,6-2.06.87-.43.23-1.46-.35-2.08-2.92-3.1-5.85-6.18-8.77-9.27ZM654.72,436.37c.05-.54.11-1.09.16-1.63-10.55-1.89-21.09-3.77-31.64-5.66-.09.47-.18.94-.26,1.41,10.58,1.96,21.16,3.92,31.74,5.88ZM411.57,47.12c-2.71.77-7.53,1.22-7.09,3.2.73,3.24,5.46,2.46,8.49,3.36,1.59.47,2.12-.87,1.77-2.11-.51-1.81.22-4.71-3.18-4.45ZM666.23,423.97c2.92-1.14,6.3-2.42,9.65-3.81.81-.34,1.1-1.2.9-2.09-.23-1.03-1.09-1.3-1.9-1.03-3.43,1.13-6.85,2.31-10.23,3.59-1.06.4-1.23,1.48-.91,2.52.31,1.03,1.15,1.01,2.5.82ZM522.37,203.86c-3.92-1.6-7.59-3.05-10.62-5.65-1.08-.93-2.18-.43-3.06.53-.84.93-.52,1.7.22,2.59,2.79,3.34,8.8,4.64,13.46,2.53ZM279.78,362.05c-1.15-2.27-3.02-3.86-5.34-3.95-1.76-.07-4.96.24-4.88,2.22.09,2.31,2.68,4.36,4.97,4.97,2.12.56,3.79-1.49,5.24-3.24ZM613.48,293.16c-.16-.48-.33-.96-.49-1.44-5.79,2.21-11.58,4.41-17.36,6.64-.74.29-1.87.72-1.23,1.67.71,1.05,1.83,1.88,2.91,2.6.86.58,1.7.12,1.73-.91.09-3.63,3.14-3.81,5.46-4.81,2.98-1.29,5.99-2.5,8.99-3.74ZM247.66,414.76c2.66-5.34-1.95-6.76-4.47-9.13-.81-.76-1.94-2.34-3.27-.74-.9,1.09-.83,2.56.19,3.63,2.23,2.34,4.48,4.68,7.55,6.23ZM160.07,392.49c-.92-1.18,1.06-4.12-1.85-4.13-3.34-.02-2.94,2.99-2.87,5.28.06,1.85-.63,4.67,2.47,4.37,3.3-.32,1.58-3.4,2.25-5.51ZM620.79,388.17c1.87-14.38.91-28.82.97-43.23-1.1,14.4.33,28.84-.97,43.23ZM429.09,246.84c-4.38,9.78-8.76,19.56-13.14,29.34,5.69-9.15,9.99-18.93,13.14-29.34ZM148.8,393.29c.51-3.77-.92-5.72-3.74-6-2.23-.22-1.54,2.05-1.74,3.33-.47,3.02,1.3,4.85,3.95,5.17,2.17.27,1.42-2.01,1.53-2.5ZM445.54,208.63c1.14-1.86,1.96-3.48,3.04-4.88.88-1.14,1.68-2.09.39-3.39-.92-.93-1.73-2.21-3.21-2.03-1.52.19-2.07,1.47-2.34,2.84-.54,2.69-.58,5.25,2.12,7.47ZM415.07,281.19c-.36-.21-.73-.43-1.09-.64-4.12,9.07-8.24,18.14-12.37,27.2l1.08.48c4.13-9.01,8.25-18.03,12.38-27.04ZM588.92,297.01c.22.55.43,1.1.65,1.65,7.18-2.85,14.35-5.69,21.53-8.54-.19-.48-.37-.95-.56-1.43-7.21,2.77-14.41,5.55-21.62,8.32ZM214.65,379.73c6.36,4.23,13.23,7.15,20.34,9.43.2-.53.41-1.06.61-1.59-6.98-2.61-13.97-5.23-20.95-7.84ZM341.19,384.18c-5.2,2.42-7.98,6.52-9.82,14.27,4.53-3.51,6.22-8.95,9.82-14.27ZM622.73,424.11c-.06.35-.12.7-.18,1.05,10.17,1.82,20.34,3.64,30.51,5.47.06-.35.12-.7.18-1.05-10.17-1.82-20.34-3.65-30.51-5.47ZM296.7,235.45c5.17-.87,9.04-1.5,12.91-2.17,1.32-.23,2.19-1.18,1.98-2.4-.29-1.7-1.78-1.14-2.81-.84-3.79,1.08-7.59,2.19-12.09,5.42ZM484.83,140.3c1.78-1.93,1.95-4.51,2.79-6.77.81-2.16-.08-2.62-2.18-1.96-4.26,1.35-4.43,3.12-.61,8.73ZM659.26,411.94c-6.34-1.33-12.65-3.36-19.32-2.74,6.29,1.78,12.63,3.26,19.32,2.74ZM655.74,416.33c.11-.52.21-1.03.32-1.55-6.69-1.13-13.38-2.26-20.07-3.38l-.23,1.28c6.66,1.22,13.33,2.44,19.99,3.65ZM570.24,331.16c1.72-1.82,3.38-3.97,4.03-6.68.26-1.07-.95-2.02-1.87-1.62-2.6,1.14-3.32,3.88-4.34,6.21-.43.98.59,1.73,2.18,2.08ZM353.99,285.69c.2.52.41,1.04.61,1.56l16.29-6.44c-.19-.49-.39-.98-.58-1.47-5.44,2.12-10.88,4.23-16.33,6.35ZM162.99,279.92c6.25-4.58,12.48-9.17,18.81-13.65-7.07,3.47-13.73,7.51-18.81,13.65ZM341.85,263.68c.19.53.38,1.06.58,1.59l14.27-4.84c-5.68-1.37-10.11,1.48-14.85,3.25ZM390.63,270.27c.09,2.97.02,5.61,2.87,6.89,1.03.46,2.64.05,2.76-1.32.29-3.3-2.09-4.49-5.63-5.57ZM242.25,401.82c1.57,1.81,3.2,3.86,5.64,4.48,1.22.31,1.12-1.43.94-2.3-.52-2.54-2.17-4.07-4.77-4.24-1-.06-1.85.68-1.82,2.05ZM355.85,290.01c4.7-1.13,9.44-2.15,13.16-5.5-4.75.98-9.26,2.52-13.16,5.5ZM673,415.53c-5.85-2.24-8.74,1.22-12.18,2.89,3.98.44,7.39-1.31,12.18-2.89ZM676.27,423.25c-4.25.72-8.37,1.8-11.87,4.48,4.36-.44,8.49-1.48,11.87-4.48ZM632.54,304.23c.1-.39.21-.79.31-1.18-6.38-1-12.76-2.01-19.14-3.01-.06.37-.13.73-.19,1.1,6.34,1.03,12.68,2.06,19.02,3.09ZM485,202.81c-.41-1.53-1.6-2.57-3.1-2.7-1.66-.15-2.24,1.47-2.22,2.74.02,1.71,1.61,2.65,3.01,2.84,1.68.23,1.83-1.52,2.31-2.87ZM139.08,459.67c-4.88,1.25-8.5,2.49-12.38,5.57,5.2-.06,8.73-1.5,12.38-5.57ZM678.29,430.3c-.18-.45-.36-.9-.54-1.35-4.51,1.66-9.03,3.32-13.54,4.99.18.46.37.92.55,1.38,4.51-1.67,9.02-3.34,13.52-5.02ZM404.26,311.5c4.3-1.03,8.65-1.94,12.13-4.97-4.51.53-8.36,2.64-12.13,4.97ZM214.17,408.85c0,.15,0,.31,0,.46h20.63c0-.15,0-.31,0-.46h-20.64ZM573.01,234.03c-1.6-2.35-2.45-5.31-5.28-6.59-.17-.08-1.01.66-.95.81,1.04,2.92,3.23,4.73,6.23,5.77ZM596.96,352.52c.2-.05.41-.1.61-.15v-8.15c-.2,0-.41,0-.61,0v8.29ZM582.35,306.78c2.13-1.9,4.37-3.74,3.71-7.2-2.03,1.96-3.89,4.01-3.71,7.2ZM327.79,218.08c.03-.37.05-.75.08-1.12l-13.12-.9c-.02.36-.05.71-.07,1.07,4.37.32,8.74.64,13.11.95ZM444.73,212.72c-.37-.14-.75-.29-1.12-.43-1.34,3.43-2.68,6.86-4.01,10.29.3.12.61.23.92.35,1.41-3.4,2.82-6.81,4.22-10.21ZM481.27,129.66c.15.4.3.81.44,1.21,2.83-1.15,5.98-1.64,7.87-4.78-2.77,1.19-5.54,2.37-8.31,3.56Z"/>
    <path class="cls-7" d="M638.72,23.5c2.19-2.86,4.37-5.73,6.6-8.64-2.76-1.81-3.56.8-5.35,1.45-.62-1.82-.62-3.49,1.55-3.75,2.39-.28,5.23-1.25,7.14.61,1.26,1.23-.8,2.57-1.49,3.81-1.03,1.85-2.93,3.17-3.36,5.44,2.81,1.88,3.38-1.87,5.34-2.09q-.19,4.67-10.43,4.17c0-.33,0-.67,0-1Z"/>
    <path class="cls-8" d="M844.22,391.5c-5.7-2.03-3.16,2.46-3.58,4.56-.16.81,1.48,1.78-.09,2.43-.7.29-1.65.26-2.41.07-1.53-.4-.63-1.54-.55-2.42.06-.66.31-1.37.15-1.96-1.75-6.4,1.96-6.5,6.49-5.68v3Z"/>
    <path class="cls-4" d="M304.29,10.83c-4.12-2.7-8.12-5.52-10.07-10.33h1c2.47,3.93,7.61,5.52,9.07,10.33Z"/>
    <path class="cls-4" d="M679.11,213.18c-25.84,24.47-51.68,48.94-77.51,73.41-.44-.46-.88-.92-1.32-1.38,25.82-24.47,51.64-48.94,77.46-73.42.46.46.92.92,1.38,1.38Z"/>
    <path class="cls-5" d="M748.64,337.63l-78.81,71.79c-.43-.47-.86-.94-1.29-1.4,26.24-23.92,52.48-47.84,78.71-71.76.46.46.92.92,1.38,1.37Z"/>
    <path class="cls-6" d="M661.37,351.99c24.67-22.46,49.35-44.93,74.02-67.39.43.47.86.93,1.28,1.4-24.67,22.49-49.35,44.97-74.02,67.46-.43-.49-.86-.98-1.29-1.47Z"/>
    <path class="cls-2" d="M750.98,314.41c-4.05,5.44-3.99,11.49-7.26,16.34-2.8-2.18-2.01-5.85-4.38-8.26-1.66,1.85-1.72,4.31-2.7,6.31-.87,1.77-1.95,1.92-2.69.05-1.64-4.18-3.08-8.44-4.62-12.65-.56-1.54.47-1.71,1.5-1.72,1.3-.01,2.75-.25,2.63,1.93-.16,2.88,1.16,5.33,2.53,8.87,1.38-3.42,2.82-5.79,1.74-8.48-.78-1.93-.2-2.44,1.56-2.35,1.36.07,3.06-.55,2.59,2.21-.45,2.66,1.02,5.1,2.39,8.1,1.84-2.55,2.9-5.22,2.35-7.58-.95-4.13,1.55-2.42,4.35-2.76Z"/>
    <path class="cls-10" d="M621.2,140.51c3.18-2.17,4.84-.96,5.53,2.47,1.28,6.32,1.17,6.47-5.13,6.6-1.49.03-3.01-.16-4.47.07-4.35.69-6.96-.18-5.74-5.43.2-.85.52-2.84-1.39-2.4-1.32.3-3.73-.7-3.8,2.02-.03,1.31-.07,2.71.35,3.91.46,1.3.28,1.9-1.06,1.94-1.07.03-2.52.42-2.55-1.42-.05-2.49-.04-4.98-.03-7.47,0-1.43,1.08-1.5,2.08-1.45,5.43.31,10.96-.83,16.28,1.08-.48,2.06-1.06,4.12-.61,6.27.19.88.74,1.55,1.67,1.39.53-.09,1.39-.68,1.39-1.04,0-2.48,1.96-5.8-2.52-6.56ZM614.42,144.31c.24,1.3-.61,3.34,1.4,3.71,1.84.33,1.93-1.49,1.91-2.79-.03-1.52.72-3.77-1.59-4.02-1.73-.18-1.57,1.75-1.71,3.1Z"/>
    <path class="cls-5" d="M707.25,195.5c-3.39.25-2.42,6.18-7.71,4.16,1.06,1.15,1.15,1.34,1.27,1.36,2.25.33,4.81-.05,5.92,2.73.42,1.05.11,2.03-.68,2.72-2.15,1.87-4.7,1.12-7.15.95-.16-.01-.33-.07-.48-.14-1.29-.65-2.53-1.8-1.79-3.11,1.96-3.46-1.94-8.53,2.78-10.89,2.24-1.12,5.12-1.23,7.49.39.36.25.21,1.25.29,1.9,0,0,.05-.07.05-.07Z"/>
    <path class="cls-7" d="M637.17,261.42c6.13,1.06,12.26,2.07,18.38,3.19,7.2,1.31,14.38,2.72,21.57,4.06,2.07.39,4.07,1.17,6.22-.24,1.85-1.22,2.98.64,4.14,1.73.68.64.88,1.56.09,2.17-1.33,1.01-3.19,2.29-4.54,1.24-6.32-4.93-14.13-4.02-21.23-5.71-8.18-1.94-16.55-3.06-24.83-4.54.07-.63.14-1.26.21-1.89Z"/>
    <path class="cls-9" d="M499.78,327.04c.56-2.05-.21-2.79-2.23-2.64-3.28.25-5.39-1.41-6.27-4.45-.76-2.63.26-4.79,2.19-6.68,2.55-2.48,5.26-.82,7.92-.49,1.28.16,1.33,1.32,1.44,2.28.47,4.26-.28,8.57.66,12.83.38,1.71-1.28,1.59-2.38,1.61-2.02.04-2.2-.99-1.33-2.46ZM500.03,317.91c-.16-1.49-.02-3.96-2.68-3.95-2.47,0-2.9,2.24-2.89,4.33,0,2.08.33,4.2,3.02,4.09,2.42-.1,2.5-2.15,2.55-4.46Z"/>
    <path class="cls-10" d="M690.27,357.2c.03.57-.06,2.26.28,3.85.32,1.52,1.18,3.01-1.39,3.07-1.69.04-3-.27-2.26-2.57.62-1.93-.29-2.65-2.3-2.6-3.22.08-5.35-1.62-6.15-4.71-.69-2.68.41-4.82,2.46-6.58,2.6-2.22,5.4-.63,8.07-.38,1.44.14,1.24,1.75,1.27,2.87.05,1.98.01,3.97.01,7.04ZM681.6,352.99c.22,1.96.5,4.25,3.1,4.12,2.72-.13,2.53-2.59,2.49-4.54-.04-1.94.03-4.47-2.78-4.22-2.38.21-2.69,2.51-2.81,4.63Z"/>
    <path class="cls-9" d="M551.19,32.31c.04.52.06,2.36.36,4.15.34,2.03-.85,2.25-2.3,2.23-1.39-.02-2.24-.44-1.58-2.13.93-2.4-.53-2.88-2.51-2.9-3.08-.02-4.99-1.68-5.77-4.54-.73-2.69.35-4.87,2.41-6.62,2.59-2.2,5.45-.78,8.11-.38,1.58.24,1.22,2.13,1.26,3.41.06,1.82.02,3.65.02,6.78ZM548.16,27.7c-.12-2.02.02-4.55-2.61-4.57-2.4-.03-2.93,2.28-2.97,4.38-.04,2.1.35,4.34,2.82,4.47,2.82.15,2.61-2.36,2.75-4.27Z"/>
    <path class="cls-9" d="M461.19,260.31c.04.55-.02,2.23.3,3.84.34,1.75-.19,2.53-1.93,2.55-1.61.02-2.54-.31-1.84-2.32.89-2.54-.95-2.66-2.74-2.72-3.09-.1-4.94-1.83-5.63-4.7-.64-2.69.48-4.85,2.6-6.54,2.65-2.12,5.46-.57,8.11-.16,1.53.24,1.07,2.2,1.13,3.47.07,1.82.02,3.65.02,6.59ZM458.17,255.41c-.21-1.73-.09-4.27-2.71-4.25-2.39.02-2.87,2.34-2.88,4.43-.01,2.09.39,4.32,2.88,4.4,2.81.08,2.56-2.41,2.71-4.58Z"/>
    <path class="cls-9" d="M745.58,267.79c1.4-.86,2.71-.1,4-.12,4.22-.05,7.61,5.35,5.82,9.18-.43.91-1.27.93-2.08.94-3.95.03-7.9,0-11.85.04-1.69.01-2.3-.46-1.88-2.36.38-1.73.16-3.61.06-5.42-.06-1.04-1.13-2.42.91-2.54,1.52-.09,1.82,1.15,1.89,2.38.05.83-.02,1.66.09,2.48.2,1.49-.58,3.94,1.93,3.73,2.26-.19,1.53-2.56,1.57-4.08.04-1.42-.29-2.86-.46-4.22ZM752.18,272.56c-.28-1.22.47-3.2-1.44-3.17-1.67.02-1.58,1.88-1.56,3.17.02,1.25-.41,3.18,1.28,3.31,2.37.17,1.32-2.1,1.72-3.31Z"/>
    <path class="cls-8" d="M553.05,149.38c-3.69.87-6.15,1.14-4.9-3.77.63-2.49.53-5.36-.01-7.9-.78-3.62.71-4.18,3.8-4.22,7.19-.09,7.64.06,7.73,4.91-1.97-.43-2.38-3.34-4.75-2.88-1.11.22-2.42-.14-2.99,1.22-.45,1.1-.56,2.31.14,3.33.74,1.09,1.71.71,2.58.07,1.36-1.01,1.79-.19,1.75.99-.03.95.68,2.31-1.33,2.47-4.13.32-4.32.93-2,5.76Z"/>
    <path class="cls-3" d="M657.36,203.12c-3.96,1.16-5.66.83-4.54-3.69.74-2.97.38-6.32-.03-9.43-.25-1.9-.3-2.78,1.88-2.68,2.33.1,4.66-.02,6.98.11,2.44.13,3.05,1.57,2.37,3.89-1.78-.5-2.56-2.58-4.62-2.54-2.06.04-3.18.71-3.06,2.89.09,1.7.44,3.24,2.63,2.06,1.85-1,2.03.23,2.13,1.43.08.95.14,2.04-1.17,2.42q-3.93,1.15-2.57,5.55Z"/>
    <path class="cls-1" d="M619.75,403.72c-12.73,10.25-25.45,20.51-38.18,30.76-.41-.5-.82-1.01-1.23-1.51,12.74-10.23,25.49-20.47,38.23-30.7.39.48.78.97,1.18,1.45Z"/>
    <path class="cls-3" d="M722.06,267.18c-.21-.64-.32-1.35-.66-1.92-.91-1.54-2.16-2.67-4.06-1.86-.65.27-1.46,1.17-1.47,1.79-.01,2.14,1.85,2.53,3.42,2.95,2.67.72,4.52,2.17,4.68,5.06.11,1.94-.72,3.52-2.47,4.57-2.63,1.58-5.27.3-7.66-.38-1.54-.44-.69-2.5-.33-4.34.81.74,1.37,1.1,1.71,1.61,1.07,1.57,2.52,2.1,4.31,1.71,1.13-.25,1.61-1.15,1.6-2.23-.01-2.19-1.81-2.55-3.36-3.08-3.18-1.09-5.54-2.89-4.11-6.57,1.38-3.56,4.41-3.19,7.59-2.58,3.38.64,1.88,2.68,2.07,4.27l-1.27,1.01Z"/>
    <path class="cls-2" d="M548.7,318.1l-38.44,30.91-1.2-1.49c12.82-10.3,25.63-20.6,38.45-30.9.4.49.8.99,1.2,1.49Z"/>
    <path class="cls-3" d="M576.5,163.28c-12.56,10.06-25.12,20.13-37.68,30.19-.39-.49-.78-.98-1.17-1.47,12.63-10.14,25.25-20.28,37.88-30.42.32.57.64,1.13.97,1.7Z"/>
    <path class="cls-5" d="M737.27,387.67c-2.04-1.45-2.72-3.26-4.71-3.18-1.58.06-3.12.12-3.26,2.18-.11,1.71.3,3.24,2.5,2.29,1.67-.72,1.7.38,1.73,1.31.02.84.3,2.56-1.11,2.14-4.68-1.42-2.94,1.86-3.03,3.84-.04.78,1.75,1.76-.09,2.28-1.06.3-2.36.29-3.42-.03-1.66-.49-.21-1.59-.2-2.42,0-3.32.7-6.81-.1-9.91-.98-3.81.84-4.01,3.37-3.63,3.13.47,8.13-2.11,8.33,5.14Z"/>
    <path class="cls-9" d="M766.98,270.28c0,.83.27,1.79-.05,2.47-.79,1.69,2.71,5.11-1.92,5.18-3.39.05-7.42.84-8.44-3.99-.74-3.54,1-5.89,4.52-6.44,2.34-.36,3.45-1.23,2.58-3.54-.44-1.17-.5-1.96.84-2.2,1.14-.21,2.02.41,2.13,1.56.23,2.31.3,4.64.43,6.96-.03,0-.06,0-.1,0ZM764.03,272.9c-.16-1.46.39-3.57-1.85-3.84-2.09-.24-2.67,1.51-2.73,3.26-.06,1.84.01,3.88,2.52,3.9,2.02.02,1.98-1.76,2.07-3.33Z"/>
    <path class="cls-5" d="M681.24,427.53c.34-1.58,1.52-2.52,2.69-3.47,10.95-8.91,21.9-17.83,32.86-26.72.7-.57,1.34-1.61,2.55-.86.41,1.29-.66,1.76-1.37,2.34-11.07,9.03-22.17,18.03-33.25,27.03-1.04.85-2.12,1.62-3.55,1.61,0,0,.06.07.06.07Z"/>
    <path class="cls-6" d="M461.79,279.97c-1.95,1.76-2.76,3.55-2.38,5.95.5,3.11-1.27,5.39-3.12,7.59-1.22,1.45-2.9,1.36-3.9.15-1.17-1.41.38-2.4,1.43-3.13.64-.45,1.72-.32,2.29-.81,1.64-1.4,1.55-3.38.71-5.03-.85-1.66-2.27-.64-3.45-.06-1.46.73-2.85,1.71-4.93,1.2.72-1.86,2.42-2.09,3.82-2.73,1.15-.52,3.03-.44,3.02-2.09,0-1.6-1.53-2.53-2.9-3.13-1.31-.58-2.75-.86-4.64-1.43,6.26-3.78,8.54,5.6,14.06,3.5Z"/>
    <path class="cls-3" d="M485,365.2c-.1-3.08,2.35-5.95.57-9.23-.82-1.52.72-1.59,1.62-1.51,1.24.1,3.26-.87,2.86,1.98-.39,2.75,1.29,5.05,1.92,7.6,4.81-1.52.14-8.57,6.34-9.93-2.2,6.01-4.12,11.28-6.2,16.96-3.04-2.75-2.52-6.39-4.33-8.96-1.8.56-1.13,2.68-2.31,3.61-.16-.17-.32-.34-.46-.52Z"/>
    <path class="cls-7" d="M595.77,149.75c-2.46.22-6.16.08-5.09-2.59.99-2.48-1.81-7.62,4-7.74,5.79-.13,4.73,5.15,5.6,7.96,1.06,3.42-2.95,1.56-4.51,2.37Z"/>
    <path class="cls-5" d="M693.72,363.6c0-4.08,2.49-7.29,5.42-7,1.26.13,2.54.73,2.31,2.04-.37,2.1-1.42,1.1-2.32.18-.86-.89-1.47-.25-1.92.48-.64,1.03-.03,1.41.93,1.64,3.31.78,4.89,2.78,3.8,6.16-.67,2.06-2.3,3.39-4.59,2.81-3.24-.82-3.48-3.59-3.63-6.31Z"/>
    <path class="cls-5" d="M779.95,329.9c-4.47,2.47-3.84-2.25-5.75-3.17-1.83.72,1.02,4.73-2.73,3.86-2.71-.63-1.06-2.73-1.15-4.12-.22-3.14-.12-6.31-.18-9.46-.02-.94-.56-2.14.87-2.41,1.55-.29,1.9.89,2.16,2.11.39,1.88-.47,3.96.9,5.89,1.63-.6,2.38-3.75,5.16-1.54-4.54,3.09-1.64,5.91.73,8.84Z"/>
    <path class="cls-9" d="M783.11,327.36c0-.66-.19-1.4.04-1.96.7-1.73-2.26-5.01,2.15-5.16,3.3-.11,6.98-.69,8.02,3.71.79,3.34-.47,5.86-4.09,6.66-1.46.32-3.18.26-2.7,2.53.36,1.72-.68,2.02-1.96,1.98-1.51-.04-1.82-.86-1.64-2.33.22-1.79.05-3.62.05-5.43.05,0,.09,0,.14,0ZM786.07,325.35c.17,1.41-.23,3.37,1.76,3.59,2.2.24,2.69-1.72,2.75-3.38.06-1.64-.2-3.64-2.43-3.61-2.03.03-1.91,1.91-2.07,3.41Z"/>
    <path class="cls-8" d="M321.58,26.57c-7.07-4.17-8.22,3.37-12.14,6.65-.33-3.44,1.76-4.98,3.13-6.86,1.1-1.51,3.3-2.43,2.62-4.89,4.27-.23,6.77-3.97,10.54-5.27,4.44-1.53,7.72-.03,8.87,4.3.42,1.58-.31,2.73-1.55,3.21-1.57.61-1.8-.94-2.22-1.98-.57-1.41,1.25-4.13-1.99-4.05-3.32.08-6,1.9-8.29,4.09-1.99,1.9.96,3.12,1.04,4.8Z"/>
    <path class="cls-5" d="M559.28,449.1c2.29-3.01,1.4-6.43,1.49-9.69.04-1.42.38-3.18-1.57-3.77-1.9-.57-2.43,1.25-3.86,2.71-.6-3.03-.35-4.85,2.91-4.9,2.83-.04,5.66-.1,8.49.03,3.2.15,3.59,2.09,2.98,4.93-1.94-.71-2.19-3.69-4.55-2.73-2.31.94-1.56,3.14-1.46,4.81.18,2.97-1.48,6.44,2.67,8.58-2.78.83-4.85.98-7.09.04Z"/>
    <path class="cls-7" d="M677.59,195.5c-1.84-2.07-2.62,2.41-4.22.33-.61-.79-.15-1.64.56-2.14,1.63-1.15,3.59-1.46,5.09-.19,2.68,2.27,3.45,6.05,2.84,8.82-.52,2.4-4.37.45-6.7,1.08-1.33.35-2.63-.66-2.86-2.16-.35-2.26,1.28-3.19,3.05-3.9.88-.35,1.99-.38,2.24-1.85Z"/>
    <path class="cls-3" d="M685.29,197.62c1.4-.88-3.49-4.73,2.15-4.71,4,.02,7.03.11,6.77,5.2-.05.98.04,2,.25,2.96.28,1.33.24,2.35-1.44,2.44-1.42.08-2.02-.52-2.03-2.06-.01-2.16,1.24-6.11-1.05-6.02-3.12.12-1.46,3.9-1.43,6.14.02,1.66-.81,2-2.14,1.93-1.22-.07-1.73-.72-1.52-1.97.19-1.14.27-2.3.44-3.91Z"/>
    <path class="cls-5" d="M520.4,361.59c-1.84,1.82-3.43-1.36-4.95.8,1.64,1.92,6.54,1.73,5.15,5.71-1.39,3.99-5.41,1.99-8.31,2.5-3.21.56-4.73-.38-3.45-3.93.32-.88-.11-2.01.09-2.96.25-1.18-1.76-3.38,1.01-3.4,2.11-.01,1.82,2.23,1.59,3.53-.74,4.03,3.3,3.47,4.85,5.28.36.42,1.3.11,1.68-.56.39-.67.16-1.31-.43-1.71-.54-.37-1.17-.63-1.8-.83-1.53-.5-2.69-1.32-2.78-3.08-.05-1.12.52-2,1.59-2.22,1.91-.38,3.98-1.09,5.76.87Z"/>
    <path class="cls-9" d="M726.85,274.67c0-.66-.26-1.5.05-1.96,1.09-1.64-3.04-4.98,1.57-5.28,3.61-.23,7.78-.63,8.68,4.34.62,3.47-1.18,5.73-4.82,6.14-1.56.17-3.27.1-2.38,2.47.61,1.63-.02,2.14-1.54,2.08-1.56-.06-1.83-.93-1.71-2.34.15-1.81.04-3.64.04-5.46h.12ZM729.56,273.1c.14,1.18.06,3,2.06,3.07,2.23.08,2.51-1.78,2.52-3.49,0-1.69-.22-3.69-2.38-3.63-2.19.06-2.16,2.08-2.2,4.05Z"/>
    <path class="cls-8" d="M788.78,388.4c1.1.18,3.57-.19,2.94,1.31-1.21,2.91,3.11,6.24-.85,8.5-1.78,1.02-4.43,1.24-5.59-.16-1.81-2.18.04-5.17-.18-7.86-.13-1.61,2.07-1.74,3.68-1.79Z"/>
    <path class="cls-4" d="M553.86,52.85c-2.41,1.92-3.35,4.01-3.24,6.89.1,2.63-1.92,4.52-3.76,6.19-.92.84-2.31.62-3.16-.31-.86-.94-.22-2.25.61-2.51,3.4-1.06,4.69-2.95,3.77-6.56-1.03-4.06-2.94-6.99-7.35-7.7-.28-.04-.51-.35-.76-.55,3.2-1.09,4.73-.98,7.05,1.69,1.84,2.11,3.67,3.49,6.84,2.85Z"/>
    <path class="cls-9" d="M805.24,393.92c-.11-3.02-1.59-6.13,3.48-5.57,4.9.54,5.5,1.19,5.72,7.93.11,3.37-1.9,2.28-3.48,2.31-3.51.08-8.07,1.25-5.73-4.68ZM808.19,393.67c.19,1.29-.27,3.2,1.53,3.19,1.8,0,1.46-1.93,1.44-3.16-.02-1.21.58-3.21-1.13-3.34-2.16-.17-1.56,2.01-1.84,3.31Z"/>
    <path class="cls-4" d="M662.97,252.08c-1.46-.12-1.77,2.24-2.56,1.22-1.16-1.51.41-2.69,1.67-3.44,1.32-.78,2.65-.55,3.28.98.75,1.84-.36,3.53-.7,5.29-.23,1.2-1.03,2.9.69,3.44,1.68.53,2.14-1.2,2.57-2.38.61-1.7,1.13-3.45.56-5.33-.26-.85-.06-1.72.92-1.97,1.02-.26,1.64.5,1.67,1.34.16,3.79-.79,7.25-3.89,9.69-1.21.95-2.82,1.05-4.2.14-1.38-.92-1.78-2.34-1.4-3.93.38-1.6.86-3.17,1.38-5.06Z"/>
    <path class="cls-6" d="M707.19,195.58c1.38-1.14,2.47-2.73,4.54-2.78,2.2-.05,4.04.6,4.55,2.93.56,2.59-1.54,2.38-3.13,2.66-1.09.19-2.49.08-2.44,1.79.04,1.34,1.46,1.8,5.08,1.63-1.79,2.16-3.83,2.17-5.85,1.08-2.99-1.61-3-4.49-2.7-7.39,0,0-.05.07-.05.07Z"/>
    <path class="cls-2" d="M824.07,390.32c-2.07.7-3.2-1.79-4.72-.06-.18,1.39,1.14,1.29,1.93,1.62,2.46,1.05,4.16,2.69,2.54,5.32-1.46,2.37-4.1,1.7-6.35,1.17-1.16-.27-1.62-1.74-1.01-2.38,2.03-2.16-2.13-6,1.95-7.24,1.74-.53,4.09-1.39,5.67,1.56Z"/>
    <path class="cls-3" d="M666.48,371.06c1.62-1.11,3.14-2.4,4.88-3.29,2.74-1.4,4.78-.69,6.18,2.25-1.86.91-2.16-.55-3-.83-1.95-.66-3.1.68-4.23,1.8-1.31,1.29-.29,2.33.58,3.37.83,1,1.55,2.1,2.31,3.16,0,0,.07-.06.07-.06-.48-.12-.95-.3-1.44-.36-1.74-.22-2.87-3.26-4.72-1.64-1.82,1.59-3.15,3.85-1.32,6.59.73,1.1-.16,2.23-1.06,3.03-.57.5-1.23.38-1.77-.16-.85-.86-1.44-1.72-.89-3.08,1.38-3.36,2.64-6.76,3.96-10.15.16-.2.31-.41.46-.63Z"/>
    <path class="cls-2" d="M776.17,396.85c-2.65,2.6-5.05,2.57-7.29.56-2.09-1.87-2.31-4.31-.95-6.77,1.36-2.47,3.66-2.59,6.04-2.04,1.41.32,2.23,1.38,2.38,2.83.13,1.22-.65,1.7-1.71,2-1.49.43-4.37-.65-3.76,2.35.57,2.79,3.18.69,5.29,1.05Z"/>
    <path class="cls-6" d="M588.45,147.84c-2.18,2.69-4.61,2.68-6.85.61-2.08-1.91-2.25-4.41-.86-6.83,1.39-2.42,3.71-2.59,6.11-1.93,1.39.38,2.2,1.49,2.3,2.94.08,1.22-.74,1.66-1.83,1.9-1.53.35-4.46-.71-3.87,2.19.57,2.79,3.09,1.38,5,1.11Z"/>
    <path class="cls-2" d="M782.51,277.32c-3.37,1.29-5.19.12-6.45-2.1-1.17-2.08-.9-4.17.5-6.08,1.39-1.88,3.38-1.98,5.4-1.51,1.61.37,2.56,1.54,2.61,3.22.05,1.64-1.14,1.76-2.38,1.78-1.3.02-3.05-.26-3.4,1.32-.49,2.27,1.91,2.21,3.72,3.36Z"/>
    <path class="cls-2" d="M829.4,328.52c-2.08,2.74-4.46,2.75-6.73.86-2.16-1.81-2.36-4.33-1.11-6.77,1.28-2.51,3.66-2.56,6.04-2.1,1.44.28,2.3,1.33,2.49,2.75.2,1.49-.82,1.9-2.1,2.17-1.41.29-4.1-.74-3.74,1.8.43,3.04,3.07,1.82,5.15,1.3Z"/>
    <path class="cls-5" d="M808.35,328.67c-2.17,2.57-4.59,2.61-6.8.52-2.02-1.92-2.19-4.39-.78-6.79,1.43-2.43,3.79-2.37,6.13-1.82,1.4.33,2.22,1.43,2.27,2.89.06,1.55-1.12,1.71-2.32,1.96-1.37.29-4.08-.74-3.47,1.99.6,2.69,2.96,1.79,4.96,1.24Z"/>
    <path class="cls-10" d="M831.07,398.87c-3.48-.05-5.57-1.79-5.66-5.09-.09-3.22,1.57-5.3,5.13-5.4,3.48-.1,5.46,1.74,5.59,4.97.13,3.23-1.79,5.21-5.05,5.52ZM833.08,393.59c-.07-1.65.07-3.6-2.22-3.72-2.27-.11-2.49,1.73-2.5,3.45,0,1.68.05,3.61,2.24,3.74,2.28.14,2.39-1.78,2.48-3.48Z"/>
    <path class="cls-9" d="M742.26,398.85c-3.2-.31-5.16-2.11-5.05-5.48.11-3.37,2.09-5.08,5.54-4.98,3.49.11,5.35,2.14,5.24,5.36-.11,3.22-2.18,5.09-5.73,5.09ZM744.97,393.42c-.09-1.47.04-3.43-2.22-3.55-2.26-.12-2.49,1.75-2.5,3.46,0,1.65,0,3.62,2.22,3.74,2.26.12,2.41-1.76,2.5-3.64Z"/>
    <path class="cls-1" d="M800.42,398.34c-3.38.98-5.18-.26-6.26-2.54-.98-2.07-.78-4.19.76-6.02,1.5-1.78,3.52-1.64,5.47-1.16,1.62.4,2.51,1.68,2.39,3.32-.11,1.5-1.42,1.53-2.62,1.59-1.27.06-3.02-.28-3.32,1.37-.39,2.14,1.97,2.15,3.58,3.44Z"/>
    <path class="cls-6" d="M468.38,271.17c.68,1.6,3.02-.57,3.11,1.68.04,1.02-.82,1.43-1.67,1.53-1.64.19-3.45.64-4.82-.5-1.03-.85.02-1.77.63-2.53,1.34-1.68,2.98-3.2,3.38-5.44.18-.98.22-2.15-.8-2.67-1.41-.72-1.55.5-1.86,1.46-.29.91-.98,1.46-1.84.71-.72-.63-.51-1.54,0-2.25,1.32-1.83,3.07-2.61,5.21-1.56,2.07,1.02,3,2.82,1.99,4.96-.76,1.61-2.1,2.94-3.34,4.62Z"/>
    <path class="cls-8" d="M562.26,35.88c-.79,1.33.02,2.45.57,3.65.83,1.8.07,3.23-1.3,4.36-1.22,1.02-2.64,1.32-4.17.65-1.08-.47-2.13-1.04-2.34-2.33-.07-.42.08-1.14.37-1.32,1.7-1.02,1.74.66,2.34,1.5.45.63,1.14.68,1.7.17.85-.77.69-1.81.47-2.78-.31-1.35-2.77-2.35-.55-4.13.65-.52.83-1.58.1-2.22-1.37-1.18-1.49.31-1.94,1.05-.41.67-1,.93-1.63.39-.79-.68-.58-1.46.07-2.13,1.29-1.33,2.9-1.61,4.56-.98,1.86.71,2.31,2.2,1.76,4.11Z"/>
    <path class="cls-6" d="M514.77,323.99c-.07,2.62-2.16,2.26-2.68,3.63,1.17.79,2.58,1.38,3.47,2.42,1.6,1.85,1.54,4.01-.12,5.84-1.52,1.68-3.4,1.95-5.31.54-1.1-.81-2.38-2.03-1.16-3.22,1.6-1.57,1.6.55,2.07,1.38.38.69.96.89,1.65.65,1.15-.4,1.27-1.41,1.28-2.42.02-1.2-.24-2.91-1.48-2.72-4.05.62-3.59-2.15-3.16-4.24.71-3.49,3.46-.9,5.45-1.86Z"/>
    <path class="cls-10" d="M754.61,320.33c3.43.11,5.28,2.03,5.14,5.31-.14,3.28-2.2,5.08-5.58,4.97-3.42-.11-5.2-2.08-5.11-5.39.09-3.4,2.12-5.02,5.54-4.89ZM752.01,325.22c.23,1.38-.04,3.4,2.09,3.71,2.23.31,2.62-1.52,2.69-3.22.06-1.63.16-3.54-2.02-3.86-2.3-.34-2.53,1.49-2.76,3.37Z"/>
    <path class="cls-10" d="M573.63,449.63c-2.92-.26-4.71-2.16-4.57-5.48.15-3.41,2.21-4.94,5.61-4.81,3.49.13,5.26,2.15,5.08,5.38-.18,3.25-2.28,4.99-6.12,4.91ZM572.04,444.41c.16,1.71.3,3.66,2.48,3.56,2.1-.1,2.29-2,2.28-3.7,0-1.71-.22-3.52-2.46-3.45-2.25.08-2.18,2.01-2.31,3.59Z"/>
    <path class="cls-6" d="M667.15,195.11c-.15-1.89-.23-3.86-.49-5.81-.11-.81-.6-1.62.62-1.89,1.08-.24,2.22.05,2.3,1.21.33,4.58.53,9.18.63,13.77.02.95-1.02,1.15-1.89,1.1-1.19-.07-1.72-.65-1.6-1.91.2-2.12.29-4.26.43-6.48Z"/>
    <path class="cls-9" d="M585.58,439.33c4.09,0,6,1.84,5.92,5.22-.08,3.36-2.1,5.16-5.52,5.07-3.19-.09-4.95-1.87-5.02-5.03-.07-3.44,1.77-5.2,4.62-5.26ZM588.38,444.1c-.17-1.67-.26-3.56-2.61-3.26-2.12.27-2.23,2.1-2.15,3.78.08,1.71.47,3.53,2.65,3.31,2.17-.22,1.98-2.22,2.11-3.82Z"/>
    <path class="cls-10" d="M565.56,150c-3.38-.25-5.52-1.82-5.56-5.24-.04-3.33,1.71-5.26,5.19-5.33,3.44-.06,5.38,1.75,5.48,5.06.1,3.35-1.98,5.08-5.11,5.5ZM567.75,144.8c-.16-1.75-.02-3.93-2.56-3.94-2.14,0-2.48,1.85-2.5,3.56-.01,1.69.22,3.54,2.32,3.74,2.24.22,2.5-1.64,2.74-3.37Z"/>
    <path class="cls-3" d="M593.43,441.15c-.13-1.81-.21-3.62-.43-5.41-.13-1.05-.32-2.07,1.09-2.19,1.16-.1,1.91.66,1.96,1.76.19,4.27.29,8.55.39,12.83.03,1.4-1,1.51-2.03,1.46-1.3-.07-1.5-.85-1.38-2.03.22-2.12.26-4.27.39-6.41Z"/>
    <path class="cls-5" d="M485.47,365.72c-.21,1.62-.17,3.97-1.85,4.21-2.02.28-1.95-2.26-2.49-3.68-1.39-3.68-2.58-7.44-3.94-11.39,2.71-.79,4.38-1.01,4.6,2.94.14,2.53.58,5.62,3.21,7.4.15.18.3.35.46.52Z"/>
    <path class="cls-2" d="M524.99,357.1c1.82,2.02,3.79,3.43,1.42,6.13-.48.55-2.39,4.3,1.82,4.29,1.41,0,.79,1.26.37,1.72-2,2.18-3.74,1.65-4.99-.82-1.21-2.39-.48-8.58,1.37-11.33Z"/>
    <path class="cls-8" d="M819.17,328.78c-3.14,2.37-5.53,2.53-7.69.26-1.95-2.05-2.03-4.43-.46-6.8,1.57-2.37,3.91-2.13,6.23-1.66,1.03.21,1.84.91,1.6,2.11-.21,1.05-1.02,1.27-1.86.72-.98-.65-1.72-2.55-3.12-.81-1.25,1.55-1.1,3.47-.21,5.16.87,1.67,2.29,1.64,3.8.76.2-.11.56.07,1.7.25Z"/>
    <path class="cls-6" d="M765.68,397.45c-2.21,1.9-4.51,2.01-6.65.04-2.08-1.92-2.34-4.3-.97-6.8,1.24-2.26,3.29-2.55,5.58-2.22,1.22.17,2.31.58,2.51,1.96.06.38-.24,1.05-.57,1.22-1.34.7-1.58-.58-2.16-1.31-.65-.82-1.5-.69-2.11.03-1.33,1.56-1.26,3.43-.58,5.17.79,2.04,2.39,2,4.11,1.12.14-.07.42-.13.46-.07.15.23.24.51.39.86Z"/>
    <path class="cls-1" d="M499.29,365.32c.03-4.93,1.58-6.37,5.42-5.04.68.23,1.22.53,1.31,1.26.11.84-.44,1.19-1.18,1.17-3.88-.13-2.01,2.79-2.37,4.5-.25,1.2,2.32,3.3-1.15,3.45-2.76.12-2.17-1.73-2.04-3.36.05-.65,0-1.32,0-1.98Z"/>
    <path class="cls-4" d="M572.13,144.05c.8-1.45-2.2-5.02,2.45-4.63,1.39.12,3.39-.79,3.99,1.01.78,2.34-1.72,1.13-2.51,1.83-1.29,1.14-.8,2.73-.85,4.18-.04,1.23,2.2,3.34-1.25,3.32-2.96-.01-1.69-2.14-1.81-3.56-.05-.66,0-1.32,0-2.16Z"/>
    <path class="cls-1" d="M762.13,325.2c0-4.67,1.56-6.15,5.24-4.9.55.19,1.18.69,1.38,1.2.29.75-.34,1.29-1.07,1.25-3.96-.21-2.05,2.77-2.45,4.47-.28,1.18,2.41,3.33-1.15,3.44-2.89.08-1.96-1.94-1.94-3.47,0-.66,0-1.33,0-2Z"/>
    <path class="cls-2" d="M749.29,393.47c0-2.6-1.3-6.07,3.71-5.12,1.1.21,2.68-.3,2.93,1.14.37,2.12-1.49.84-2.28,1.24-2.12,1.06-1.02,3.17-1.21,4.86-.12,1.11,2.08,2.94-1.01,3.13-2.72.17-2.33-1.57-2.15-3.27.07-.66.01-1.33.01-1.99Z"/>
    <path class="cls-1" d="M773.58,270.43c0,1.6-.1,3.58.03,5.55.12,1.8-.98,1.86-2.19,1.74-1.48-.14-1.1-1.07-.96-2.13.51-3.92.79-7.86-.17-11.76-.22-.89-.4-1.65.64-1.96,1.12-.33,2.11.16,2.24,1.28.27,2.28.28,4.59.41,7.28Z"/>
    <path class="cls-7" d="M798.17,326.32c.07.82.1,1.65.2,2.47.16,1.31-.55,1.8-1.71,1.83-1.53.04-2.19-.76-1.66-2.18.99-2.62-1.51-5.88,1.3-7.98.75-.56,1.59.86,1.7,1.9.13,1.31.15,2.64.22,3.95-.02,0-.04,0-.06,0Z"/>
    <path class="cls-6" d="M673.19,377.52c4.24,1.78,6.64,5.61,9.55,8.88-3.51-2.6-7.96-4.15-9.48-8.94,0,0-.07.06-.07.06Z"/>
    <path class="cls-5" d="M521.13,66.66c3.17-2.21,6.84-3.23,10.31-4.73.19.43.38.87.57,1.3-3.41,1.52-6.83,3.05-10.24,4.57-.21-.38-.43-.76-.64-1.14Z"/>
    <path class="cls-2" d="M315.25,21.54c-3.78-3.04-7.56-6.07-10.37-10.1,4.72,2.07,8.5,5.11,10.37,10.1Z"/>
    <path class="cls-4" d="M649.07,83.39c9.57,1.96,19.07,4.09,28.65,5.81,8.14,1.46,16.09,4.22,24.53,3.87,1.42-.06,2.81.77,2.68,2.32-.14,1.69-1.73,1.97-3.07,1.54-17.3-5.58-35.34-7.69-53.07-11.21-4.64-.92-6.27-2.64-6.16-7.48.31-13.14.06-26.29-.02-39.44-.01-2.14.32-4.31-.62-6.39-.55-1.22.02-2.27.96-3.09.61-.53,1.3-.33,1.79.16.73.72,1.06,1.61.92,2.71-1.84,14.56-.47,29.19-.92,43.78-.18,5.77.22,5.92,5.51,3.78,13.26-5.38,26.51-10.77,39.76-16.18,1.84-.75,3.74-1.39,5.06-3.05,1.07-1.35,2.39-.75,3.62-.19.75.34.86.95.52,1.63-.54,1.06-1.29,1.63-2.58,2.01-16.27,4.8-31.6,12.04-47.25,18.46-.09.04-.1.3-.3.96Z"/>
    <path class="cls-4" d="M57.48,368.64c-1.53,1.67-3.03-1.03-4.22.52,2.91,2.92,3.22,3.01,5.6.3,2.11-2.41,4.47-2.67,7.11-1.23.88.48,1.38,1.46,1.33,2.54-.05,1.25-.93,1.57-2,1.77-1.47.27-4.04-.4-3.54,2.18.58,2.98,3.21.79,4.9,1.09-.33,1.57-1.62,2.16-2.65,2.01-7.5-1.15-14.97.14-22.45.03-2.33-.03-3.74-1.42-2.7-4.06.34-.86,1.45-1.43.87-2.64-1.24-2.57.46-3.29,2.46-3.62,2.44-.4,4.99.46,4.81,2.98-.38,5.49,5.3,3.05,6.87,5.81.19.33,1.33-.07,1.5-.81.09-.37-.19-.95-.49-1.25-.33-.33-.85-.48-1.31-.65-2.12-.82-4.6-2.01-2.93-4.55,1.58-2.4,4.28-2.24,6.83-.39Z"/>
    <path class="cls-8" d="M48.47,263.55c31.73,11.36,63.47,22.71,95.2,34.07-.22.6-.43,1.21-.65,1.81-31.71-11.35-63.42-22.69-95.13-34.04l.57-1.84Z"/>
    <path class="cls-4" d="M254.21,156.85c-3.16.5-6.05,1.29-6.03-3.31,0-1.24-1.54-1.58-2.78-1.5-1.5.1-2.81.86-2.6,2.39.34,2.37-.69,3.43-2.61,2.54-2.88-1.32.39-2.21.69-3.27.98-3.5,2.31-6.91,3.57-10.33.33-.89.51-2.12,1.67-2.26,1.6-.19,1.69,1.36,2.07,2.33,1.03,2.62,1.83,5.33,2.85,7.95.62,1.6.74,4.12,3.19,3.74,2.63-.4,1.29-2.91,1.69-4.51.35-1.38-1.59-3.62,1.18-4.03,1.53-.22,3.74-.83,4.68.68,1.65,2.64-1.67,1.41-2.22,2.37-.47.82-1.09,1.96-.85,2.71,1.64,5.11-.94,5.48-4.49,4.48Z"/>
    <path class="cls-5" d="M242.87,58.6c18.05,11.65,36.1,23.29,54.14,34.94-.35.55-.7,1.09-1.04,1.64-18.07-11.66-36.15-23.33-54.22-34.99.38-.53.75-1.06,1.13-1.59Z"/>
    <path class="cls-10" d="M28.15,377.74c-3.07.56-5.63.31-4.21-4.56.54-1.84-.26-4.05.19-5.94.46-1.96-2.29-4.57-.17-5.3,3.17-1.09,6.95-1.18,10.11.86,2.19,1.41,2.33,3.45,1.03,5.67-.22.38-.21.96-.13,1.42,1.3,7.35.98,7.75-6.82,7.85ZM33,373.51c-.03-1.88-.98-2.78-2.77-2.88-1.78-.1-2.89.55-2.91,2.49-.02,1.61.14,3.07,2.26,3.1,1.91.03,3.2-.71,3.42-2.71ZM32.72,366.05c-.18-1.16-.76-2.19-2.33-2.38-1.67-.2-2.98.19-3.05,2.19-.04,1.29-.26,2.89,1.55,3.08,1.81.19,3.07-.86,3.83-2.89Z"/>
    <path class="cls-5" d="M215.38,40.67c-1.7-1.88-2.9-3.48-5.24-3.25-1.75.17-2.88.75-2.76,2.7.1,1.74.89,2.43,2.61,1.66,1.93-.86,1.91.68,1.93,1.76.02.92-.13,2.28-1.65,1.67-3.09-1.25-3.03.84-2.91,2.74.18,2.78,2.34,2.24,4.12,2.2,2.14-.05,2.76-2.14,4.37-3.41.81,3.49-.18,5.15-3.75,4.98-2.65-.13-5.94.84-7.79-.41-1.92-1.29.1-4.7-.33-7.19-.19-1.13-.4-2.48.04-3.45.77-1.72-2.7-4.31.5-4.93,3.29-.64,6.99-1.18,10.2.64,1.11.63,1.13,2.26.66,4.29Z"/>
    <path class="cls-7" d="M285.18,10.46c3.37-1.01,4.36.44,4.23,3.69-.13,3.45.02,6.93.35,10.36.12,1.23.82,2.35-1.08,2.35-1.19,0-3.19.34-2.69-1.75.9-3.79-1.78-2.89-3.71-3.31-3.74-.81-5.98-4.5-4.5-7.91,1.35-3.11,3.31-5.96,7.47-3.4-3.96.8-5.01,3.42-4.24,7.01.32,1.52,1.16,2.87,3.04,2.62,1.57-.22,2.01-1.51,2.21-2.9.35-2.37-.25-4.59-1.07-6.77Z"/>
    <path class="cls-1" d="M9.69,246.72c-.47-.66-.94-1.33-1.42-1.99-.86-1.18-1.97-1.78-3.45-1.34-.89.26-1.4.91-1.44,1.82-.08,1.68,1.19,2.21,2.46,2.73,1.22.5,2.61.81,3.6,1.6,2.09,1.66,2.49,3.93,1.22,6.27-2.02,3.73-5.32,2.59-8.38,1.94-1.89-.4-1.87-.52-1.61-4.07,2.05-.27,2.08,2.39,3.81,2.63,1.53.21,3.09.57,3.9-1.19.8-1.75-.13-2.83-1.73-3.49-.46-.19-.93-.36-1.41-.51-3.2-1-5.68-2.75-4.38-6.47,1.26-3.61,4.31-3.34,7.53-2.78,3.45.6,2.51,2.6,1.31,4.86Z"/>
    <path class="cls-2" d="M271.74,162.4c13.37,8.86,26.75,17.73,40.12,26.59-.36.54-.73,1.09-1.09,1.63l-40.12-26.71c.36-.5.72-1.01,1.09-1.51Z"/>
    <path class="cls-10" d="M14.32,249.58c-.08-1.65-.13-3.31-.26-4.96-.09-1.06-1.04-2.43.84-2.73,1.21-.19,1.77.8,1.87,1.86.22,2.25,1.03,3.68,3.62,3.78,1.74.06,2.59,1.51,2.68,3.09.13,2.24,1.39,5.55-.12,6.49-1.94,1.2-5.06.6-7.66.59-1.37,0-1.27-1.09-1.21-2.16.11-1.98.03-3.97.03-5.96.07,0,.15,0,.22,0ZM20.33,252.32c-.45-.9.44-2.94-1.49-2.93-1.71,0-1.61,1.88-1.52,3.15.09,1.29-.68,3.51,1.66,3.32,1.71-.14,1.06-2.1,1.35-3.55Z"/>
    <path class="cls-10" d="M192.64,205.28c.66-2.33-.28-2.93-2.24-2.73-3.3.34-5.5-1.19-6.29-4.35-.65-2.59.04-4.9,2.2-6.7,2.64-2.19,5.39-.57,8.1-.32.83.07.94.84,1.01,1.49.51,4.6-.52,9.25.72,13.86.33,1.23-1.33,1.17-2.25,1.14-2.04-.07-2.19-1.11-1.26-2.39ZM192.93,196.34c-.17-1.55,0-4.21-2.93-4.21-2.11,0-2.71,2.12-2.7,4.06.02,2.16-.05,4.74,2.93,4.74,2.24,0,2.66-2.07,2.7-4.59Z"/>
    <path class="cls-5" d="M255.07,47.81c-1.72.69-1.22,4.41-3.29,2.93-2.37-1.7-2.59-5.23-3.47-8.04-.43-1.35,1.09-1.27,2.02-1.4,3.96-.56,7.13.09,7.28,5.12.64-.35.96-.45,1.19-.65,1.34-1.15-.93-5.25,2.38-4.12,2.88.99-1.04,3-.72,4.78.05.29-.16.64-.3.94-.59,1.31-.5,3.37-2.17,3.62-1.88.29-1.55-2.22-2.92-3.18Z"/>
    <path class="cls-9" d="M66.06,250.87c0,.66.22,1.43-.04,1.97-.8,1.65,2.41,4.83-1.52,5.05-3.41.19-7.79,1.18-8.82-4.02-.65-3.24.84-5.67,4.11-6.29,2.38-.45,3.82-1.08,3.01-3.78-.27-.92-.21-1.66.85-1.9,1.23-.28,1.98.44,2.09,1.52.24,2.47.3,4.96.43,7.44-.03,0-.07,0-.1,0ZM63.1,252.46c-.16-1.61.01-3.68-2.39-3.38-1.97.25-2.28,2.08-2.24,3.8.04,1.74.42,3.49,2.61,3.34,2.36-.16,1.87-2.22,2.02-3.77Z"/>
    <path class="cls-2" d="M202.87,220.1c5.06,7.96,11.99,6.35,18.5,6.14,2.31-.07,3.56-1.23,3.29-3.84-.1-.93-.07-2.68,1.71-2.34,1.64.31,2.51,1.38,2.12,3.28-.6,3-2.9,4.2-5.38,4.38-5.94.43-8.83,2.92-7.45,9.15.09.39-.32.89-.5,1.34-.34-.13-.84-.25-.84-.32.56-5.81-.49-10.27-7.57-11.16-2.13-.27-4.07-2.2-3.88-6.64Z"/>
    <path class="cls-6" d="M703.47,52.96c6.81-2.64,3.21,5.04,6.63,6.12,1.26-1.14,1.53-2.87,1.6-4.67.06-1.54.92-2.16,2.28-1.78,2.17.6.64,1.62.21,2.56-1.72,3.78-3.36,7.6-5.11,11.37-.99,2.13-2.45,3.66-5.09,2.76-.81-.28-1.4-.96-1.22-1.93.19-1.04.98-1.39,1.84-.99,4.59,2.11,3.52-1.7,3.05-3.37-.94-3.31-2.61-6.41-4.19-10.07Z"/>
    <path class="cls-8" d="M275.26,147.54c-1.09,2.34-1.35,4.82-.82,7.3.35,1.61-.25,2.22-1.68,2.23-1.49,0-1.76-.79-1.76-2.27,0-2.13,1.34-6.07-1.05-6-3.08.1-1.55,3.96-1.49,6.21.05,1.66-.63,2.11-1.96,2.1-1.51-.02-1.63-.78-1.61-2.27.12-9.4.39-9.65,10.32-7.37l.06.08Z"/>
    <path class="cls-6" d="M721.36,90.5q-4.83,4.73.39,10.67c-.27.17-.53.37-.82.48-3.23,1.3-3.69-2.56-5.57-3.03-1.85-.47-1.67,5.33-5.71,2.36.73-1.85,3.76-2.52,3.76-4.96,0-2.55-2.63-3.57-3.96-5.78,3.19-1.5,5.06-.48,6.09,3.28,1.67-2.16,2.26-5.59,5.82-3.01Z"/>
    <path class="cls-10" d="M224.97,43.23c0-1.46-.17-2.33.04-3.1.39-1.45-1.62-3.79.7-4.24,2.5-.48,1.65,2.22,2.03,3.62.46,1.67,1.76,1.71,3.09,1.87,2.64.32,4.18,1.88,4.55,4.46.31,2.14-.51,3.96-2.36,5.07-2.17,1.3-4.9,1.2-6.64,0-2.88-1.99-.62-5.55-1.4-7.68ZM232.34,46.41c-.23-1.65-.23-3.72-2.57-3.46-2.18.24-2.1,2.28-2.05,3.94.04,1.53.34,3.28,2.3,3.24,2.31-.06,2.17-2.07,2.33-3.71Z"/>
    <path class="cls-8" d="M76.66,255.86c-2.33,2.81-4.8,2.73-6.99.6-2-1.94-2.17-4.4-.72-6.83,1.31-2.19,3.42-2.49,5.66-2.01,1.6.34,2.61,1.44,2.69,3.14.05,1.22-.8,1.64-1.89,1.83-1.48.26-4.08-.38-3.64,2.07.52,2.89,3.04,1.44,4.91,1.21Z"/>
    <path class="cls-4" d="M47.12,253.53c-.84,1.46,2.28,4.56-1.69,4.37-2.69-.13-7.15,1.8-7.24-3.35-.04-2.29-2.42-6.32.43-6.71,3.37-.46,1.45,3.79,2.07,5.91.27.94.19,2.17,1.42,2.3,1.6.17,1.77-1.14,1.9-2.33.02-.16-.03-.35.03-.49.81-1.81-1.78-5.33,1.04-5.39,3.07-.07,1.22,3.75,2.06,5.69Z"/>
    <path class="cls-3" d="M299.53,29.09c.08,2.11.32,4.14-1.97,3.48-2.31-.66-4.94-3.08-4.76-4.73.32-2.91,3.29-7.8,4.77-7.25,3.76,1.38.53,6.12,1.96,8.51Z"/>
    <path class="cls-9" d="M242.85,41.33c2.19-.07,4.15,1.86,4.21,5.09.06,3.21-1.86,5.33-5.27,5.39-3.37.06-5.42-1.84-5.49-5.15-.07-3.28,1.76-5.24,6.54-5.33ZM244.02,46.32c-.08-1.69-.14-3.58-2.46-3.45-2.24.12-2.26,2.04-2.24,3.71.02,1.7.24,3.61,2.48,3.49,2.2-.11,2.18-2.06,2.23-3.74Z"/>
    <path class="cls-9" d="M36.28,252.82c-.62,3.24-2.33,5.36-5.69,5.23-3.32-.12-5.28-2.17-5.17-5.49.11-3.29,2.03-5.16,5.5-5.08,3.52.08,4.86,2.32,5.36,5.33ZM33.09,252.7c-.08-1.65.05-3.62-2.21-3.74-2.25-.12-2.49,1.74-2.51,3.46-.01,1.67,0,3.61,2.22,3.74,2.3.14,2.42-1.74,2.49-3.46Z"/>
    <path class="cls-5" d="M79.3,252.28c-.02-4.46,1.84-6.11,5.42-4.69.53.21,1,.79,1.26,1.31.1.21-.47,1.09-.65,1.06-4.26-.62-2.56,2.59-2.92,4.46-.23,1.2,2.18,3.38-1.26,3.39-2.92,0-1.75-2.11-1.84-3.55-.04-.66,0-1.32,0-1.99Z"/>
    <path class="cls-6" d="M221.38,43.95c.25,2.44.35,4.25.63,6.04.31,2-1.12,1.69-2.18,1.69-1.13,0-1.68-.41-1.4-1.87.79-4.07.81-8.2,0-12.3-.17-.86-.41-1.69.77-1.89,1.16-.2,2.07.38,2.13,1.51.13,2.47.04,4.96.04,6.82Z"/>
    <path class="cls-6" d="M53.54,250.67c0,1.65-.13,3.31.04,4.94.16,1.49-.29,2.2-1.79,2.17-1.71-.04-1.55-.89-1.33-2.29.6-3.74.65-7.54-.04-11.29-.18-.97-.87-1.97.61-2.32,1.45-.35,2.22.58,2.29,1.88.11,2.3.03,4.61.03,6.91.06,0,.13,0,.19,0Z"/>
    <path class="cls-2" d="M205.43,214.18c-3.09.28-6.09,1.68-4.43-3.39.63-1.93.23-4.3-.13-6.39-.23-1.36-.49-2.32,1.19-2.46,1.44-.13,1.46,1.06,1.53,2.03.23,3.36-.6,6.85,1.85,10.22Z"/>
    <path class="cls-4" d="M275.2,147.46c3.08-1.95,4.56-.46,5.15,2.51.32,1.59,0,3.35.49,4.86.68,2.03-.27,2.38-1.81,2.35-1.76-.04-1.89-.81-1.6-2.57.42-2.52,1.7-5.71-2.18-7.07,0,0-.06-.08-.06-.08Z"/>
    <path class="cls-2" d="M215.35,215.57c-1.2-4.04-.64-8.07.25-12.1.82,4.04.93,8.07-.25,12.1Z"/>
    <path class="cls-7" d="M209.84,466.42v-10.9c2.2,3.61,1.08,7.27,0,10.9Z"/>
    <path class="cls-5" d="M212.29,333.56c.01-4.29-.52-8.6,1.27-12.85v12.78l-1.27.07Z"/>
    <path class="cls-5" d="M528.74,283.06c-3.78,2.23-7.56,4.45-11.34,6.68-.24-.39-.48-.79-.72-1.18,3.48-2.72,7.4-4.72,11.29-6.75.26.42.51.84.77,1.25Z"/>
  </g>
</svg>