<?xml version="1.0" encoding="UTF-8"?>
<svg id="Layer_2" data-name="Layer 2" xmlns="http://www.w3.org/2000/svg" viewBox="0 0 721.39 292.34">
  <defs>
    <style>
      .cls-1 {
        fill: #fbbb33;
        stroke: #f16472;
        stroke-miterlimit: 10;
      }
    </style>
  </defs>
  <g id="Funkies">
    <path class="cls-1" d="M.5,103.98h9.53c-2.6,8.15,4.51,13.37,5.53,20.59,5.16-5.92,8.4-16.98,6.04-20.2,2.1-.76,4.19-.31,6.34-.26-5.61,8.26-7.65,18.11-12.82,27.57-3.45-7.9-6.52-15-9.64-22.07-.98-2.24-1.64-4.9-4.98-4.62v-1Z"/>
    <path class="cls-1" d="M638.83,157.31c-4.48-4.44-8.99-8.84-13.42-13.34-.81-.82-2.62-1.75-1.15-3.21,1.47-1.47,2.38.35,3.2,1.16,5.12,5.01,10.1,10.17,15.26,15.14,1.98,1.91,2.24,3.28.12,5.31-5.18,4.95-10.16,10.1-15.26,15.14-.9.89-1.94,2.46-3.29,1.2-1.48-1.37.3-2.36,1.12-3.17,4.36-4.33,8.8-8.57,13.12-12.75-1.25-2.04-2.73-1.43-3.93-1.43-19-.04-38,0-57-.06-2.5,0-4.09.44-5.54,2.96-3.36,5.85-11.27,5.87-14.75.04-1.45-2.44-3.03-2.77-5.51-3.05-19.11-2.14-35.66,2.98-52.09,13.42-31.17,19.82-63.57,37.69-95.47,56.36-5.72,3.35-5.83,3.28-5.83-3.25,0-8.67-.16-17.34.07-26,.09-3.49-.97-4.59-4.48-4.53-11.82.19-23.65.21-35.46-.03-3.01-.06-3.17,1.17-3.17,3.43.04,20.66.07,41.33-.03,61.99-.01,2.66.86,3.42,3.44,3.36,7.16-.15,14.33-.08,21.5-.02,1.34.01,3.49-.64,3.34,1.71-.11,1.9-2.06,1.26-3.26,1.26-17.67.04-35.33.04-53,0-1.36,0-3.62.55-3.48-1.58.12-1.92,2.33-1.39,3.74-1.4,6.67-.04,13.35-.29,19.99.08,4.15.23,4.89-1.3,4.86-5.06-.17-20.33.07-40.67-.21-61-.06-4.2,1.29-5.44,5.11-5.42,11.82.04,23.65-.2,35.46.01,4.13.07,5.76-.66,5.68-5.38-.31-19.49-.26-39-.03-58.5.05-4.09-1.27-4.99-5.06-4.88-9.16.27-18.33.16-27.5.09-2.18-.02-3.43.5-4.7,2.6-3.77,6.2-11.09,6.08-14.92-.18-1.12-1.83-2.18-2.48-4.25-2.47-17.83.08-35.67.12-53.5.01-2.56-.01-3.96.85-4.95,3.12-1.19,2.74-2.72,5.33-4.03,8.02-.52,1.06-.86,2.35-2.29,2.29-1.42-.06-1.6-1.43-2.11-2.46-3.89-7.71-7.83-15.41-12.18-23.95-4.12,8.11-7.87,15.58-11.73,22.99-.65,1.25-.66,3.34-2.5,3.41-2.15.08-2.24-2.19-2.95-3.57-3.81-7.35-7.53-14.74-11.64-22.84-4.21,8.28-7.99,15.82-11.88,23.3-.62,1.19-.61,3.3-2.64,3.11-1.53-.15-1.75-1.83-2.33-2.99-3.69-7.45-7.38-14.9-11.58-23.39-3.44,6.79-6.39,12.95-9.68,18.93-1.4,2.54-1.77,7.12-4.54,7.14-3.17.02-3.47-4.62-4.91-7.25-3.28-5.96-6.22-12.11-9.5-18.59-.93,1.61-1.88,2.66-2.17,3.88-1.97,7.99-7.31,9.66-14.83,9.07-7.95-.62-15.99-.17-23.99-.18-13.83,0-27.66.12-41.48-.08-3.48-.05-5.94.97-8.25,3.5-3.71,4.06-7.66,7.89-11.65,11.68-1.13,1.07-2.29,3.83-4.14,1.99-1.57-1.56.93-2.82,1.97-3.9,3.81-3.96,7.64-7.92,11.67-11.66,2.54-2.35,2.63-4.13.04-6.54-4.39-4.08-8.53-8.44-12.75-12.7-.79-.8-1.99-1.77-.92-2.92,1.12-1.2,2.12.03,2.91.81,4.75,4.68,9.54,9.32,14.15,14.13,1.88,1.96,3.84,2.78,6.58,2.73,9-.15,18-.25,27,.03,3.83.12,4.76-1.12,4.73-4.79-.18-18.33,0-36.67-.18-55-.03-3.24.65-4.37,4.04-4.36,31,.11,62,.11,93,0,3.43-.01,4.16,1.05,4.01,4.31-.3,6.65.12,13.34-.18,19.99-.17,3.8,1.08,5.15,4.81,4.69,3.81-.47,5.02.78,2.66,4.36-2.38,3.61-4.51,7.39-6.75,11.09-1.34,2.22-2.62,2.33-4,0-2.37-4.01-4.79-8-7.22-11.98-1.66-2.71-.49-3.86,2.2-3.44,5,.77,5.84-1.7,5.6-5.96-.29-5.32-.2-10.67-.02-15.99.1-2.92-.65-4.07-3.86-4.06-29.17.12-58.33.11-87.5,0-3.16-.01-3.91,1.08-3.89,4.04.11,17.67.14,35.33-.02,53-.03,3.46,1.28,4.17,4.39,4.06,10.98-.37,21.97-.6,32.95-.7,2.41-.02,3.58-1.02,4.5-3.05,1.37-3.03,2.95-5.97,4.48-8.93.44-.85.59-2.05,1.82-2.16,1.59-.14,1.74,1.34,2.23,2.29,3.95,7.7,7.85,15.42,12.31,24.2,2.72-5.34,5.08-9.96,7.43-14.58,1.58-3.11,3.14-6.24,4.74-9.35.51-.99.67-2.43,2.09-2.54,1.82-.14,1.9,1.63,2.45,2.72,3.79,7.57,7.51,15.17,11.71,23.7,4.18-8.21,7.93-15.65,11.77-23.04.65-1.25.73-3.3,2.55-3.37,1.88-.07,1.98,1.96,2.63,3.22,3.8,7.38,7.56,14.77,11.87,23.21,2.97-5.85,5.54-10.9,8.12-15.96,1.28-2.52,2.5-5.08,3.88-7.55.61-1.09.68-2.87,2.33-2.95,1.74-.08,1.83,1.73,2.4,2.82,3.9,7.53,7.71,15.1,11.74,23.02,2.36-2.18,3.38-4.84,4.39-7.34,1.3-3.21,3.04-4.34,6.72-4.25,17.48.41,34.98.37,52.47.55,2.56.03,5.07.28,5.84-3.05.1-.45.46-1.05.85-1.2,6.67-2.59,5.04-8.33,5.05-13.37.04-25.83.14-51.67-.09-77.5-.04-4.68.96-6.19,5.92-6.15,28.65.25,57.31,0,85.96.24,4.54.04,5.76-1.27,5.4-5.58-.38-4.47-.07-8.99-.07-13.49,0-1.06.17-2.24,1.34-2.35,1.63-.15,1.66,1.25,1.66,2.43,0,13.5.01,27-.01,40.5,0,1.11.12,2.64-1.63,2.41-1.55-.2-1.34-1.68-1.35-2.81-.03-4.83-.21-9.67.05-14.49.17-3.19-1.04-3.88-4-3.87-28.83.09-57.66.09-86.48,0-2.75,0-3.75.72-3.74,3.63.09,28.17.07,56.33.03,84.5,0,1.85.34,3.2,2.25,3.88.76.27,1.77.74,2.02,1.37,2.36,5.91,7.43,4.82,12.08,4.83,7.5.02,15-.13,22.5.09,3.22.09,4.35-.8,4.26-4.15-.22-8.83-.08-17.66-.07-26.5,0-6.31.17-6.41,5.47-3.32,37.98,22.12,75.97,44.22,113.9,66.44,3.58,2.1,7.11,3.31,11.29,3.12,5.16-.24,10.33-.06,15.5-.06,10.57,0,10.54-.04,17.74-6.56,1.25-1.13.95-2.4.95-3.65.03-39.83-.02-79.66.09-119.5,0-3.43-1.23-4.15-4.36-4.14-26.99.1-53.99.12-80.98-.02-3.6-.02-4.58,1.2-4.4,4.6.25,4.65.09,9.33.03,14-.01,1.06.33,2.64-1.42,2.61-1.22-.02-1.42-1.25-1.42-2.27-.01-13.66-.01-27.32,0-40.99,0-1.07.36-2.15,1.57-2.08,1.32.07,1.27,1.34,1.28,2.32.03,5.17.12,10.34,0,15.5-.06,2.56.8,3.52,3.44,3.5,19.33-.1,38.66-.1,58-.1,9.16,0,18.32.17,27.48,0,3.3-.06,3.71,1.27,3.71,4.17-.1,40.17-.08,80.33-.07,120.5,0,5.8,6.4,12.11,12.28,12.11,18.5,0,37,0,55.5,0,1.45,0,2.91,0,4.36,0,.17-.41.34-.81.51-1.22ZM519.73,159.97c-39.76-23.17-78.69-45.84-117.86-68.67v137.75c39.38-23.08,78.2-45.83,117.86-69.08Z"/>
    <path class="cls-1" d="M272.95,91.86h-9.6c4.07-3.88,4.1-22.84,0-26.88,4.8.3,9.44-.58,14.04.62,2.84.75,4.84,2.25,5.26,5.25.42,2.94-.72,5.34-3.49,6.51-2.3.97-2.65,1.97-1.07,3.96,2.92,3.69,4.56,8.55,10.52,10.06-5.06,1.47-8.1.41-10.25-3.57-1.41-2.62-3.34-4.96-5.13-7.36-.92-1.24-2.2-2.41-3.41-.46-1.49,2.4.36,9.83,3.14,11.87ZM269.57,72.61c1.66,1.07-2.44,5.5,2.75,5.29,3.49-.15,6.04-1.92,6.14-5.84.09-3.52-1.61-5.8-5.21-6.01-4.69-.27-3.41,3.36-3.68,6.56Z"/>
    <path class="cls-1" d="M674.25,163.35c2.24-6.66,7.95-12.23,6.29-20.19h5.47c-5.69,8.21-7.74,17.94-12.59,27.14-5.41-8.83-7.34-18.77-13.14-26.99h7.36c-1.57,7.89,4.56,13.31,6.61,20.05Z"/>
    <path class="cls-1" d="M354.63,276.9c5.32,0,10.63-.03,15.95.02,1.05.01,2.64-.39,2.74,1.27.09,1.58-1.35,1.65-2.52,1.65-11.13.02-22.26,0-33.39.01-1.09,0-2.24-.31-2.28-1.42-.05-1.62,1.41-1.53,2.56-1.53,5.65-.02,11.3,0,16.95,0Z"/>
    <path class="cls-1" d="M353.9,288.9c3.16,0,6.33-.01,9.49,0,.98,0,2.19-.08,2.28,1.28.08,1.24-.91,1.65-2,1.65-6.66,0-13.32,0-19.98-.03-.89,0-1.78-.49-1.85-1.36-.11-1.35,1.07-1.5,2.07-1.52,3.33-.04,6.66-.02,9.99-.02v-.02Z"/>
    <path class="cls-1" d="M298.65,91.8h-7.2c1.99-4.81,1.27-9.65.68-14.44-.09-.74-1.6-1.39-.11-2.17.86-.45,1.91-.99,2.79-.87,1.32.18.88,1.54.9,2.44.06,3.14.01,6.29.03,9.43.01,1.98-.17,4.04,2.9,5.6Z"/>
    <path class="cls-1" d="M719.95,174.7c-2.65.35-3.11-1.1-3.38-2.87-.4-2.69.63-5.46-.75-8.16-.57-1.11.99-2.06,1.81-2.53,1.64-.94,1.02,1.36,2.1,1.85,2.87,1.27-.51.79-.59,1.47-.4,3.39-.96,6.74.81,10.24Z"/>
    <path class="cls-1" d="M42.54,135.66c-1.52.5-2.96.42-4.61.03,1.77-2.87,1.39-5.91.97-8.95-.09-.64-1.81-.9-.52-1.81.64-.45,1.58-.76,2.33-.66.98.13.95,1.1.93,1.97-.09,3.06-.84,6.21.91,9.41Z"/>
    <path class="cls-1" d="M50.38,135.84h-5.23c1.84-4.29,1.61-8.14-.61-11.3,3.57.04,3.74.25,4.05,3.92.2,2.37-.81,5,1.79,7.38Z"/>
    <path class="cls-1" d="M36.1,135.81h-5.24c2.03-2.97,1.55-6.03,1.2-9.07-.08-.67-2.22-.97-.38-1.95.57-.3,1.28-.63,1.86-.54,1.42.22.85,1.48.98,2.35.42,2.96-1.03,6.2,1.58,9.21Z"/>
    <path class="cls-1" d="M709.16,174.34c1.95-2.89.93-6.09,1.05-9.19.03-.79-2.18-1.29-.37-2.04.86-.36,2.36-.62,2.65,1.22.47,3.01-.25,6.01.84,9.17.6,1.75-2.68.59-4.19.85h.01Z"/>
    <path class="cls-1" d="M709.14,174.35c-4.28,1.38-6.28-.11-6.07-4.66.08-1.64-.18-3.3-.27-4.95-.03-.57-1.66-1.26-.02-1.65.98-.23,2.52-.57,2.6,1.28.1,1.99.16,3.99.04,5.98-.16,2.73,1,4.05,3.73,3.99,0,0-.01.01-.01.01Z"/>
    <path class="cls-1" d="M696.42,173.93c-3.87,2.5-6.38.36-7.54-2.95-1.06-3.03-.6-6.25,3.69-6.91l-.11-.15c-3.16,5.92-1.78,9.34,4.09,10.12l-.13-.11Z"/>
    <path class="cls-1" d="M692.57,164.07c3.08-1.31,5.52-.83,6.57,1.83,1.28,3.24,1.46,6.47-2.72,8.03,0,0,.13.11.13.11,2.06-6.58,1.02-9.14-4.09-10.12l.11.15Z"/>
    <path class="cls-1" d="M429.57,195.8c0,1.05-.65,1.32-1.3,1.37-1.49.12-3.01.32-4.47.13-3.98-.53-5.31,1.1-5.06,5.02.12,1.8,1.41,5.2-1.52,5.22-2.03.01-1.24-3.39-1.1-5.18.29-3.83-.91-5.64-4.98-5.06-1.29.19-2.65,0-3.97-.16-.6-.07-1.31-.28-1.33-1.17-.02-.9.77-1.27,1.28-1.2,7.24,1.05,10.35-1.85,9.07-9.2-.07-.42.59-1.28,1.05-1.4,1.06-.28,1.6.72,1.46,1.47-1.3,7.47,1.87,10.24,9.14,9,.73-.12,1.67.22,1.71,1.15Z"/>
    <path class="cls-1" d="M418.13,122.94c3.14,0,6.28,0,9.41,0,1.03,0,2.16.08,2.18,1.39.01,1.19-.96,1.59-2.06,1.59-6.61,0-13.21,0-19.82-.03-1.05,0-2.09-.45-1.95-1.66.14-1.24,1.34-1.27,2.33-1.28,3.3-.02,6.61,0,9.91,0Z"/>
  </g>
</svg>