<?xml version="1.0" encoding="UTF-8"?>
<svg id="Layer_2" data-name="Layer 2" xmlns="http://www.w3.org/2000/svg" viewBox="0 0 1073.34 1073.34">
  <defs>
    <style>
      .cls-1 {
        fill: #fbbb33;
        stroke: #fbbb33;
      }

      .cls-1, .cls-2, .cls-3, .cls-4 {
        stroke-miterlimit: 10;
        stroke-width: 10px;
      }

      .cls-2 {
        fill: #e4e1b5;
        stroke: #e4e1b5;
      }

      .cls-3 {
        stroke: #f16472;
      }

      .cls-3, .cls-4 {
        fill: none;
      }

      .cls-4 {
        stroke: #e5d6e9;
      }

      .cls-5 {
        fill: #231f20;
        stroke-width: 0px;
      }
    </style>
  </defs>
  <g id="Layer_1-2" data-name="Layer 1">
    <rect class="cls-5" x="0" width="1073.34" height="1073.34" transform="translate(1073.34 1073.34) rotate(180)"/>
    <path class="cls-2" d="M447.29,643.34c-43.28.31-82.87.22-126.16.03-5.33-.02-8.09,1.44-9.98,6.71-5.85,16.3-12.14,32.45-18.73,48.47-1.13,2.74-4.56,6.42-6.96,6.45-32.28.43-64.57.29-98.47.29,13.51-31.11,26.29-60.63,39.15-90.12,34.61-79.42,59.43-157.4,93.84-236.91,2.83-6.55,4.83-8.9,12.12-8.78,29.86.49,70.95-1.1,100.82-1.31,5.19-.04,17.82-1.24,20.05,3.89M432.22,573.26c-15.1-39.27-29.92-77.83-45.64-118.72-15.78,41.06-30.55,79.51-45.62,118.72h91.27Z"/>
    <path class="cls-1" d="M588.65,705.53c1.74-4.54,2.69-7.35,3.87-10.07,46.17-105.96,92.42-211.88,138.4-317.92,3.21-7.39,6.88-9.07,15.41-9.1,29.58-.11,59.13-.37,88.98,0,3.09.04,5.36.49,7.21,1.69,3.02,1.97,3.92,4.06,4.21,4.8,2.31,5.98,61.27,142.63,142.6,331.01-50.62-.14-87.4-.38-95.03-.19-1.45.04-5.75.18-9.39-2.52-2.72-2.02-3.88-4.74-4.4-6-9.96-24.23-16.73-45.33-16.73-45.33-1.96-5.65-5.13-7.33-10.78-7.31-42.99.16-85.98.19-128.96-.03-5.91-.03-8.66,2.24-10.61,7.56-5.74,15.7-11.78,31.29-18.09,46.77-1.07,2.62-4.08,6.33-6.23,6.36-32.86.41-65.73.28-100.46.28ZM744.52,572.06h88.7c-14.76-38.46-29.14-75.92-44.33-115.51-15.2,39.56-29.53,76.87-44.37,115.51Z"/>
    <path class="cls-4" d="M450.98,368.65c27.65-.7,115.08-2.65,185.55.41,7.87.34,23.69,1.15,42.84,7.74,12.97,4.47,46.92,16.71,68.05,51.13,13.2,21.51,15.43,41.88,16.26,50.91,3.14,34.03-2.91,65.74-26.37,91.35-11.53,12.58-26.53,21.95-40.92,33.55,21.92,32.41,44.87,66.36,69.02,102.07h-10.9c-28.96,0-57.94-.34-86.89.22-7.78.15-12.06-2.62-16.13-8.8-16.31-24.74-33.21-49.08-49.51-73.83-3.47-5.27-7.35-7.35-13.45-7.08-8.52.38-17.09.48-25.6-.02-7.36-.43-10.12,1.81-9.95,9.71.51,22.95.18,45.93.18,68.89v10.36h-102.71c.18-112.21.35-224.42.53-336.62ZM553.67,540.03c23.53,0,46.74,1.97,69.46-.55,23.43-2.59,37.1-21.84,37.21-45.89.12-25.01-13.27-44.78-36.33-47.91-23-3.12-46.5-2.55-70.35-3.62v97.96Z"/>
    <path class="cls-3" d="M104.58,368.03h102.68c0,3.89-.01,7.6,0,11.31.22,61.15-.1,122.31.95,183.45.4,23.42,7.68,45.39,30.94,57.11,28.2,14.22,74.95,10.07,87.23-34.63,3.74-13.63,5.4-28.16,5.56-42.31.62-54.88.25-109.78.25-164.67,0-3.21,0-6.42,0-10.08h99.43c.17,3.1.48,6.24.48,9.38.03,54.59.31,109.19-.1,163.77-.2,27.14-2.41,54.14-13.61,79.58-16.97,38.56-46.23,63.97-87.28,75.23-46.24,12.68-92.76,12.93-138.06-4.13-50.73-19.11-77.99-56.97-85.74-108.73-2.11-14.09-2.55-28.51-2.62-42.79-.29-53.7-.12-107.39-.12-161.09,0-3.53,0-7.06,0-11.4Z"/>
  </g>
</svg>